<svg xmlns="http://www.w3.org/2000/svg" width="606.11" height="300.83" viewBox="0 0 606.11 300.83"><defs><radialGradient id="svgID0" cx="34.3" cy="322.8" r="41.69" fx="43.12" fy="322.8" gradientTransform="matrix(.69453 .2554 -.20504 .63846 328.68 25.29)" gradientUnits="userSpaceOnUse"><stop offset=".08" stop-color="#824c4c"/><stop offset="1" stop-color="#cd6362"/></radialGradient><radialGradient id="svgID1" cx="773.11" cy="-212.85" r="52.53" fx="822.88" fy="-229.66" gradientTransform="matrix(-.17463 -.7191 .62192 -.15103 801.98 719.63)" gradientUnits="userSpaceOnUse"><stop offset=".15" stop-color="#894e4e"/><stop offset=".64" stop-color="#cd6362"/></radialGradient><radialGradient id="svgID2" cx="1158.62" cy="257.83" r="54.73" fx="1141.3" fy="268.48" gradientTransform="matrix(-.6851 .27972 -.21168 -.51845 1369.01 -86.92)" gradientUnits="userSpaceOnUse"><stop offset="0" stop-color="#824c4c"/><stop offset=".38" stop-color="#a15555"/><stop offset=".85" stop-color="#cd6362"/></radialGradient><radialGradient id="svgID3" cx="73.02" cy="64.53" r="22.92" fx="73.02" fy="64.53" gradientUnits="userSpaceOnUse"><stop offset="0" stop-color="#834c4c"/><stop offset="1" stop-color="#cc6161"/></radialGradient><radialGradient id="svgID4" cx="-335.66" cy="-49.33" r="23.52" fx="-335.66" fy="-49.33" gradientTransform="rotate(128.98 -201.751 140.067)" gradientUnits="userSpaceOnUse"><stop offset=".47" stop-color="#cd6362"/><stop offset="1" stop-color="#864e4e"/></radialGradient><radialGradient id="svgID5" cx="73.68" cy="247.12" r="29.64" fx="100.43" fy="247.12" gradientUnits="userSpaceOnUse"><stop offset=".27" stop-color="#814c4c"/><stop offset=".45" stop-color="#955251"/><stop offset=".81" stop-color="#c86160"/><stop offset=".84" stop-color="#cd6362"/></radialGradient><radialGradient id="svgID6" cx="118.33" cy="30.05" r="30.05" fx="118.33" fy="30.05" gradientUnits="userSpaceOnUse"><stop offset=".34" stop-color="#cc6262"/><stop offset="1" stop-color="#8b4f4f"/></radialGradient><radialGradient id="svgID7" cx="31.37" cy="99.59" r="26.84" fx="31.37" fy="99.59" href="#svgID6"/><radialGradient id="svgID8" cx="35.99" cy="213.15" r="30.05" fx="35.99" fy="213.15" gradientTransform="matrix(.98 0 0 1 -5.81 0)" href="#svgID6"/><radialGradient id="svgID9" cx="120.72" cy="271.08" r="29.75" fx="120.72" fy="271.08" href="#svgID6"/><radialGradient id="svgIDa" cx="345.74" cy="114.51" r="36.49" fx="345.74" fy="114.51" gradientTransform="matrix(.99 0 0 1 4.65 -.73)" href="#svgID6"/><radialGradient id="svgIDb" cx="231.23" cy="74.28" r="33.04" fx="231.23" fy="74.28" gradientTransform="matrix(.97 0 0 1.02 2.98 .9)" href="#svgID6"/><radialGradient id="svgIDc" cx="224.26" cy="246.76" r="34.75" fx="224.26" fy="246.76" gradientTransform="matrix(.97 0 0 1.01 4.28 -1.72)" href="#svgID6"/><radialGradient id="svgIDd" cx="350.93" cy="238.2" r="35.78" fx="350.93" fy="238.2" gradientTransform="matrix(.98 0 0 1.03 5.01 -7.6)" href="#svgID6"/><radialGradient id="svgIDe" cx="462.21" cy="257.43" r="29.45" fx="462.21" fy="257.43" gradientTransform="matrix(1 0 0 1.01 -5.2 -3.09)" href="#svgID6"/><radialGradient id="svgIDf" cx="583.8" cy="250.65" r="29.45" fx="583.8" fy="250.65" gradientTransform="matrix(1 0 0 1.03 -8.27 -9.18)" href="#svgID6"/><radialGradient id="svgIDg" cx="491.31" cy="157.67" r="29.45" fx="491.31" fy="157.67" gradientTransform="matrix(.99 0 0 1.03 .5 -7.59)" href="#svgID6"/><radialGradient id="svgIDh" cx="465.31" cy="48.87" r="29.45" fx="465.31" fy="48.87" gradientTransform="matrix(1 0 0 1.02 -2.05 -7.57)" href="#svgID6"/><radialGradient id="svgIDi" cx="566.47" cy="57.23" r="29.45" fx="566.47" fy="57.23" gradientTransform="matrix(.99 0 0 1.03 -.75 -7.6)" href="#svgID6"/><linearGradient id="svgIDj" x1="-113.88" x2="-32.92" y1="475.81" y2="414.68" gradientTransform="matrix(.65256 -.73114 .70875 .63259 -45.19 -177.49)" gradientUnits="userSpaceOnUse"><stop offset="0" stop-color="#cd6362"/><stop offset=".83" stop-color="#925151"/><stop offset="1" stop-color="#864e4e"/></linearGradient><linearGradient id="svgIDk" x1="61.9" x2="107.94" y1="476.26" y2="428.33" gradientTransform="matrix(.45508 .58353 -.50467 .39358 476.38 -133.9)" gradientUnits="userSpaceOnUse"><stop offset="0" stop-color="#915151"/><stop offset=".64" stop-color="#b55a5b"/><stop offset="1" stop-color="#c45f60"/></linearGradient><linearGradient id="svgIDl" x1="270.16" x2="317.73" y1="459.81" y2="423.01" gradientTransform="matrix(.35786 -.64772 .56019 .3095 -4.9 227.3)" gradientUnits="userSpaceOnUse"><stop offset="0" stop-color="#cd6362"/><stop offset="1" stop-color="#cd6362"/></linearGradient><linearGradient id="svgIDm" x1="260.5" x2="319.82" y1="-90.91" y2="-128.62" gradientTransform="matrix(.64406 -.3644 .31515 .55703 320.11 367.24)" gradientUnits="userSpaceOnUse"><stop offset="0" stop-color="#834c4c"/><stop offset=".79" stop-color="#cc6161"/></linearGradient><linearGradient id="svgIDn" x1="47.49" x2="92.25" y1="61.31" y2="61.31" gradientUnits="userSpaceOnUse"><stop offset="0" stop-color="#cc6161"/><stop offset="1" stop-color="#9b5353"/></linearGradient><linearGradient id="svgIDo" x1="53.53" x2="98.29" y1="68.49" y2="68.49" gradientUnits="userSpaceOnUse"><stop offset="0" stop-color="#cc6161"/><stop offset="1" stop-color="#8b4f4f"/></linearGradient><linearGradient id="svgIDp" x1="23.69" x2="26.54" y1="154.68" y2="154.68" gradientUnits="userSpaceOnUse"><stop offset="0" stop-color="#8a4f4f"/><stop offset="1" stop-color="#bd5d5d"/></linearGradient><linearGradient id="svgIDq" x1="46.46" x2="92.58" y1="246.98" y2="246.98" gradientUnits="userSpaceOnUse"><stop offset="0" stop-color="#cd6362"/><stop offset=".27" stop-color="#b85c5c"/><stop offset=".82" stop-color="#854d4d"/><stop offset=".86" stop-color="#814c4c"/></linearGradient><linearGradient id="svgIDr" x1="53.24" x2="95.23" y1="243.3" y2="243.3" gradientUnits="userSpaceOnUse"><stop offset="0" stop-color="#cd6362"/><stop offset="1" stop-color="#cd6362"/></linearGradient><linearGradient id="svgIDs" x1="46.28" x2="92.41" y1="250.5" y2="250.5" href="#svgIDl"/><style>.cls-6{stroke-width:0;fill:#cd6362}</style></defs><path fill="url(#svgIDj)" stroke-width="0" d="m231.17 109.65-6.04 102.2s-7.95.33-9.19.33l4.83-102.99c3.88.55 5.7.56 10.39.46Z"/><path fill="url(#svgIDk)" stroke-width="0" d="m310.12 106.95-51.91-22.33s.66-3.43.9-6.26l54.15 19.4c-1.77 4.61-2.4 5.73-3.15 9.19Z"/><path fill="url(#svgIDl)" stroke-width="0" d="m348.11 150.9 6.05 49.27s-5.66-.12-8.19.13l-6.53-49.78c3.02.31 5.9.49 8.66.38Z"/><path fill="url(#svgID0)" stroke-width="0" d="m315.71 241.74-60.4 7.22s.07-3.93-.28-7.36l60.61-9.61c-.38 4.22-.19 5.68.07 9.75"/><path fill="url(#svgIDm)" stroke-width="0" d="m483.42 184-20.34 44.76s-4.53-.58-5.73-.44l18-46.8c3.87 1.81 5.13 1.78 8.07 2.48"/><path fill="url(#svgID1)" stroke-width="0" d="m512.32 169.8 51.37 51.98s-3.21 1.43-5.42 3.51l-50.75-49.3c1.81-2.09 2.46-2.62 4.79-6.18Z"/><path fill="url(#svgID2)" stroke-width="0" d="m499.59 126.67 39.79-56.03s.95 2.13 6.65 5.83l-38.62 55.58c-3.04-2.48-3.98-3.23-7.82-5.37Z"/><path d="m471.05 70.39 14.47 53.47s-3.58.49-6.57 1.18l-15.79-52.79c4.8-.83 5.69-1.01 7.89-1.86" class="cls-6"/><path fill="url(#svgID3)" stroke-width="0" d="M97.98 51.9 53.99 85.22s-2.14-3.24-5.93-6.52l43.88-34.85c2.04 3.23 3.85 5.82 6.04 8.05"/><path fill="none" stroke="url(#svgIDn)" stroke-miterlimit="10" d="M91.94 43.84 47.8 78.77"/><path fill="none" stroke="url(#svgIDo)" stroke-miterlimit="10" d="M97.98 51.77 53.83 85.21"/><path fill="url(#svgID4)" stroke-width="0" d="m24.2 183.57 1.84-57.68s3.77.53 8.61.28l-.56 57.3c-3.39-.38-6.77-.22-9.88.1Z"/><path fill="url(#svgIDq)" stroke-width="0" d="m53.53 230.07 41.2 26.63s-1.14 2.17-2.81 7.2l-45.46-26.24c2.68-2.2 5.37-4.97 7.07-7.58Z"/><path fill="url(#svgID5)" stroke-width="0" d="m53.53 230.07 41.2 26.63s-1.14 2.17-2.81 7.2l-45.46-26.24c2.68-2.2 5.37-4.97 7.07-7.58Z"/><circle cx="118.33" cy="30.05" r="30.05" fill="url(#svgID6)" stroke-width="0"/><circle cx="118.33" cy="30.05" r="10.04" class="cls-6"/><circle cx="31.37" cy="99.59" r="26.84" fill="url(#svgID7)" stroke-width="0"/><circle cx="31.37" cy="99.59" r="8.97" class="cls-6"/><ellipse cx="29.41" cy="213.15" fill="url(#svgID8)" stroke-width="0" rx="29.41" ry="30.05"/><ellipse cx="29.96" cy="213.15" class="cls-6" rx="10.38" ry="10.6"/><circle cx="120.72" cy="271.08" r="29.75" fill="url(#svgID9)" stroke-width="0"/><circle cx="120.72" cy="271.08" r="9.94" class="cls-6"/><ellipse cx="345.34" cy="114.34" fill="url(#svgIDa)" stroke-width="0" rx="35.95" ry="36.67"/><ellipse cx="345.34" cy="114.34" class="cls-6" rx="12.01" ry="12.25"/><ellipse cx="227.33" cy="76.33" fill="url(#svgIDb)" stroke-width="0" rx="32.06" ry="33.55"/><circle cx="227.46" cy="75.82" r="10.55" class="cls-6"/><ellipse cx="221.7" cy="246.64" fill="url(#svgIDc)" stroke-width="0" rx="33.69" ry="34.98"/><ellipse cx="221.7" cy="246.64" class="cls-6" rx="11.26" ry="11.69"/><ellipse cx="350.6" cy="236.67" fill="url(#svgIDd)" stroke-width="0" rx="35.24" ry="36.69"/><ellipse cx="350.95" cy="236.67" class="cls-6" rx="11.77" ry="12.26"/><ellipse cx="457.56" cy="258.05" fill="url(#svgIDe)" stroke-width="0" rx="29.49" ry="29.88"/><ellipse cx="457.56" cy="258.05" class="cls-6" rx="9.85" ry="9.98"/><ellipse cx="576.6" cy="248.87" fill="url(#svgIDf)" stroke-width="0" rx="29.51" ry="30.32"/><ellipse cx="576.6" cy="248.87" class="cls-6" rx="9.69" ry="10.09"/><ellipse cx="487.42" cy="154.09" fill="url(#svgIDg)" stroke-width="0" rx="29.19" ry="30.2"/><ellipse cx="487.42" cy="154.09" class="cls-6" rx="9.69" ry="10.09"/><ellipse cx="461.09" cy="42.28" fill="url(#svgIDh)" stroke-width="0" rx="29.32" ry="30.04"/><ellipse cx="461.09" cy="42.28" class="cls-6" rx="9.79" ry="10.04"/><ellipse cx="561.46" cy="51.09" fill="url(#svgIDi)" stroke-width="0" rx="29.23" ry="30.2"/><ellipse cx="561.46" cy="51.09" class="cls-6" rx="9.69" ry="10.09"/></svg>