<svg xmlns="http://www.w3.org/2000/svg" width="105" height="74.91" viewBox="0 0 105 74.91"><path fill="#874ab0" d="M102.464 32.547c-2.093 0-3.487-1.227-3.487-3.745V14.336C98.977 5.102 95.172 0 85.344 0H80.78v9.751h1.395c3.868 0 5.706 2.131 5.706 5.941V28.48c0 5.553 1.649 7.814 5.263 8.976-3.614 1.098-5.263 3.423-5.263 8.976v9.493c0 2.648 0 5.231-.697 7.879-.697 2.454-1.839 4.779-3.424 6.78-.888 1.163-1.902 2.132-3.043 3.036v1.291h4.565c9.828 0 13.632-5.102 13.632-14.336V46.108c0-2.583 1.332-3.745 3.488-3.745H105v-9.751h-2.536zM71.395 14.726H57.319a.574.574 0 01-.571-.582v-1.097c0-.323.254-.582.57-.582h14.14c.317 0 .57.259.57.582v1.098c0 .322-.316.58-.633.58m2.409 13.949H63.533a.574.574 0 01-.571-.581v-1.098c0-.323.254-.582.57-.582h10.272c.317 0 .571.259.571.582v1.098c0 .258-.254.58-.57.58m4.057-6.973H57.319a.574.574 0 01-.571-.581V20.02c0-.323.254-.581.57-.581h20.48c.318 0 .571.258.571.58v1.099c0 .258-.19.58-.507.58m-36.838-3.81c1.394 0 2.79.13 4.12.452v-2.648c0-3.745 1.903-5.94 5.707-5.94h1.395V0h-4.565c-9.828 0-13.632 5.102-13.632 14.336v4.779c2.219-.775 4.565-1.227 6.974-1.227"/><path fill="#874ab0" d="M82.174 53.017c-1.015-8.202-7.228-15.047-15.218-16.597-2.219-.452-4.438-.516-6.594-.129-.063 0-.063-.065-.127-.065C56.749 28.8 49.267 23.892 41.15 23.892s-15.534 4.779-19.085 12.205c-.063 0-.063.065-.127.065a18.9 18.9 0 00-6.847.452C7.228 38.551 1.268 45.267.19 53.404A17 17 0 000 55.858c0 2.454 1.649 4.714 4.058 5.037a4.78 4.78 0 005.516-4.843c0-.452 0-.969.064-1.42.507-4.134 3.614-7.621 7.672-8.59a9.2 9.2 0 013.74-.193c3.869.516 7.673-1.486 9.321-4.973 1.205-2.583 3.107-4.843 5.643-6.07 2.79-1.356 5.96-1.55 8.877-.517 3.044 1.098 5.326 3.423 6.721 6.329 1.459 2.841 2.156 4.843 5.263 5.23 1.268.194 4.819.13 6.15.065 2.6 0 5.2.904 7.038 2.777a9.9 9.9 0 012.473 4.714c.57 2.906-.127 5.812-1.839 8.008-1.204 1.55-2.853 2.712-4.692 3.229-.887.258-1.775.322-2.663.322H49.33c-2.79 0-5.01-2.26-5.01-5.101V40.94c0-.774-.633-1.42-1.394-1.42H40.96c-3.868.064-6.974 4.456-6.974 9.105V65.61c0 5.037 3.994 9.106 8.94 9.106l22.319-.065c5.072-.517 9.764-3.164 12.934-7.233 3.17-3.939 4.629-9.105 3.995-14.4"/></svg>