<svg xmlns="http://www.w3.org/2000/svg" width="29.76" height="31.18" viewBox="0 0 29.76 31.18"><defs><linearGradient id="svgID0" x1="-431.94" x2="-423.94" y1="-119.56" y2="-119.56" gradientTransform="matrix(-1.86 0 0 -.73 -788.24 -58.77)" gradientUnits="userSpaceOnUse"><stop offset="0"/><stop offset="1" stop-opacity="0"/></linearGradient><linearGradient id="svgID1" x1="-430.78" x2="-424.01" y1="-112.67" y2="-112.67" href="#svgID0"/><linearGradient id="svgID2" x1="-429.05" x2="-424.13" y1="-105.73" y2="-105.73" href="#svgID0"/><linearGradient id="svgID3" x1="-428.49" x2="-424.19" y1="-98.87" y2="-98.87" href="#svgID0"/><linearGradient id="svgID4" x1="-428.47" x2="-424.17" y1="-92.06" y2="-92.06" href="#svgID0"/><linearGradient id="svgID5" x1="-428.47" x2="-424.17" y1="-85.24" y2="-85.24" href="#svgID0"/></defs><g stroke-width="0"><path fill="url(#svgID0)" d="M0 28.38h13v1.17H0z"/><path fill="url(#svgID1)" d="M0 23.35h11v1.12H0z"/><path fill="url(#svgID2)" d="M0 18.3h8v1.03H0z"/><path fill="url(#svgID3)" d="M.04 13.28h7v1h-7z"/><path fill="url(#svgID4)" d="M0 8.28h7v1H0z"/><path fill="url(#svgID5)" d="M0 3.28h7v1H0z"/></g><path fill="navy" d="M29.76 29.66c-.97.5-1.97.88-3.02 1.13s-2.14.38-3.28.38c-3.4 0-6.09-.95-8.08-2.85s-2.98-4.48-2.98-7.73.99-5.84 2.98-7.75c1.99-1.9 4.68-2.85 8.08-2.85 1.14 0 2.23.13 3.28.38s2.06.63 3.02 1.13v4.22c-.98-.67-1.94-1.15-2.88-1.46a9.6 9.6 0 00-2.99-.46c-1.88 0-3.35.6-4.43 1.8s-1.61 2.86-1.61 4.98.54 3.76 1.61 4.96c1.08 1.2 2.55 1.8 4.43 1.8 1.05 0 2.05-.16 2.99-.46.95-.31 1.91-.8 2.88-1.46v4.22Z" class="cls-9"/><path fill="maroon" d="M18.46 21.15h-.41c-3.36 0-5.98-.93-7.85-2.79s-2.8-4.45-2.8-7.77.93-5.9 2.8-7.78C12.06.93 14.63-.01 17.9-.01s5.89.93 7.73 2.79 2.77 4.46 2.77 7.81c0 2.3-.49 4.27-1.47 5.93q-1.47 2.49-4.23 3.75l4.12 4.59H21.8l-3.34-3.72Zm-.57-17.34c-1.6 0-2.85.59-3.73 1.78-.88 1.18-1.33 2.85-1.33 5s.43 3.86 1.3 5.02 2.12 1.74 3.76 1.74 2.86-.59 3.75-1.78c.88-1.18 1.33-2.85 1.33-4.99s-.44-3.82-1.33-5c-.88-1.18-2.13-1.78-3.75-1.78Z" class="cls-9"/></svg>