<svg xmlns="http://www.w3.org/2000/svg" width="107.77" height="77.89" viewBox="0 0 107.77 77.89"><defs><style>.cls-1{fill:#fff}.cls-1,.cls-2{stroke-width:0px}.cls-2{fill:#353535}</style></defs><g id="svgID0"><path id="svgID1" d="M105.43 12.37H69.05c-3.4 0-6.46-1.02-8.76-2.93L48.9 0H20.94c-1.65 0-3.42 1.39-3.87 3.05L.32 73.92h7.57v3.39h84.09c.95-.56 1.75-1.44 2.03-2.46l13.65-59.42c.44-1.65-.58-3.05-2.24-3.05" class="cls-2"/><path id="svgID2" fill="#33b88f" stroke-width="0" d="M3.05 77.89C1.4 77.89 0 76.49 0 74.84V11.52c0-1.66 1.4-3.05 3.05-3.05h27.97l13.91 9.44c2.82 1.91 6.14 2.93 9.55 2.93h36.38c1.66 0 3.05 1.4 3.05 3.05v50.96c0 1.65-1.39 3.05-3.05 3.05H3.05Z"/><path id="svgID3" d="M84.69 27.74c-1.9 0-3.44 1.54-3.44 3.45s1.54 3.45 3.44 3.45 3.44-1.54 3.44-3.45-1.54-3.45-3.44-3.45" class="cls-2"/><path id="svgID4" d="M73.7 27.74c-1.9 0-3.44 1.54-3.44 3.45s1.54 3.45 3.44 3.45 3.44-1.54 3.44-3.45-1.54-3.45-3.44-3.45" class="cls-2"/><path id="svgID5" d="m8.98 56.45 12.73 12.73 12.07-12.07 12.06 12.07 12.07-12.06 12.07 12.06 12.06-12.07 11.89 11.88V56.45z" class="cls-1"/><path id="svgID6" d="M35.52 34.54c.54-1.46.84-3.04.84-4.69 0-7.6-6.16-13.76-13.75-13.76S8.86 22.25 8.86 29.85c0 1.65.31 3.23.84 4.69h25.83Z" class="cls-1"/><path id="svgID7" d="M28.24 34.54a7.3 7.3 0 001.7-4.69c0-1.14-.29-2.21-.74-3.17-.26 1.16-1.24 2.03-2.47 2.03a2.57 2.57 0 01-2.57-2.57c0-1.32 1-2.38 2.29-2.52a7.3 7.3 0 00-3.84-1.11c-4.05 0-7.34 3.29-7.34 7.34 0 1.78.64 3.42 1.7 4.69h11.28Z" class="cls-2"/></g></svg>