<svg xmlns="http://www.w3.org/2000/svg" width="349.44" height="396.79" viewBox="0 0 349.44 396.79"><path fill="#129748" d="M.07 197.97c0-28.76.13-57.51-.07-86.27-.07-9.83 3.87-16.57 12.41-21.47C62.48 61.5 112.46 32.63 162.38 3.65c8.51-4.94 16.35-4.82 24.82.09 49.78 28.89 99.63 57.67 149.56 86.32 8.66 4.97 12.71 11.8 12.68 21.85-.16 57.68-.14 115.36-.01 173.04.02 9.59-3.68 16.41-12.02 21.2-50.47 29.03-100.87 58.17-151.27 87.32-7.77 4.49-15.28 4.39-23.06-.11-50.39-29.16-100.81-58.26-151.27-87.31C3.88 301.48-.02 294.99.03 285.73c.15-29.25.06-58.51.06-87.76zm125.28-28.69c.36-.19.71-.38 1.07-.57.87 1.14 1.69 2.31 2.61 3.4 27.65 33.15 55.39 66.23 82.92 99.48 6.6 7.97 14.63 12.72 24.81 14.14 12.47 1.74 27.45-4.78 27.16-22.94-.7-43.03-.21-86.08-.25-129.12 0-2.79-.03-5.7-.76-8.36-2.66-9.7-12.04-15.91-21.51-14.57-10.32 1.47-17.51 9.63-17.53 20.27-.06 30.41-.02 60.82-.02 91.24v6.14c-1.88-2.12-2.98-3.31-4.02-4.55-27.67-33.13-55.37-66.25-82.98-99.43-4.92-5.91-10.79-10.14-18.25-12.26-20.11-5.7-32.98 3.8-32.98 24.47 0 41.88-.02 83.76.04 125.64 0 3.29.14 6.71 1.03 9.83 2.66 9.28 12.17 15.18 21.57 13.78 10.06-1.5 17.05-9.55 17.08-20.08.07-30.58.02-61.16.02-91.74v-4.78h-.01Z"/></svg>