<svg xmlns="http://www.w3.org/2000/svg" width="198.03" height="189.73" viewBox="0 0 198.03 189.73"><defs><style>.cls-1{fill:none}.cls-1,.cls-10,.cls-11,.cls-12,.cls-13,.cls-14,.cls-15,.cls-16,.cls-17,.cls-18,.cls-2,.cls-22,.cls-23,.cls-25,.cls-3,.cls-6,.cls-7,.cls-8{stroke:#1d1d1b;stroke-miterlimit:10}.cls-2{fill:#77748b}.cls-3{fill:#74625e}.cls-6{fill:#924242}.cls-7{fill:#906964}.cls-8{fill:#917774}.cls-10{fill:#6e6c78}.cls-11{fill:#6f6d92}.cls-12{fill:#a7a3bb}.cls-13{fill:#bec1e0}.cls-14{fill:#7c7f8e}.cls-15{fill:#f7c5ba}.cls-16{fill:#de7a7a}.cls-17{fill:#cfada7}.cls-18{fill:#f9d0d0}.cls-22{fill:#b98781}.cls-23{fill:#fbe3dd}.cls-25{fill:#8b87a6}</style></defs><g id="svgID0"><g id="svgID1"><path d="M1.63 80.59c.05-.35.1-.68.16-1s.06-.41.09-.6v.3c-.13.44-.2.87-.25 1.3Zm179.59 36.09a103 103 0 01-10-7.09c-4.83-3.78-9.58-7.9-13-11a27.1 27.1 0 01-7.35-7.15 25.35 25.35 0 01-4.67-17.64l3.29-.89-2.19-4.29-2.3-4.39L158.25 56a16.24 16.24 0 01-6-5c-.11-.13-.21-.27-.31-.41a16.7 16.7 0 01-2.2-4.18 6 6 0 01-.21-.59 12 12 0 01-.56-2.7c-.21-2.31.4-4.28 1.86-5.39a1.4 1.4 0 01.31-.26 4.8 4.8 0 012.43-.72h.11c0-.16.06-.31.1-.46v-.14a2 2 0 01.1-.28 4 4 0 01.37-.82c.07-.12.14-.24.22-.35s-.08-.26-.12-.39c-.87-3-.4-5.79 1.42-7.08a1.4 1.4 0 01.28-.22 4.24 4.24 0 012.18-.56h.18a3.5 3.5 0 01.55-.6 70 70 0 00-2.25-2c-.41-.38-.75-.68-1-.88L154.7 22a58 58 0 00-3.89-3c-.61-.46-1.2-.9-1.74-1.29l-.43-.31-.76-.52-.08-.05-.17-.11-.92-.59c-1.54-1.05-3.12-2-4.71-2.91-.49-.3-1-.57-1.37-.81l-.4-.22-.47-.26h-.09c-2-1.1-4.09-2.1-6.2-3L131.63 8l-.54-.23-.53-.22a95 95 0 00-9.2-3.22 94 94 0 00-10-2.32s-1.3-.22-3-.47l-1.1-.15c-1-.14-2.11-.27-3.15-.38-.53 0-1-.1-1.52-.13h-10.1L92 .57h-.2q-3.7.11-7.3.52l-.66.06-.59.07-.5.06a92 92 0 00-10.41 1.95h-.24l-1.1.34q-4.18 1.11-8.21 2.56l-.64.23-1.39.53c-.71.28-1.46.59-2.18.9s-1.42.61-2 .88c-.2.08-.39.17-.59.27L54 9.82a92 92 0 00-8.23 4.5A97 97 0 0037.5 20l-.17.14a93 93 0 00-7.08 6.05q-3.21 3-6.13 6.32c-.45.51-.7.81-.7.81a95 95 0 00-6 7.72.4.4 0 00-.07.1 88 88 0 00-5.08 8.21 2 2 0 00-.15.26 96 96 0 00-4.2 8.7l-.78 1.91c-.21.54-.42 1.11-.63 1.68q-1 2.54-1.79 5.1c-.11.36-.18.57-.18.57a92 92 0 00-2.28 9.28l60.46 11.56a46.35 46.35 0 019.71-16.1c.27-.29.42-.43.42-.43L75.62 75a23.7 23.7 0 00-6.8 9.15 19.8 19.8 0 00-1.51 8 11.6 11.6 0 00.18 2l-33.35-.39v-.09l.17-4.82L.92 86.47C.66 89.23.54 92 .54 94.85v1.08a95 95 0 00.71 10.62s0 .06 0 .09v.1a92 92 0 002.95 14.13c.17.65.37 1.34.58 2s.47 1.47.72 2.2a93 93 0 003.59 9l.05.1c.71 1.54 1.45 3.05 2.24 4.53.18.34.36.68.55 1v.08l.35.63c.35.64.67 1.2.93 1.65l.24.4a1 1 0 00.1.17c.08.15.17.29.26.44l.18.33c.13.2.31.5.53.86l.29.47.69 1.08c1.12 1.73 2.29 3.4 3.51 5.05.06.08.38.51.88 1.15.11.14.22.3.35.46.25.33.53.69.84 1.07s.61.76.92 1.13a.16.16 0 00.06.08c1.07 1.28 2.16 2.54 3.3 3.76a87 87 0 006.91 6.78l.16.16.33.29.44.38 1.2 1 .35.29.37.31c.47.39.95.77 1.43 1.15s1.2.93 1.8 1.38c.36.28.72.54 1.07.79A94 94 0 0048 176.7 94.33 94.33 0 00159 164a88 88 0 006.76-6.93 92 92 0 006.6-8.4v-.06l.11-.16a1 1 0 01.08-.12c.06-.09.13-.19.2-.31l.13-.18q1.55-2.24 2.93-4.58c.31-.51.61-1 .89-1.5s.46-.8.67-1.2c1.2-2.13 2.3-4.32 3.33-6.55a4 4 0 00.17-.38c0-.13.11-.25.17-.38.18-.4.36-.81.53-1.22l.21-.49.87-2.13c.46-1.17.89-2.38 1.26-3.44.13-.34.25-.67.35-1a5 5 0 00.2-.61c.32-.95.53-1.6.56-1.71.36-1.17.69-2.34 1-3.53a29 29 0 01-4.8-2.44Zm-22.49-49.31a14 14 0 01-1.49-1.93l-6.05 3 1.32 2.85 1.49 3.16 10-3.63a12 12 0 01-5.27-3.45Z" class="cls-1"/><path d="M186.11 119.26c-.3 1.06-.67 2.21-1.09 3.41l-33.83-10-.32.64a2 2 0 01-.11.22c-.09.18-.18.38-.3.61s-.29.59-.46.94l-.5 1.07-.31.65-2.83-1.1s0-.11.1-.2.1-.21.17-.36.2-.44.32-.74a32 32 0 001.21-3.54 42 42 0 001-4.44l22 3.61a104 104 0 0010 6.91 29 29 0 004.81 2.37Z" class="cls-2"/><path d="M158.73 67.37a14 14 0 01-1.49-1.93l-6.05 3 1.32 2.85 1.49 3.16 10-3.63a12 12 0 01-5.27-3.45Z" class="cls-3"/><path fill="#c69d97" stroke="#1d1d1b" stroke-miterlimit="10" d="M188.8 77.59a6 6 0 00-.14-.6 26 26 0 00-2.22-5.62c-.18-.34-.37-.68-.58-1s-.23-.4-.36-.6a5.3 5.3 0 01-.93 2.3 8.6 8.6 0 011 1.83c1.1 2.74.75 5.46-.75 6.2a9 9 0 01.75 1.47c1.13 2.81.73 5.62-.89 6.28s-3.87-1.1-5-3.91a8.5 8.5 0 01-.57-2.2c-1.43.27-3.08-.54-4.48-2.06a11.5 11.5 0 01-2.48-3.86 12 12 0 01-.62-2 9.44 9.44 0 01-3.33-3.21 4.63 4.63 0 01-4.25.47l-10 3.63-1.45-3.11c-1.95.71-4.22 2.38-6.32 2.5a25.35 25.35 0 004.67 17.64 27.1 27.1 0 007.35 7.15c3.44 3.06 8.19 7.18 13 11a103 103 0 0010 7.09 29 29 0 004.81 2.44h.09a10 10 0 001.45.42 4.2 4.2 0 001.78.06c7.3-1.64 8.17-5.71 8.17-5.71s1.18-8.63-8.7-36.6Zm-2 38.73s0-.1-.07-.14a2.9 2.9 0 01-.2-1.12l.42.11h.08l5 1.37c-3.44 1.71-4.72.77-5.18-.22Z"/><path d="M162.56 88.43s6 3.83 10.81 1.1m-22.56-12.26s-4.17.93 0 5.7" class="cls-1"/><path fill="#82534e" stroke="#1d1d1b" stroke-miterlimit="10" d="M182 77.36v.19a2 2 0 00-1.14.09.7.7 0 00-.16.1c-1 .52-1.5 2-1.33 3.69h-.21c-1.43.28-3.08-.52-4.49-2 1.42 1.42 3 2.11 4.45 1.74-.17-1.73.3-3.17 1.33-3.69a.7.7 0 01.16-.09 1.9 1.9 0 011.14-.1 10.85 10.85 0 00-.66-4.73c-.06-.18-.13-.35-.2-.53a14 14 0 00-1-1.87 11 11 0 00-1.18-1.59 9.6 9.6 0 011.29 1.55c.07.1.14.2.2.3a12.6 12.6 0 011 1.87c.07.18.14.35.2.53a10.9 10.9 0 01.6 4.54Z"/><path d="M180 70.13a.1.1 0 00-.05 0 11 11 0 00-1.17-1.59 9.6 9.6 0 011.22 1.59Z" class="cls-6"/><path d="M192.08 116.56c-3.49 1.69-4.77.75-5.23-.24s0-.1-.07-.14a2.9 2.9 0 01-.2-1.12l.42.11h.08Z" class="cls-7"/><path d="M173.26 51.93a2.7 2.7 0 00-.71.34 3.7 3.7 0 00-1.34 1.73 3 3 0 00-.1.3l-.12-.07.09-.24a3.67 3.67 0 011.37-1.73 2.6 2.6 0 01.81-.33Z" class="cls-8"/><path d="m164 70.82-10 3.63-1.45-3.11-1.32-2.85 6.05-3a14 14 0 001.49 1.93 12 12 0 005.23 3.4Z" class="cls-1"/><path d="M168.05 50.83c-.23-.17-.46-.32-.69-.46a6 6 0 00-.74-.37l-.24-.11a.5.5 0 01-.06-.09l.29.14a7 7 0 011.44.89Z" class="cls-2"/><path d="M161.7 57.06h-.09l-.43-.15a5 5 0 00-.51-.13h-.1a5 5 0 00-.64-.11 5 5 0 00-.64 0 3.7 3.7 0 00-2.58.92c-1.46 1.35-1.48 3.89-.28 6.48a10 10 0 00.81 1.46l-6.05 3 1.32 2.85-2.86 1.56-.15.08-2.19-4.29-2.31-4.5L158.25 56a8.7 8.7 0 003.35.86 3 3 0 00.1.2Z" class="cls-6"/><path d="M168.05 50.83c-.23-.17-.46-.32-.69-.46a6 6 0 00-.74-.37l-.24-.11a.5.5 0 01-.06-.09l.29.14a7 7 0 011.44.89Zm5.21 1.1a2.7 2.7 0 00-.71.34 3.7 3.7 0 00-1.34 1.73 3 3 0 00-.1.3l-.12-.07.09-.24a3.67 3.67 0 011.37-1.73 2.6 2.6 0 01.81-.33Z" class="cls-2"/><path fill="#c4c0d1" stroke="#1d1d1b" stroke-miterlimit="10" d="m145 64.23 2.27 4.43-2.27 1.13c-1-1.68-2-3.35-3-4.77l-.35-.53c-.59-.91-1.13-1.69-1.55-2.29l-.37-.54-.19-.27-.3-.43 13-10a16.24 16.24 0 006 5Z"/><path d="m141.71 64.49.35.53-2.76 1.78c-1-1.42-2.14-3-3.2-4.33l-.09-.11c-1.2-1.54-2.27-2.85-2.82-3.5l-.37-.45L149 43.05a12 12 0 00.56 2.7 6 6 0 00.21.59 16.7 16.7 0 002.2 4.18c.1.14.2.28.31.41l-13 10 .3.43.19.27.37.54Z" class="cls-10"/><path d="M159 25.78a3.5 3.5 0 00-.55.6h-.18a4.24 4.24 0 00-2.18.56 1.4 1.4 0 00-.28.22c-1.82 1.29-2.29 4-1.42 7.08 0 .13.07.26.12.39a2 2 0 00-.22.35 4 4 0 00-.37.82 2 2 0 00-.1.28v.14a2.4 2.4 0 00-.1.46h-.11a4.8 4.8 0 00-2.43.72 1.4 1.4 0 00-.31.26c-1.46 1.11-2.07 3.08-1.86 5.39l-16.19 15.36.37.45 2.82 3.5-2.64 1.87a37 37 0 00-3.06-3.46 87 87 0 00-3.46-3.36l-.2-.19 29.16-34.37c.24.2.58.5 1 .88.62.57 1.4 1.27 2.19 2.05Z" class="cls-11"/><path d="m147.88 16.82-27.22 39.79a53.3 53.3 0 017.45 6.44l2.21-2.29-3.67-3.54 29.16-34.37s-5.47-4.41-7.93-6.03Z" class="cls-12"/><path d="m139.76 11.87-24.54 44.74s5.1 3.68 7 5.52l2.2-2.56-3.79-3 27.22-39.79s-5.78-3.7-8.09-4.91Z" class="cls-3"/><path d="m130.56 7.51-21.12 50.27a53.4 53.4 0 017.28 4.35l1.92-3-3.42-2.55 24.54-44.74s-6.6-3.31-9.2-4.33Z" class="cls-13"/><path d="m121.31 4.28-8.44 29.56S108.94 32 106 32.42L111.34 2a56.7 56.7 0 019.97 2.28Z" class="cls-14"/><path d="M101.82.77 99.4 34.82s6.95.19 9.37 1.37l.67-3.51-3.44-.26L111.34 2s-5.93-1-9.52-1.23Z" class="cls-6"/><path d="m92 .56.78 37.62s9.77-.45 11.2.53l.45-3.51-5-.38 2.42-34A94 94 0 0092 .56Z" class="cls-15"/><path d="m82.75 1.29 4.85 40.32s8.14-1 10.58-.38v-3.15l-5.43.1L92 .56s-6.82.44-9.25.73Z" class="cls-8"/><path d="m72.35 3.22 10.73 42.14s7.44-.81 10.76 0l-.68-4.24-5.56.49-4.85-40.32a55.6 55.6 0 00-10.4 1.93Z" class="cls-16"/><path d="m62.73 6.14 11.2 28.32c-1-.18-5.75 1.88-6.46 2.54L54 9.82s5.44-2.56 8.73-3.68Z" class="cls-11"/><path d="m70.68 35.38 6.13 15.83a36.3 36.3 0 0111.44-2.31V45l-5.17.34L72.35 3.22a81 81 0 00-9.62 2.92l11.2 28.32Z" class="cls-8"/><path d="m45.7 14.33 16.18 25.61-5.76 3.78-18.79-23.63a69 69 0 018.37-5.76Z" class="cls-13"/><path d="M30.21 26.17 52.87 50.5l4-2.75 4.37-3-1.9-3.13-3.21 2.11-18.8-23.64a60.6 60.6 0 00-7.12 6.08Z" class="cls-3"/><path d="m56.86 47.75 10.4 13.15a26 26 0 017.64-5.15A37.2 37.2 0 0183.09 53l-.34-3.49-5.94 1.67-6.13-15.8L67.47 37 54 9.82l-8.3 4.51 16.18 25.61-2.55 1.67 1.9 3.13Z" class="cls-12"/><path d="M74.9 55.75 76.48 59S64 66.18 58.27 75.93L44.14 67.6s3-6.06 4.63-6.7l-3.07-2.31 3.44-3.52L23.38 33.3a86 86 0 016.83-7.13L52.87 50.5l4-2.75L67.26 60.9s4.47-3.85 7.64-5.15Z" class="cls-17"/><path d="m17.29 41.16 24.57 16.63s-.79.93-1.87 2.45c-.63.88-1.35 2-2.08 3.16l-25.71-14a80 80 0 015.09-8.24Z" class="cls-18"/><path d="m40 60.24 2.67 2.36a17.4 17.4 0 013-4l3.44-3.52L23.38 33.3l-6.09 7.86 24.57 16.63Z" class="cls-16"/><path d="m7.86 58.34 27.71 10.92a18.5 18.5 0 00-2.35 7L4.54 67.58s1.88-5.98 3.32-9.24Z" class="cls-6"/><path d="M.54 95.92h29.84a35.7 35.7 0 000 6.17l-29.12 4.45a62 62 0 01-.72-10.62Zm8.6 38.33 26.73-13s1.92 3.4 3.46 5.74l-25.45 16.24a97 97 0 01-4.74-8.98Z" class="cls-16"/><path d="m25.43 158.7 21.74-21.49a29 29 0 004.5 5.06l-19.33 23.2s-4.26-3.77-6.91-6.77Z" class="cls-15"/><path fill="#a5635e" stroke="#1d1d1b" stroke-miterlimit="10" d="m34.15 72.35 6.63 2.15a55 55 0 013.36-6.9l4.63-6.7-3.07-2.31-3 4-2.7-2.35-2.09 3.16-25.71-14-4.34 9 27.71 10.86Z"/><path d="M34.14 93.78c0 1.48 0 3.11.17 4.65l-4.07.57v-.1l.14-3H.54a65 65 0 01.36-9.43l33.39 2.35s-.16 2.13-.17 4.82Z" class="cls-6"/><path fill="#e1dfe8" stroke="#1d1d1b" stroke-miterlimit="10" d="m112.89 59.63-2 3.95a40.3 40.3 0 00-20.81-3.49A37.67 37.67 0 0070 68.55l-3.25-2.48L76.48 59l-1.58-3.25A40 40 0 0183.09 53l-.34-3.49a25 25 0 015.5-.64V45a13 13 0 015.59.34l-.68-4.24a14.2 14.2 0 015 .11v-3.13s4.08-.11 5.77.63l.45-3.51a11 11 0 014.37 1l.67-3.51 3.43 1.16 8.44-29.56a49 49 0 019.25 3.23l-21.1 50.26Z"/><path d="M90.13 60.09v3.82s-8.71-.59-17.28 8c0 0-.15.14-.42.43a46.35 46.35 0 00-9.71 16.1L2.26 76.87a56 56 0 012.29-9.28l28.67 8.65a16.7 16.7 0 01.93-3.88l6.63 2.14.11-.28s0-.11.07-.17.09-.2.13-.32.09-.2.14-.32a36 36 0 012.89-5.76l14.13 8.33.06-.09a98 98 0 016.47-7.93l.12-.13a15 15 0 011.79-1.64h.05L70 68.55l.13-.1.1-.07a60.6 60.6 0 0112.92-6.88h.06a20.9 20.9 0 016.92-1.41Z" class="cls-17"/><path fill="#595a5e" stroke="#1d1d1b" stroke-miterlimit="10" d="M75.62 75a23.7 23.7 0 00-6.8 9.15 19.8 19.8 0 00-1.51 8 11.6 11.6 0 00.18 2l-33.35-.39v-.09l.17-4.82L.92 86.47q.12-1.62.33-3.21s0-.07 0-.1c0-.24.06-.48.1-.72s.07-.53.11-.79.11-.72.16-1.06.1-.68.16-1 .06-.41.09-.6.08-.44.11-.64.09-.55.13-.77.06-.35.09-.47a2 2 0 010-.25l60.52 11.55a46.35 46.35 0 019.71-16.1c.27-.29.42-.43.42-.43Z"/><path d="M1.83 79.3V79q0 .28-.09.6c.06-.1.08-.2.09-.3Z" class="cls-1"/><path d="M1.25 83.26Q1 84.85.92 86.47c.08-1.01.18-2.12.33-3.21Zm1.01-6.39a2 2 0 000 .25zm70.17-4.56a46.35 46.35 0 00-9.71 16.1c1.73-7.58 8.02-14.41 9.71-16.1Z" class="cls-17"/><path d="m5.49 125.1 30.35-11.69s1.18 1.9 2.71 4.23c.77 1.17 1.63 2.45 2.46 3.64l-3.52 2.78-1.62-2.78-26.73 13a57.4 57.4 0 01-3.65-9.18Z" class="cls-8"/><path d="M70.92 98.68a3.8 3.8 0 00.33.86L3 115.94l-1.74-9.2v-.19l29.12-4.45-.14-3V99l4.07-.58-.17-4.65 33.35.39c-.08-.73-.14-1.4-.18-2a19.8 19.8 0 011.51-8l3.38 1.12-1.12 6.1v.53c0 .11 0 .24-.07.38l-.09.49a22 22 0 00-.23 3.05v.49c0 .17 0 .6.06.9s0 .4.07.58a6.5 6.5 0 00.1.88Z" class="cls-7"/><path d="m49.21 139.82 3.07-2.61s-2-1.47-3.92-3.22a14.4 14.4 0 01-3.21-3.78L19.08 151a97 97 0 006.35 7.68l21.74-21.49Z" class="cls-6"/><path d="m66.4 184.8 8.18-29.8a19.1 19.1 0 007 1.51l-5 30.85a101 101 0 01-10.18-2.56Zm19.6 3.97 1.24-31.19a32.6 32.6 0 008.23 0l-.65 31.59s-5.2 0-8.82-.4Z" class="cls-22"/><path d="M125.34 184.14 114 154.77a18.7 18.7 0 006.45-2.81l14.43 28.31a79 79 0 01-9.54 3.87Z" class="cls-6"/><path d="m151.19 170.52-19.85-25.12 5.63-4.53 22 23.18a64.6 64.6 0 01-7.78 6.47Z" class="cls-10"/><path d="m165.72 157.11-25.12-20.7a41 41 0 005.08-5.08l26.63 17.37a75.4 75.4 0 01-6.59 8.41Z" class="cls-6"/><path d="m177.37 140.59-28.74-14.75a50.5 50.5 0 003.71-6.38l29.23 12.59a84 84 0 01-4.2 8.54Z" class="cls-18"/><path d="m117.35 153.69-2-3.88a19.3 19.3 0 01-4 2.24 33.4 33.4 0 01-4.72 1.64l9.21 33.13s6.64-1.7 9.46-2.68L114 154.77s.21.65 3.35-1.08Z" class="cls-3"/><path d="m111.39 152.05-1.16-4a41 41 0 01-4.78 1.78 36 36 0 01-5.14 1.21l5 37.58s7.2-.88 10.59-1.78l-9.21-33.13a20.3 20.3 0 004.7-1.66Z" class="cls-3"/><path d="m105.45 149.81-.93-3.55A31.1 31.1 0 0190.78 148v9.81l4.73-.26-.65 31.59a53 53 0 0010.43-.57l-5-37.58s4.43-.94 5.16-1.18Z" class="cls-11"/><path d="m77.76 156.06 3.82-12.89a66 66 0 008.63 1.17 38.4 38.4 0 007.11-.12V148s-4.11.07-6.54.07v9.81l-3.5-.26L86 188.77s-6-.62-9.46-1.37l5-30.85a16.2 16.2 0 01-3.78-.49Z" class="cls-22"/><path d="m90.21 144.34.57-3.47s-3.37-.22-7-.88c-3.11-.56-6.45-1.44-8.12-2.78l-18.97 43.92a101 101 0 009.71 3.67l8.18-29.8a14 14 0 003.18 1l3.82-12.89s5.82 1.12 8.63 1.23Z" class="cls-2"/><path d="m83.74 140 .68-3.27s-9-1.31-12.07-4.87L48 176.71a96 96 0 008.73 4.42l18.93-43.92s5.25 2.34 8.08 2.79Z" class="cls-2"/><path d="m77.83 135.06 1.25-3.21s-5.42-2.12-8.23-5.41L39.5 171.22a74 74 0 008.5 5.49l24.39-44.86a13.6 13.6 0 005.44 3.21Z" class="cls-23"/><path d="m134.11 143.17-2.28-2.58a21.3 21.3 0 01-7.35 5.67l18.59 29.68a59.5 59.5 0 008.12-5.42l-19.85-25.12Z" class="cls-10"/><path d="m150.65 122.64-3.65-1.31s1.09-2.38 2.19-4.76c.78-1.71 1.58-3.41 2-4.23l33.81 10.3s-1.83 5.79-3.46 9.41l-29.23-12.59Z" class="cls-8"/><path d="M148.18 110.43 104.76 98.2s-1.55 3.76-7 7.68l1 3.11a27.7 27.7 0 006.86-4.67l38 29.39 2.14-2.38 26.63 17.37s3.4-5 5.06-8.11l-28.74-14.75a20 20 0 002-3.2l-3.71-1.31s1.11-2.44 2.19-4.76l-2.84-1.12a26.2 26.2 0 001.83-5.02Z" class="cls-23"/><path d="m38.55 117.64 37.93-14.84S73.65 96.6 75 91.33h-3.92s-1.21 5.63.17 8.2L3 115.94a81 81 0 002.46 9.16l30.35-11.69Z" class="cls-17"/><path d="M48.36 134 80 107.77s-2.75-3-3.49-5l-37.96 14.87 2.45 3.64-3.52 2.78 1.84 3-25.44 16.17s2.8 4.69 5.2 7.79l26.07-20.81a20 20 0 003.21 3.79Zm25.97-4.63 10.85-17.86a11.3 11.3 0 01-5.18-3.74L48.36 134l3.92 3.22-3.07 2.61 2.46 2.45-19.33 23.2s3.81 3.39 7.16 5.75l31.35-44.78Z" class="cls-23"/><path d="M149.24 72.27h-.17l-3.21.83S133.24 63.24 117 62.23l1.88-2.77 3.53 2.77 2.15-2.4 3.54 3.22 2.23-2.05 3 3.23 2.58-1.74.09.1 3.13 4 2.7-1.66 2.89 4.45 2.22-1.05Z" class="cls-7"/><path d="m127.92 144.22-32.41-33.75a41.7 41.7 0 0010.07-6.15l38 29.39-2.94 2.7 25.12 20.7a51 51 0 01-6.76 6.94l-22-23.18-2.86 2.3-2.28-2.58a15.4 15.4 0 01-3.94 3.63Z" class="cls-15"/><path fill="#c0b8dc" stroke="#1d1d1b" stroke-miterlimit="10" d="m166.62 50-.24-.11a.5.5 0 01-.06-.09l.29.14a.13.13 0 01.01.06Zm18.27 37.89c-1.52.65-3.6-1.1-4.65-3.91a8.8 8.8 0 01-.53-2.2v-.3c-.15-1.73.3-3.17 1.25-3.69a1 1 0 01.15-.09 1.74 1.74 0 011.06-.09l.26.07a5.24 5.24 0 012.57 2.46 10 10 0 01.7 1.47c1.07 2.81.7 5.62-.81 6.28Z"/><path d="M184.85 79.84a5.48 5.48 0 00-2.85-2.46l-.27-.07a10.8 10.8 0 00-.64-4.73c-.06-.18-.13-.35-.2-.53a12.7 12.7 0 00-.94-1.88.1.1 0 01.05 0 1.8 1.8 0 01.59-.39c1.24-.49 2.81.39 4 2.07a8.6 8.6 0 011 1.83c1.11 2.7.76 5.42-.74 6.16Z" class="cls-3"/><path d="M181.75 77.31a2 2 0 00-1.14.09.7.7 0 00-.16.09c-1 .52-1.51 2-1.35 3.69-1.4.36-3-.34-4.44-1.76a11.8 11.8 0 01-2.23-3.6 12 12 0 01-.62-2c-.56-2.53-.23-4.85.88-6.15a3 3 0 011.18-.87 3 3 0 011.66-.16 4.7 4.7 0 011.61.61 4 4 0 01.6.4 7.6 7.6 0 01.93.8l.12.13a11 11 0 011.21 1.59 12.7 12.7 0 01.94 1.88c.07.18.14.35.2.53a10.8 10.8 0 01.61 4.73Z" class="cls-12"/><path d="M177.5 67.39a4 4 0 00-.6-.4 7.3 7.3 0 00-3-.19 3 3 0 00-1.18.87c-1.11 1.3-1.44 3.62-.88 6.15a12 12 0 00.62 2 11.8 11.8 0 002.23 3.6 11.5 11.5 0 01-2.48-3.86 12 12 0 01-.62-2 9.44 9.44 0 01-3.33-3.21c-.18-.28-.36-.57-.52-.87a12 12 0 01-.75-1.54 11.83 11.83 0 01-.87-6 6 6 0 01.23-1.08A4.55 4.55 0 01168.6 58a3.78 3.78 0 012.89.11l.1.05c.13 0 .26.12.4.19a10.35 10.35 0 014.22 4.72c0 .09.09.17.13.26s.2.44.29.66a12 12 0 01.62 2 10 10 0 01.25 1.4Z" class="cls-25"/><path d="M185.6 69a4 4 0 01-.06.49 5.3 5.3 0 01-.93 2.3c-1.19-1.68-2.76-2.56-4-2.07a1.8 1.8 0 00-.59.39 9.6 9.6 0 00-1.22-1.55l-.12-.13a7.7 7.7 0 00-1.18-1.06 10 10 0 00-.25-1.38 12 12 0 00-.62-2c-.09-.22-.19-.44-.29-.66s-.08-.17-.13-.26c0-2.53.84-4.53 2.42-5A2.7 2.7 0 01180 58a4.1 4.1 0 011.76.84c.18.14.36.29.53.45a.1.1 0 01.05 0 11.4 11.4 0 012.78 4.76 11.5 11.5 0 01.48 4.95Z" class="cls-25"/><path fill="#929ac9" stroke="#1d1d1b" stroke-miterlimit="10" d="M180 58a2.3 2.3 0 00-1.32 0c-1.58.5-2.45 2.5-2.42 5a10.35 10.35 0 00-4.26-4.61c-.14-.07-.27-.14-.4-.19l-.1-.05a24 24 0 01-.28-4.12 3.7 3.7 0 011.34-1.76 2.7 2.7 0 01.71-.34c1.38-.37 3.06.2 4.7 1.48a7.5 7.5 0 011.21 1c.16.18.31.37.46.56a12.3 12.3 0 012.05 3.95A4.1 4.1 0 00180 58Z"/><path d="M168.23 70.34a4.63 4.63 0 01-4.25.47 12 12 0 01-5.25-3.45 14 14 0 01-1.49-1.93 10 10 0 01-.81-1.46c-1.2-2.59-1.18-5.13.28-6.48a3.7 3.7 0 012.58-.92 5 5 0 01.64 0 5 5 0 01.64.11h.1a5 5 0 01.51.13l.43.15h.09c.26.1.53.21.8.34a3 3 0 01.29.14 7 7 0 01.64.35c.19.11.38.24.58.37l.07.05.69.51a14 14 0 011.62 1.5l.08.09a4 4 0 00-.15.45 6 6 0 00-.23 1.08 11.83 11.83 0 00.87 6 12 12 0 00.75 1.54c.16.39.34.68.52.96Z" class="cls-11"/><path d="M171.49 58.15a3.78 3.78 0 00-2.89-.15 3.94 3.94 0 00-2.13 2.37l-.08-.09a14 14 0 00-1.62-1.5l-.69-.51-.07-.05c-.2-.13-.39-.26-.58-.37a7 7 0 00-.64-.35 3 3 0 00-.29-.14c-.27-.13-.54-.24-.8-.34a3 3 0 01-.1-.25 9 9 0 01-.64-2.48.2.2 0 000-.07 4.67 4.67 0 011.17-4l.16-.12.25-.19a3.3 3.3 0 01.46-.24 1 1 0 01.25-.11 3.7 3.7 0 011.76-.12 5 5 0 011.26.36.5.5 0 00.06.09l.24.11a6 6 0 01.74.37c.23.14.46.29.69.46l.08.06.35.29a12.5 12.5 0 011.74 2.43l.18.35a6 6 0 00.09 1.32 9.7 9.7 0 001.05 2.87Z" class="cls-2"/><path d="M178.69 50.83a15 15 0 01-.42 1.52 4 4 0 01-.17.4s-3.49-1.78-4.88-1.34a2.6 2.6 0 00-.81.36 3.67 3.67 0 00-1.41 1.74c0 .08-.06.15-.09.24a3.2 3.2 0 01-.64-.63c-.38-.7-1.51-2.51-2.22-2.74-.28-.2-.55-.42-.84-.59a8 8 0 00-.68-.36 14.9 14.9 0 00-2-5.61 5 5 0 00-.25-.43c.05-.32.45-2.18.65-2.74a4 4 0 011.59-2 3.7 3.7 0 011.62-.55 1.6 1.6 0 01.38 0h.05a4 4 0 01.77.05 5.6 5.6 0 011.28.29 10.9 10.9 0 014.15 2.79 14.5 14.5 0 011.77 2.21 12 12 0 01.71 1.22 11 11 0 011.44 6.17Z" class="cls-14"/><path d="m166.2 49.71-.29-.14a5 5 0 00-1.26-.36 3.7 3.7 0 00-1.76.12 1 1 0 00-.25.11 3.3 3.3 0 00-.46.24l-.25.19-.16.12a4.67 4.67 0 00-1.17 4 .2.2 0 010 .07 9 9 0 00.64 2.48 8.7 8.7 0 01-3.35-.86 16.24 16.24 0 01-6-5c-.11-.13-.21-.27-.31-.41a16.7 16.7 0 01-2.2-4.18 6 6 0 01-.21-.59 12 12 0 01-.56-2.7c-.21-2.31.4-4.28 1.86-5.39a1.4 1.4 0 01.31-.26 4.8 4.8 0 012.43-.72h.11a4 4 0 01.51 0 7.5 7.5 0 011.21.16 13.2 13.2 0 016 3.49 19.3 19.3 0 012.27 2.62 14 14 0 00.88 1.37 14.9 14.9 0 012.01 5.64Z" class="cls-2"/><path fill="#504a48" stroke="#1d1d1b" stroke-miterlimit="10" d="M170.19 37.29a1 1 0 00-.13-.16L170 37l-.09-.1-.22-.26a42 42 0 00-2.44-4.75 16 16 0 00-2-2.38 11.4 11.4 0 00-6.61-3.43H158a4.6 4.6 0 00-2.29.56 1.4 1.4 0 00-.3.22c-1.92 1.29-2.41 4-1.49 7.08 0 .13.07.26.12.39a1 1 0 000 .14 14 14 0 00.9 2.09 14.13 14.13 0 016.38 3.44 19.4 19.4 0 012.39 2.62c.23.31.46.62.67.94a2.9 2.9 0 01.3-.91 6 6 0 01.38-1.83 4 4 0 011.4-1.82 1.1 1.1 0 01.28-.2 4 4 0 011.7-.55 1.8 1.8 0 01.4 0h.06a8.3 8.3 0 012.29.33c-.31-.45-.65-.87-1-1.29Z"/><path d="m82 109.79 2.39-2.71s3.17 4 11.09 3.39l32.41 33.75a12.7 12.7 0 01-3.44 2l18.59 29.68s-5.26 3-8.15 4.33L120.49 152l-2.92 1.63-2.2-3.78-4 2.24-1.16-4-4.78 1.78-.93-3.55a30 30 0 01-7.2 1.7v-3.74s-5.48.24-7.11.12l.57-3.47s-6.49-.78-7-.88l.68-3.27s-5.26-1.18-6.59-1.66l1.25-3.21a26 26 0 01-4.75-2.48l10.85-17.86a22 22 0 01-3.2-1.78l2.39-2.71" class="cls-6"/></g></g></svg>