<svg xmlns="http://www.w3.org/2000/svg" width="1024" height="1024" viewBox="0 0 1024 1024"><defs><linearGradient id="svgID0"><stop offset="0"/><stop offset="1" stop-opacity="0"/></linearGradient><linearGradient id="svgID1"><stop offset="0" stop-color="#565656"/><stop offset="1" stop-color="#a4a4a4"/></linearGradient><linearGradient id="svgID2"><stop offset="0" stop-color="#f5f500"/><stop offset="1" stop-color="#616100"/></linearGradient><linearGradient id="svgID3" x1="788.68" x2="906.34" y1="711.47" y2="904.5" gradientUnits="userSpaceOnUse" href="#svgID2"/><linearGradient id="svgID4" x1="748.24" x2="836.48" y1="318.05" y2="468.8" gradientUnits="userSpaceOnUse" href="#svgID2"/><linearGradient id="svgID5" x1="303.34" x2="408.13" y1="29.415" y2="205.9" gradientUnits="userSpaceOnUse" href="#svgID2"/><linearGradient id="svgID6" x1="152.59" x2="250.03" y1="711.47" y2="867.73" gradientUnits="userSpaceOnUse" href="#svgID2"/><linearGradient id="svgID7" x1="462.79" x2="616.18" y1="407.82" y2="636.61" gradientUnits="userSpaceOnUse"><stop offset="0" stop-color="#fff"/><stop offset="1" stop-color="#738494"/></linearGradient><linearGradient id="svgID8" x1="442" x2="485.13" y1="343.76" y2="323.07" gradientUnits="userSpaceOnUse" href="#svgID1"/><linearGradient id="svgID9" x1="703.83" x2="737.58" y1="706.73" y2="673.51" gradientUnits="userSpaceOnUse" href="#svgID1"/><linearGradient id="svgIDa" x1="743.83" x2="722.4" y1="467.8" y2="432.99" gradientUnits="userSpaceOnUse" href="#svgID1"/><linearGradient id="svgIDb" x1="379.6" x2="350.11" y1="720.45" y2="682.67" gradientUnits="userSpaceOnUse" href="#svgID1"/><linearGradient id="svgIDc" x1="526.9" x2="541.01" y1="-5.489" y2="1010.7" gradientUnits="userSpaceOnUse"><stop offset="0" stop-color="#a1a1a1"/><stop offset="1" stop-color="#2e2e44"/></linearGradient><linearGradient id="svgIDd" x1="505.71" x2="517.49" y1="6.857" y2="914.23" gradientUnits="userSpaceOnUse"><stop offset="0" stop-color="#9d9d9e"/><stop offset="1" stop-color="#3a566f"/></linearGradient><linearGradient id="svgIDe" x1="285.36" x2="357.96" y1="484.94" y2="484.43" gradientTransform="translate(-12.581 5.939)" gradientUnits="userSpaceOnUse" href="#svgID0" spreadMethod="reflect"/><linearGradient id="svgIDf" x1="285.36" x2="357.96" y1="484.94" y2="484.43" gradientTransform="translate(503.12 -337.78)" gradientUnits="userSpaceOnUse" href="#svgID0" spreadMethod="reflect"/><linearGradient id="svgIDg" x1="281.49" x2="351.88" y1="484.28" y2="483.7" gradientTransform="translate(-297.63 522.91)" gradientUnits="userSpaceOnUse" href="#svgID0" spreadMethod="reflect"/><radialGradient id="svgIDh" cx="561.46" cy="551.17" r="222.41" gradientTransform="translate(-24.429 -15.908)scale(1.0506)" gradientUnits="userSpaceOnUse" href="#svgID0"/><radialGradient id="svgIDi" cx="561.46" cy="551.17" r="222.41" gradientTransform="matrix(.76014 0 0 .81075 428.14 388.74)" gradientUnits="userSpaceOnUse" href="#svgID0"/><radialGradient id="svgIDj" cx="561.46" cy="551.17" r="222.41" gradientTransform="translate(-69.457 -279.32)scale(.78866)" gradientUnits="userSpaceOnUse" href="#svgID0"/><radialGradient id="svgIDk" cx="561.46" cy="551.17" r="222.41" gradientTransform="translate(358.64 -12.033)scale(.7896)" gradientUnits="userSpaceOnUse" href="#svgID0"/><radialGradient id="svgIDl" cx="561.46" cy="551.17" r="222.41" gradientTransform="translate(-250.72 359.66)scale(.84601)" gradientUnits="userSpaceOnUse" href="#svgID0"/></defs><rect width="938.2" height="875.8" x="46.799" y="51.998" fill="#515151" ry="189.36"/><rect width="794.66" height="661.26" x="115.07" y="187.5" fill="#2c2c2c" ry="77.108"/><circle cx="801.97" cy="423.17" r="175.62" fill="url(#svgIDk)"/><path fill="url(#svgIDf)" d="M716.39 27.277h144.8v228.28h-144.8z" transform="rotate(52.094)"/><circle cx="224.28" cy="825.96" r="188.16" fill="url(#svgIDl)"/><circle cx="221.43" cy="814" r="130" fill="url(#svgID6)"/><path fill="url(#svgIDc)" d="M189.36 0C84.46 0 0 84.453 0 189.36v645.29c0 104.9 84.453 189.36 189.36 189.36h645.29c104.9 0 189.36-84.453 189.36-189.36V189.36C1024.01 84.46 939.557 0 834.65 0zm23.898 91.922h595.65c65.183 0 117.66 52.475 117.66 117.66v507.4c0 65.183-52.477 117.66-117.66 117.66h-595.65c-65.183 0-117.66-52.475-117.66-117.66v-507.4c0-65.183 52.475-117.66 117.66-117.66"/><path fill="url(#svgIDd)" d="M189.36 0C84.46 0 0 84.454 0 189.36v547.86c0 104.9 84.454 189.36 189.36 189.36h645.29c104.9 0 189.36-84.453 189.36-189.36V189.36C1024.01 84.46 939.557 0 834.65 0zm23.898 91.922h595.65c65.183 0 117.66 52.475 117.66 117.66v507.4c0 65.183-52.477 117.66-117.66 117.66h-595.65c-65.183 0-117.66-52.475-117.66-117.66v-507.4c0-65.183 52.475-117.66 117.66-117.66"/><circle cx="799.9" cy="412.67" r="111.53" fill="url(#svgID4)"/><path fill="url(#svgIDb)" d="M411.81 620.47 278.98 725.26c-8.154 20.25 22.807 64.462 45.96 56.531l136.5-108.93z"/><path fill="url(#svgIDa)" d="m678.38 450.41 56.991-38.607c27.115 1.206 46.63 22.522 36.768 55.153l-59.749 40.905z"/><circle cx="565.46" cy="563.17" r="233.67" fill="url(#svgIDh)"/><path fill="url(#svgIDe)" d="M200.7 371h144.8v228.28H200.7z" transform="rotate(-24.431)"/><path fill="url(#svgIDg)" d="M-86.574 927.84h139.14v168.99h-139.14z" transform="rotate(-46.596)"/><circle cx="561.46" cy="551.17" r="175.75" fill="url(#svgID7)"/><path fill="url(#svgID8)" d="m384.23 253.24 81.81 174.65c19.652 6.737 61-11.123 59.289-31.253l-91.461-201.77z"/><path fill="url(#svgID9)" d="M801.55 721.58 686.19 614.95c-22.361-6.443-58.931 17.479-50.557 47.799l113.06 106.17z"/><ellipse cx="854.93" cy="835.61" fill="url(#svgIDi)" rx="169.07" ry="180.32"/><circle cx="373.34" cy="155.37" r="175.41" fill="url(#svgIDj)"/><circle cx="371.43" cy="141.14" r="134.29" fill="url(#svgID5)"/><circle cx="863.47" cy="825.43" r="137.75" fill="url(#svgID3)"/></svg>