<svg xmlns="http://www.w3.org/2000/svg" width="432.66" height="264.87" viewBox="41.18 26.09 432.66 264.87"><path d="M73.4 27.5C49 31.9 40 45.5 41.3 76.4c.7 18.4 4.1 27.2 14 36.3 6.7 6.2 13.5 9.2 41.4 18.2 21.9 7.1 25.7 8.6 28.6 11.5 7.7 7.6 7.7 26.9.1 33.5-5.5 4.9-10.9 5.5-47.5 4.8l-32.7-.6-.6 6.7c-.4 3.7-.9 9-1.2 11.8l-.6 5 11.4 1.7c27.3 4.1 60.9 4.7 76.3 1.4 23.7-5.2 32.5-18 32.5-47.3 0-23.1-7.3-37.5-23.6-46.1-3.2-1.7-16.2-6.4-28.9-10.3-27.7-8.7-32.1-10.8-35.3-17-2-3.9-2.3-5.7-2-13.7.3-10.5 1.8-13.5 8.4-16.8 3.7-1.9 5.7-2 38.6-1.9l34.6.2.7-6.2c.3-3.3.8-8.4 1.1-11.2l.6-5.1-8.4-1.6c-4.5-.9-12.6-2.1-17.8-2.7-13.4-1.4-49-1.1-57.6.5m308.6-.4c-7.5.9-23.2 3.8-23.8 4.4-.2.2-.1 5.3.3 11.3l.7 11 35.2-.2c33.3-.1 35.3 0 39.1 1.9 6.2 3.1 8 7.3 8 18-.1 9.9-1.3 13.5-6.3 17.7-3.5 2.9-8.7 4.9-33.2 12.4-21.1 6.5-30.2 10.7-36.9 16.9-9.7 9.1-13.5 20.2-13.4 39.5 0 24.1 6 36.6 20.7 43.1 15.5 6.8 52.5 7.7 87.9 2.2l10.7-1.7-.1-5c-.1-2.8-.4-8-.8-11.6l-.6-6.5h-73l-4.4-2.5c-6.4-3.6-8.1-7.5-8.1-18.2 0-9.4.9-13 4.3-16.6 3.5-3.7 7.7-5.5 30.7-12.7 25-7.9 30.5-10.1 37.7-15.5 13.2-10 19.2-29 16.5-52.2-1.5-12.4-4.7-20.2-10.9-25.8-9.3-8.6-20.8-11.1-51.7-10.9-11.6.1-24.5.5-28.6 1M190.3 92.2c.4 72.5.4 72.8 7.2 87.6 6.1 13.1 17.4 21.7 34.1 25.9 5.4 1.3 11.3 1.7 26.9 1.8 17.9 0 20.8-.3 28-2.3 4.4-1.3 10.1-3.5 12.7-4.9 10.8-5.9 19.8-19.4 23.4-35.3 1.5-6.6 1.8-15.6 2.1-72.8l.4-65.2H293v57.3c0 33.6-.4 60.7-1 65.5-2.1 16.1-7.6 25.2-17.6 28.6-11 3.8-29.6 2.9-37.9-1.7-5-2.8-10-9.3-12.2-16-1.5-4.7-1.8-12-2.3-69.2l-.5-64-15.8-.3-15.8-.3zm233 145.4c-.3.8-.3 5.1.1 9.5.3 4.3.5 7.9.2 7.9-.2 0-2.3-.7-4.6-1.5s-6.6-1.5-9.5-1.5c-9.7 0-13.5 5.5-13.5 19.5 0 13.3 3.2 18.4 11.7 19.2 3.9.4 5.8-.1 10.5-2.5 5.6-3 5.7-3 6-.9.2 1.2 1.1 2.3 2.1 2.5 1.6.3 1.7-1.5 1.7-26.7 0-26.6 0-27.1-2-27.1-1.1 0-2.3.7-2.7 1.6m-5.4 19.6 5.1 1.1v23.6l-5.6 2.7c-4.7 2.3-6.1 2.6-9.2 1.8-5.6-1.4-7.4-5.6-7-16.7.3-8.3.5-9 3.1-11.3 3.1-2.7 6.1-3 13.6-1.2m-94.9-3.4c-5.2 2.5-7.2 7.5-7.2 17.6 0 9.3 1.7 14.4 5.8 17.1 3.2 2.1 10.7 2.9 17.8 2.1 4.6-.6 5.6-1.1 5.6-2.6 0-1.7-.6-1.9-6.2-1.3-8.5.7-14.3-.9-16.3-4.7-2-3.9-2-17.1 0-21 1.9-3.6 6.6-5.2 14.7-4.9 5 .2 6.4 0 6.6-1.3.4-2-2.6-2.8-10.8-2.8-4.2 0-7.7.6-10 1.8m38-.7c-6.6 2.7-9.7 10.1-8.7 21.5.9 12.2 6.2 16.8 18.2 16.1 12.3-.7 15.5-4.7 15.5-19.4 0-10.5-1.8-14.9-7-17.5-3.9-2-13.8-2.3-18-.7m14.4 3.9c1.4.5 3.2 2.3 4.1 3.9 2 4 2 17.1 0 21.1-2.9 5.6-14.8 6.7-19.1 1.6-3.9-4.4-4.3-17.8-.7-23.4.8-1.3 2.4-2.7 3.6-3.2 3-1.2 9-1.2 12.1 0m71.6-3.2c-5.2 2.6-7 7-7 17.5 0 11.2 2 15.7 8 18.1 6.7 2.7 22.2 1.7 22.8-1.5.2-1.4-1.1-1.6-9.7-1.5-9.5.1-10.2 0-12.6-2.5-1.4-1.4-2.8-4.2-3.2-6.2l-.6-3.7h10.6c9.5 0 10.8-.2 13.2-2.3 5.5-4.7 3.8-15.4-2.9-18.2-4.9-2.1-14.3-1.9-18.6.3m18.2 5.2c2.2 2.7 2.3 7.3.2 9.4-1.2 1.2-3.7 1.6-11 1.6H445v-3.3c0-7.5 4.4-11 12.9-10.4 4.1.3 5.9.9 7.3 2.7"/></svg>