<svg xmlns="http://www.w3.org/2000/svg" width="32" height="32" viewBox="0 0 32 32"><path fill="#0065a9" d="m29.01 5.03-5.766-2.776a1.74 1.74 0 00-1.989.338L2.38 19.8a1.166 1.166 0 00-.08 1.647q.037.04.077.077l1.541 1.4a1.165 1.165 0 001.489.066L28.142 5.75A1.158 1.158 0 0130 6.672v-.067a1.75 1.75 0 00-.99-1.575"/><path fill="#007acc" d="m29.01 26.97-5.766 2.777a1.745 1.745 0 01-1.989-.338L2.38 12.2a1.166 1.166 0 01-.08-1.647q.037-.04.077-.077l1.541-1.4A1.165 1.165 0 015.41 9.01l22.732 17.24A1.158 1.158 0 0030 25.328v.072a1.75 1.75 0 01-.99 1.57"/><path fill="#1f9cf0" d="M23.244 29.747a1.745 1.745 0 01-1.989-.338A1.025 1.025 0 0023 28.684V3.316a1.024 1.024 0 00-1.749-.724 1.74 1.74 0 011.989-.339l5.765 2.772A1.75 1.75 0 0130 6.6v18.8a1.75 1.75 0 01-.991 1.576Z"/></svg>