<?xml version="1.0" encoding="UTF-8"?>
<svg id="Layer_1" data-name="Layer 1" xmlns="http://www.w3.org/2000/svg" xmlns:xlink="http://www.w3.org/1999/xlink" viewBox="0 0 606.11 300.83">
  <defs>
    <style>
      .cls-1 {
        fill: url(#radial-gradient-16);
      }

      .cls-1, .cls-2, .cls-3, .cls-4, .cls-5, .cls-6, .cls-7, .cls-8, .cls-9, .cls-10, .cls-11, .cls-12, .cls-13, .cls-14, .cls-15, .cls-16, .cls-17, .cls-18, .cls-19, .cls-20, .cls-21, .cls-22, .cls-23, .cls-24, .cls-25, .cls-26 {
        stroke-width: 0px;
      }

      .cls-2 {
        fill: url(#linear-gradient);
      }

      .cls-27 {
        stroke: url(#linear-gradient-6);
      }

      .cls-27, .cls-28, .cls-7, .cls-29, .cls-30, .cls-31 {
        fill: none;
      }

      .cls-27, .cls-29, .cls-30, .cls-31 {
        stroke-miterlimit: 10;
      }

      .cls-28 {
        stroke: url(#linear-gradient-10);
        stroke-linejoin: round;
      }

      .cls-28, .cls-31 {
        stroke-linecap: round;
      }

      .cls-3 {
        fill: url(#radial-gradient-8);
      }

      .cls-4 {
        fill: url(#radial-gradient-13);
      }

      .cls-5 {
        fill: url(#radial-gradient-12);
      }

      .cls-6 {
        fill: #cd6362;
        isolation: isolate;
      }

      .cls-29 {
        stroke: url(#linear-gradient-7);
      }

      .cls-8 {
        fill: url(#radial-gradient-19);
      }

      .cls-30 {
        stroke: url(#linear-gradient-5);
      }

      .cls-9 {
        fill: url(#linear-gradient-2);
      }

      .cls-10 {
        fill: url(#radial-gradient-17);
      }

      .cls-11 {
        fill: url(#radial-gradient-2);
      }

      .cls-12 {
        fill: url(#radial-gradient-7);
      }

      .cls-13 {
        fill: url(#linear-gradient-3);
      }

      .cls-31 {
        stroke: url(#linear-gradient-9);
      }

      .cls-14 {
        fill: url(#radial-gradient-5);
      }

      .cls-15 {
        fill: url(#radial-gradient);
      }

      .cls-16 {
        fill: url(#radial-gradient-14);
      }

      .cls-17 {
        fill: url(#linear-gradient-8);
      }

      .cls-18 {
        fill: url(#radial-gradient-18);
      }

      .cls-19 {
        fill: url(#radial-gradient-10);
      }

      .cls-20 {
        fill: url(#radial-gradient-6);
      }

      .cls-21 {
        fill: url(#radial-gradient-15);
      }

      .cls-22 {
        fill: url(#radial-gradient-9);
      }

      .cls-23 {
        fill: url(#radial-gradient-3);
      }

      .cls-24 {
        fill: url(#radial-gradient-11);
      }

      .cls-25 {
        fill: url(#linear-gradient-4);
      }

      .cls-26 {
        fill: url(#radial-gradient-4);
      }
    </style>
    <linearGradient id="linear-gradient" x1="-113.88" y1="475.81" x2="-32.92" y2="414.68" gradientTransform="translate(-45.19 -177.49) rotate(-48.25) scale(.98 .95)" gradientUnits="userSpaceOnUse">
      <stop offset="0" stop-color="#cd6362"/>
      <stop offset=".83" stop-color="#925151"/>
      <stop offset="1" stop-color="#864e4e"/>
    </linearGradient>
    <linearGradient id="linear-gradient-2" x1="61.9" y1="476.26" x2="107.94" y2="428.33" gradientTransform="translate(476.38 -133.9) rotate(52.05) scale(.74 .64)" gradientUnits="userSpaceOnUse">
      <stop offset="0" stop-color="#915151"/>
      <stop offset=".64" stop-color="#b55a5b"/>
      <stop offset="1" stop-color="#c45f60"/>
    </linearGradient>
    <linearGradient id="linear-gradient-3" x1="270.16" y1="459.81" x2="317.73" y2="423.01" gradientTransform="translate(-4.9 227.3) rotate(-61.08) scale(.74 .64)" gradientUnits="userSpaceOnUse">
      <stop offset="0" stop-color="#cd6362"/>
      <stop offset="1" stop-color="#cd6362"/>
    </linearGradient>
    <radialGradient id="radial-gradient" cx="34.3" cy="322.8" fx="43.12" fy="322.8" r="41.69" gradientTransform="translate(328.68 25.29) rotate(20.19) scale(.74 .67) skewX(2.16)" gradientUnits="userSpaceOnUse">
      <stop offset=".08" stop-color="#824c4c"/>
      <stop offset="1" stop-color="#cd6362"/>
    </radialGradient>
    <linearGradient id="linear-gradient-4" x1="260.5" y1="-90.91" x2="319.82" y2="-128.62" gradientTransform="translate(320.11 367.24) rotate(-29.5) scale(.74 .64)" gradientUnits="userSpaceOnUse">
      <stop offset="0" stop-color="#834c4c"/>
      <stop offset=".79" stop-color="#cc6161"/>
    </linearGradient>
    <radialGradient id="radial-gradient-2" cx="773.11" cy="-212.85" fx="822.88" fy="-229.66" r="52.53" gradientTransform="translate(801.98 719.63) rotate(-103.65) scale(.74 .64)" gradientUnits="userSpaceOnUse">
      <stop offset=".15" stop-color="#894e4e"/>
      <stop offset=".64" stop-color="#cd6362"/>
    </radialGradient>
    <radialGradient id="radial-gradient-3" cx="1158.62" cy="257.83" fx="1141.3" fy="268.48" r="54.73" gradientTransform="translate(1369.01 -86.92) rotate(157.79) scale(.74 .56)" gradientUnits="userSpaceOnUse">
      <stop offset="0" stop-color="#824c4c"/>
      <stop offset=".38" stop-color="#a15555"/>
      <stop offset=".85" stop-color="#cd6362"/>
    </radialGradient>
    <radialGradient id="radial-gradient-4" cx="73.02" cy="64.53" fx="73.02" fy="64.53" r="22.92" gradientUnits="userSpaceOnUse">
      <stop offset="0" stop-color="#834c4c"/>
      <stop offset="1" stop-color="#cc6161"/>
    </radialGradient>
    <linearGradient id="linear-gradient-5" x1="47.49" y1="61.31" x2="92.25" y2="61.31" gradientUnits="userSpaceOnUse">
      <stop offset="0" stop-color="#cc6161"/>
      <stop offset="1" stop-color="#9b5353"/>
    </linearGradient>
    <linearGradient id="linear-gradient-6" x1="53.53" y1="68.49" x2="98.29" y2="68.49" gradientUnits="userSpaceOnUse">
      <stop offset="0" stop-color="#cc6161"/>
      <stop offset="1" stop-color="#8b4f4f"/>
    </linearGradient>
    <radialGradient id="radial-gradient-5" cx="-335.66" cy="-49.33" fx="-335.66" fy="-49.33" r="23.52" gradientTransform="translate(-219.78 385.01) rotate(128.98)" gradientUnits="userSpaceOnUse">
      <stop offset=".47" stop-color="#cd6362"/>
      <stop offset="1" stop-color="#864e4e"/>
    </radialGradient>
    <linearGradient id="linear-gradient-7" x1="23.69" y1="154.68" x2="26.54" y2="154.68" gradientUnits="userSpaceOnUse">
      <stop offset="0" stop-color="#8a4f4f"/>
      <stop offset="1" stop-color="#bd5d5d"/>
    </linearGradient>
    <linearGradient id="linear-gradient-8" x1="46.46" y1="246.98" x2="92.58" y2="246.98" gradientUnits="userSpaceOnUse">
      <stop offset="0" stop-color="#cd6362"/>
      <stop offset=".27" stop-color="#b85c5c"/>
      <stop offset=".82" stop-color="#854d4d"/>
      <stop offset=".86" stop-color="#814c4c"/>
    </linearGradient>
    <radialGradient id="radial-gradient-6" cx="73.68" cy="247.12" fx="100.43" fy="247.12" r="29.64" gradientUnits="userSpaceOnUse">
      <stop offset=".27" stop-color="#814c4c"/>
      <stop offset=".45" stop-color="#955251"/>
      <stop offset=".81" stop-color="#c86160"/>
      <stop offset=".84" stop-color="#cd6362"/>
    </radialGradient>
    <linearGradient id="linear-gradient-9" x1="53.24" y1="243.3" x2="95.23" y2="243.3" gradientUnits="userSpaceOnUse">
      <stop offset="0" stop-color="#cd6362"/>
      <stop offset="1" stop-color="#cd6362"/>
    </linearGradient>
    <linearGradient id="linear-gradient-10" x1="46.28" y1="250.5" x2="92.41" y2="250.5" gradientTransform="matrix(1,0,0,1,0,0)" xlink:href="#linear-gradient-3"/>
    <radialGradient id="radial-gradient-7" cx="118.33" cy="30.05" fx="118.33" fy="30.05" r="30.05" gradientUnits="userSpaceOnUse">
      <stop offset=".34" stop-color="#cc6262"/>
      <stop offset="1" stop-color="#8b4f4f"/>
    </radialGradient>
    <radialGradient id="radial-gradient-8" cx="31.37" cy="99.59" fx="31.37" fy="99.59" r="26.84" xlink:href="#radial-gradient-7"/>
    <radialGradient id="radial-gradient-9" cx="35.99" cy="213.15" fx="35.99" fy="213.15" r="30.05" gradientTransform="translate(-5.81) scale(.98 1)" xlink:href="#radial-gradient-7"/>
    <radialGradient id="radial-gradient-10" cx="120.72" cy="271.08" fx="120.72" fy="271.08" r="29.75" xlink:href="#radial-gradient-7"/>
    <radialGradient id="radial-gradient-11" cx="345.74" cy="114.51" fx="345.74" fy="114.51" r="36.49" gradientTransform="translate(4.65 -.73) scale(.99 1)" xlink:href="#radial-gradient-7"/>
    <radialGradient id="radial-gradient-12" cx="231.23" cy="74.28" fx="231.23" fy="74.28" r="33.04" gradientTransform="translate(2.98 .9) scale(.97 1.02)" xlink:href="#radial-gradient-7"/>
    <radialGradient id="radial-gradient-13" cx="224.26" cy="246.76" fx="224.26" fy="246.76" r="34.75" gradientTransform="translate(4.28 -1.72) scale(.97 1.01)" xlink:href="#radial-gradient-7"/>
    <radialGradient id="radial-gradient-14" cx="350.93" cy="238.2" fx="350.93" fy="238.2" r="35.78" gradientTransform="translate(5.01 -7.6) scale(.98 1.03)" xlink:href="#radial-gradient-7"/>
    <radialGradient id="radial-gradient-15" cx="462.21" cy="257.43" fx="462.21" fy="257.43" r="29.45" gradientTransform="translate(-5.2 -3.09) scale(1 1.01)" xlink:href="#radial-gradient-7"/>
    <radialGradient id="radial-gradient-16" cx="583.8" cy="250.65" fx="583.8" fy="250.65" r="29.45" gradientTransform="translate(-8.27 -9.18) scale(1 1.03)" xlink:href="#radial-gradient-7"/>
    <radialGradient id="radial-gradient-17" cx="491.31" cy="157.67" fx="491.31" fy="157.67" r="29.45" gradientTransform="translate(.5 -7.59) scale(.99 1.03)" xlink:href="#radial-gradient-7"/>
    <radialGradient id="radial-gradient-18" cx="465.31" cy="48.87" fx="465.31" fy="48.87" r="29.45" gradientTransform="translate(-2.05 -7.57) scale(1 1.02)" xlink:href="#radial-gradient-7"/>
    <radialGradient id="radial-gradient-19" cx="566.47" cy="57.23" fx="566.47" fy="57.23" r="29.45" gradientTransform="translate(-.75 -7.6) scale(.99 1.03)" xlink:href="#radial-gradient-7"/>
  </defs>
  <path class="cls-2" d="M231.17,109.65l-6.04,102.2s-7.95.33-9.19.33l4.83-102.99c3.88.55,5.7.56,10.39.46Z"/>
  <path class="cls-9" d="M310.12,106.95l-51.91-22.33s.66-3.43.9-6.26l54.15,19.4c-1.77,4.61-2.4,5.73-3.15,9.19Z"/>
  <path class="cls-13" d="M348.11,150.9l6.05,49.27s-5.66-.12-8.19.13l-6.53-49.78c3.02.31,5.9.49,8.66.38Z"/>
  <path class="cls-15" d="M315.71,241.74l-60.4,7.22s.07-3.93-.28-7.36l60.61-9.61c-.38,4.22-.19,5.68.07,9.75Z"/>
  <path class="cls-25" d="M483.42,184l-20.34,44.76s-4.53-.58-5.73-.44l18-46.8c3.87,1.81,5.13,1.78,8.07,2.48Z"/>
  <path class="cls-11" d="M512.32,169.8l51.37,51.98s-3.21,1.43-5.42,3.51l-50.75-49.3c1.81-2.09,2.46-2.62,4.79-6.18Z"/>
  <path class="cls-23" d="M499.59,126.67l39.79-56.03s.95,2.13,6.65,5.83l-38.62,55.58c-3.04-2.48-3.98-3.23-7.82-5.37Z"/>
  <path class="cls-6" d="M471.05,70.39l14.47,53.47s-3.58.49-6.57,1.18l-15.79-52.79c4.8-.83,5.69-1.01,7.89-1.86Z"/>
  <g>
    <path class="cls-26" d="M97.98,51.9l-43.99,33.32s-2.14-3.24-5.93-6.52l43.88-34.85c2.04,3.23,3.85,5.82,6.04,8.05Z"/>
    <line class="cls-30" x1="91.94" y1="43.84" x2="47.8" y2="78.77"/>
    <line class="cls-27" x1="97.98" y1="51.77" x2="53.83" y2="85.21"/>
  </g>
  <g>
    <path class="cls-14" d="M24.2,183.57l1.84-57.68s3.77.53,8.61.28l-.56,57.3c-3.39-.38-6.77-.22-9.88.1Z"/>
    <line class="cls-29" x1="26.04" y1="125.6" x2="24.19" y2="183.75"/>
    <line class="cls-7" x1="34.64" y1="125.9" x2="34.07" y2="183.75"/>
  </g>
  <g>
    <g>
      <path class="cls-17" d="M53.53,230.07l41.2,26.63s-1.14,2.17-2.81,7.2l-45.46-26.24c2.68-2.2,5.37-4.97,7.07-7.58Z"/>
      <path class="cls-20" d="M53.53,230.07l41.2,26.63s-1.14,2.17-2.81,7.2l-45.46-26.24c2.68-2.2,5.37-4.97,7.07-7.58Z"/>
    </g>
    <line class="cls-31" x1="53.74" y1="229.91" x2="94.73" y2="256.69"/>
    <line class="cls-28" x1="46.78" y1="237.38" x2="91.91" y2="263.61"/>
  </g>
  <g>
    <circle class="cls-12" cx="118.33" cy="30.05" r="30.05"/>
    <circle class="cls-6" cx="118.33" cy="30.05" r="10.04"/>
  </g>
  <g>
    <circle class="cls-3" cx="31.37" cy="99.59" r="26.84"/>
    <circle class="cls-6" cx="31.37" cy="99.59" r="8.97"/>
  </g>
  <g>
    <ellipse class="cls-22" cx="29.41" cy="213.15" rx="29.41" ry="30.05"/>
    <ellipse class="cls-6" cx="29.96" cy="213.15" rx="10.38" ry="10.6"/>
  </g>
  <g>
    <circle class="cls-19" cx="120.72" cy="271.08" r="29.75"/>
    <circle class="cls-6" cx="120.72" cy="271.08" r="9.94"/>
  </g>
  <g>
    <ellipse class="cls-24" cx="345.34" cy="114.34" rx="35.95" ry="36.67"/>
    <ellipse class="cls-6" cx="345.34" cy="114.34" rx="12.01" ry="12.25"/>
  </g>
  <g>
    <ellipse class="cls-5" cx="227.33" cy="76.33" rx="32.06" ry="33.55"/>
    <circle class="cls-6" cx="227.46" cy="75.82" r="10.55"/>
  </g>
  <g>
    <ellipse class="cls-4" cx="221.7" cy="246.64" rx="33.69" ry="34.98"/>
    <ellipse class="cls-6" cx="221.7" cy="246.64" rx="11.26" ry="11.69"/>
  </g>
  <g>
    <ellipse class="cls-16" cx="350.6" cy="236.67" rx="35.24" ry="36.69"/>
    <ellipse class="cls-6" cx="350.95" cy="236.67" rx="11.77" ry="12.26"/>
  </g>
  <g>
    <ellipse class="cls-21" cx="457.56" cy="258.05" rx="29.49" ry="29.88"/>
    <ellipse class="cls-6" cx="457.56" cy="258.05" rx="9.85" ry="9.98"/>
  </g>
  <g>
    <ellipse class="cls-1" cx="576.6" cy="248.87" rx="29.51" ry="30.32"/>
    <ellipse class="cls-6" cx="576.6" cy="248.87" rx="9.69" ry="10.09"/>
  </g>
  <g>
    <ellipse class="cls-10" cx="487.42" cy="154.09" rx="29.19" ry="30.2"/>
    <ellipse class="cls-6" cx="487.42" cy="154.09" rx="9.69" ry="10.09"/>
  </g>
  <g>
    <ellipse class="cls-18" cx="461.09" cy="42.28" rx="29.32" ry="30.04"/>
    <ellipse class="cls-6" cx="461.09" cy="42.28" rx="9.79" ry="10.04"/>
  </g>
  <g>
    <ellipse class="cls-8" cx="561.46" cy="51.09" rx="29.23" ry="30.2"/>
    <ellipse class="cls-6" cx="561.46" cy="51.09" rx="9.69" ry="10.09"/>
  </g>
</svg>