<svg xmlns="http://www.w3.org/2000/svg" width="400" height="400"><g fill-rule="evenodd"><path d="M191.9 19.893c.935.084 2.465.084 3.4 0s.17-.153-1.7-.153c-1.87 0-2.635.069-1.7.153m12.8 0c.935.084 2.465.084 3.4 0s.17-.153-1.7-.153c-1.87 0-2.635.069-1.7.153M55.26 60.242c-.729.824-.26 1.215.521.434.34-.34.619-.722.619-.847 0-.42-.594-.205-1.14.413M46.493 70c-.275.44-.395.8-.268.8.3 0 1.375-1.073 1.375-1.371 0-.509-.638-.18-1.107.571M145.6 93.165c-4.941.276-5.2.398-5.2 2.445 0 2.102.444 2.272 6.4 2.445l5 .145v-2.6c0-3.027.548-2.812-6.2-2.435m-2.6 29.832c-.22.073-.866.235-1.435.359-.85.186-1.044.468-1.086 1.578-.09 2.409.334 2.599 6.121 2.739l5.2.127.119-2.5.119-2.5-4.319.032c-2.375.017-4.499.091-4.719.165m104.4 9.744c-.362.347-1.447.573-8 1.667-1.1.183-2.923.347-4.051.363-1.128.016-2.658.277-3.4.581-.742.303-2.384.676-3.649.828-1.265.153-2.3.438-2.3.633 0 .196-.765.544-1.7.773-.935.229-2.21.686-2.832 1.015-.623.33-1.454.599-1.846.599-.393 0-1.143.321-1.668.714-.525.393-1.944 1.214-3.154 1.826-3.215 1.624-4.078 2.139-4.365 2.604-.142.229-.635.56-1.097.736-1.519.579-7.935 6.47-10.644 9.772-1.479 1.803-3.985 5.199-4.55 6.167-.28.479-.836.755-1.438.714-1.251-.085-1.078 1.477.353 3.198.518.622.941 1.255.941 1.408 0 1.422 8.85 8.461 10.637 8.461.325 0 1.009.274 1.52.609.511.334 2.08.768 3.486.963 1.406.196 3.727.571 5.157.834 1.972.363 3.011.368 4.3.021 1.538-.414 2.365-1.227 1.248-1.227-.73 0-.139-2.396 1.117-4.529.624-1.062 1.315-2.238 1.535-2.615 2.074-3.553 9.915-10.13 13.523-11.343.702-.236 1.485-.591 1.74-.789.255-.198 1.335-.509 2.4-.69 1.065-.181 2.221-.451 2.569-.598.427-.182.761.021 1.031.628.535 1.199 1.858-1.518 2.466-5.064.226-1.32.61-3.326.852-4.459.551-2.574.396-14.352-.181-13.8m31.364 4.62c-.02.022-.179 2.739-.353 6.039-.214 4.03-.53 6.488-.965 7.487-.355.818-.646 2.119-.646 2.892 0 .773-.254 2.083-.565 2.913-1.077 2.877-1.181 4.364-.245 3.517.565-.511.942-.601 1.302-.31.28.225 1.081.531 1.78.681.7.149 1.487.53 1.749.846.262.316.725.574 1.028.574.303 0 .883.315 1.288.7 1.077 1.022 3.276 2.139 3.698 1.878.433-.267.489-21.379.059-22.006-.33-.479-3.723-2.172-4.354-2.172-.224 0-1.157-.692-2.073-1.539-.917-.846-1.683-1.521-1.703-1.5M146 152.655c-.77.08-2.339.247-3.487.372l-2.086.227.133 1.787c.175 2.33-.244 2.169 5.885 2.27l5.355.089v-4.8l-2.2-.044c-1.21-.025-2.83.02-3.6.099m2.352 30.032c-2.711.181-4.159 1.35-3.74 3.02.296 1.178.903 1.304 8.269 1.721l4.68.266.247-.985c.136-.542.19-1.688.12-2.547l-.128-1.562-3.6-.031c-1.98-.017-4.611.036-5.848.118M19.737 193.8c.002 1.76.072 2.43.156 1.489.085-.94.084-2.38-.002-3.2-.086-.819-.155-.049-.154 1.711m165.045-1.931c.743.944.819 1.608.827 7.285.008 4.929.176 6.873.8 9.219.435 1.635.791 3.486.791 4.113 0 .627.27 1.786.6 2.576.33.789.6 1.781.6 2.203 0 .422.36 1.473.8 2.335.44.862.8 1.913.8 2.335 0 .422.27.991.6 1.265.33.274.6.734.6 1.023 0 .673.589 1.964 1.816 3.977.536.88 1.174 2.095 1.418 2.7.245.605.581 1.1.747 1.1.167 0 1.045 1.058 1.952 2.351 4.338 6.184 11.742 12.393 18.867 15.822 1.21.582 2.866 1.412 3.679 1.843.814.431 1.714.785 2 .786.287.002 1.04.274 1.674.604.634.331 1.894.714 2.8.851.906.137 1.917.474 2.247.749.33.275 1.841.628 3.357.785 1.517.157 3.497.547 4.4.868 2.377.844 24.901.857 27.252.016.885-.316 2.775-.705 4.2-.863 1.425-.158 2.951-.513 3.391-.787.44-.275 1.588-.624 2.551-.775.963-.152 2.128-.54 2.589-.863.461-.323 1.183-.587 1.605-.587.422 0 1.507-.346 2.411-.768.904-.423 2.544-1.17 3.644-1.662 3.644-1.628 3.4-.709 3.4-12.808 0-5.893-.135-10.797-.3-10.898-.165-.1-1.38.427-2.7 1.172-3.386 1.912-7.195 3.764-7.739 3.764-.253 0-.461.164-.461.365 0 .43-4.155 1.912-7 2.496-1.1.225-2.231.601-2.514.835-2.147 1.776-23.53 1.579-26.129-.241-.514-.36-1.413-.655-1.997-.655-.584 0-1.271-.252-1.527-.561-.256-.308-.939-.679-1.518-.825-.578-.145-1.495-.612-2.037-1.039-.542-.426-1.157-.775-1.366-.775-.869 0-7.524-6.601-8.979-8.906-1.922-3.044-3.706-6.74-3.972-8.229-.144-.806-.515-1.755-.824-2.11-.309-.355-.666-1.615-.793-2.8-.128-1.185-.482-2.926-.788-3.869-.727-2.242-.709-5.29.039-6.357.594-.849.593-.849-4.5-1.097-2.802-.137-6.405-.515-8.006-.84-1.602-.326-3.537-.592-4.302-.592-.764 0-2.062-.36-2.883-.8-.82-.44-1.909-.8-2.418-.8-.509 0-1.418-.255-2.02-.566-.601-.311-1.756-.69-2.566-.842-.809-.151-1.68-.527-1.935-.834-.255-.307-.756-.559-1.114-.56-.358-.002-1.154-.265-1.769-.586l-1.117-.583.817 1.04M380.14 194c0 1.87.069 2.635.153 1.7.084-.935.084-2.465 0-3.4s-.153-.17-.153 1.7m-360.4 12c0 1.87.069 2.635.153 1.7.084-.935.084-2.465 0-3.4s-.153-.17-.153 1.7m360.397-.2c.002 1.76.072 2.43.156 1.489.085-.94.084-2.38-.002-3.2-.086-.819-.155-.049-.154 1.711M169.2 212.842c-10.364.737-11.978 1.12-11.994 2.843-.011 1.191 7.38 2.278 15.676 2.306l2.682.009.262-1.397c.428-2.285-.363-4.301-1.626-4.14-.22.028-2.47.199-5 .379m4.734 30.362c-8.132.405-8.569.585-8.047 3.317.255 1.336.788 1.411 12.233 1.733l9.519.268-.119-2.761-.12-2.761-3.8-.044c-2.09-.025-6.439.087-9.666.248m56.466 36.967c-7.587 2.106-10.804 7.647-10.796 18.595.01 12.625 4.717 18.539 14.822 18.621l4.225.034 3.175 2.549a870.686 870.686 0 003.688 2.95c.474.37 2.886-1.391 2.886-2.107 0-.131-1.35-1.277-3-2.547-3.393-2.612-3.375-2.577-1.958-3.896 6.543-6.086 7.309-22.391 1.405-29.872-3.063-3.882-9.31-5.753-14.447-4.327m36.8.017c-7.824 2.242-10.8 7.295-10.8 18.335 0 6.84.669 9.934 2.863 13.247 6.652 10.042 24.628 5.987 25.133-5.67.002-.055-.872-.1-1.942-.1h-1.947l-.88 2.413c-3.345 9.174-15.653 7.938-18.629-1.87-.822-2.709-.818-12.857.006-15.631 2.998-10.096 15.974-11.16 18.771-1.54.621 2.138.702 2.228 2.003 2.228 2.805 0 2.974-1.403.707-5.838-2.44-4.772-9.325-7.283-15.285-5.574M117.6 298.8v18.4h3.984l.108-8.3.108-8.3 7.7-.109 7.7-.108v-3.166l-7.7-.108-7.7-.109-.11-6.7c-.06-3.685-.06-6.736 0-6.781.061-.044 4.16-.179 9.11-.3l9-.219.125-1.3.126-1.3H117.6v18.4m119.427-15.411c2.808.837 4.732 2.601 6.255 5.731l1.303 2.68.008 6.4c.013 11.519-2.981 16.034-10.593 15.978-6.15-.046-9.609-3.965-10.429-11.819-1.408-13.487 4.399-21.673 13.456-18.97m-32.711 3.111l-.116 3.3-2.3.12c-3.315.173-3.668 2.48-.38 2.48 2.932 0 2.88-.181 2.88 10.103 0 13.557 1.485 16.328 7.986 14.9 2.134-.469 1.634-2.72-.672-3.028-3.33-.444-3.314-.391-3.314-11.357 0-10.93-.09-10.618 3.08-10.618 2.081 0 2.12-.022 2.12-1.181 0-1.169-.025-1.182-2.5-1.3l-2.5-.119-.116-3.3-.116-3.3h-3.936l-.116 3.3M152 290.26c-2.451.846-4.252 2.281-5.204 4.147-1.1 2.157-1.022 2.393.788 2.393 1.603 0 1.741-.09 3.288-2.148 3.524-4.691 11.922-2.038 11.927 3.768.002 2.587-.342 2.779-4.979 2.786-10.617.016-16.112 7.078-10.49 13.481 3.133 3.568 11.007 3.763 13.846.342.786-.947 1.205-.772 1.85.771.559 1.338.675 1.4 2.603 1.4 1.52 0 1.938-.123 1.695-.5-.178-.275-.415-5-.525-10.5-.227-11.264-.631-12.96-3.552-14.895-2.7-1.789-7.737-2.257-11.247-1.045m29.197-.312c-7.11 2.345-8.452 9.742-2.336 12.879.803.412 3.053 1.183 5 1.713 5.725 1.558 7.739 2.94 7.739 5.311 0 5.469-10.187 6.68-12.949 1.539-1.167-2.172-4.651-3.4-4.651-1.639 0 5.974 10.438 9.975 17.065 6.541 3.086-1.599 3.935-3.031 3.935-6.637v-2.945l-1.66-1.474c-1.587-1.409-3.604-2.242-9.189-3.793-4.07-1.131-5.351-2.223-5.351-4.563 0-5.522 10.53-6.023 12.181-.58.458 1.511 3.819 1.329 3.819-.207 0-4.25-8.165-7.938-13.603-6.145m-18.48 16.987l.118 3.135-1.724 1.725c-4.464 4.463-11.916 2.79-11.91-2.675.005-3.778 2.964-5.515 9.199-5.399l4.2.079.117 3.135M66.4 321.325c0 .069.585.654 1.3 1.3L69 323.8l-1.175-1.3c-1.095-1.212-1.425-1.484-1.425-1.175m265.381 1.575l-1.581 1.7 1.7-1.581c.935-.87 1.7-1.635 1.7-1.7 0-.303-.348 0-1.819 1.581m-286.088 6.3c.469.751 1.107 1.08 1.107.571 0-.298-1.075-1.371-1.375-1.371-.127 0-.007.36.268.8m308.007-.202c-.569.647-.639 1.002-.196 1.002.167 0 .528-.36.803-.8.571-.913.144-1.055-.607-.202m-8.84 9.644c-.729.824-.26 1.215.521.434.34-.34.619-.722.619-.847 0-.42-.594-.205-1.14.413m-23.173 20.967c-.468.75-.446.772.304.304.445-.278.809-.642.809-.809 0-.578-.609-.301-1.113.505M191.9 380.293c.935.084 2.465.084 3.4 0s.17-.153-1.7-.153c-1.87 0-2.635.069-1.7.153m12.8 0c.935.084 2.465.084 3.4 0s.17-.153-1.7-.153c-1.87 0-2.635.069-1.7.153" fill="#072b5e"/><path d="M179.3.274c-2.035.086-3.7.329-3.7.541 0 .212-1.336.385-2.976.385-1.637 0-3.088.18-3.224.4-.136.22-1.317.4-2.624.4-1.317 0-2.376.178-2.376.4 0 .222-1.067.4-2.4.4s-2.4.178-2.4.4c0 .22-.709.4-1.576.4-.867 0-1.688.18-1.824.4-.136.22-.867.4-1.624.4-.757 0-1.376.18-1.376.4 0 .22-.799.4-1.776.4s-1.888.18-2.024.4c-.136.22-.766.4-1.4.4-.634 0-1.264.18-1.4.4-.136.22-.867.4-1.624.4-.757 0-1.376.18-1.376.4 0 .22-.529.4-1.176.4-.647 0-1.288.18-1.424.4-.136.22-.676.4-1.2.4-.524 0-1.064.18-1.2.4-.136.22-.676.4-1.2.4-.524 0-1.064.18-1.2.4-.136.22-.766.4-1.4.4-.634 0-1.264.18-1.4.4-.136.22-.676.4-1.2.4-.524 0-1.064.18-1.2.4-.136.22-.597.4-1.024.4-.427 0-.776.18-.776.4 0 .22-.36.4-.8.4-.44 0-.8.18-.8.4 0 .22-.54.4-1.2.4-.66 0-1.2.18-1.2.4 0 .22-.54.4-1.2.4-.66 0-1.201.135-1.203.3-.004.359-1.941 1.3-2.677 1.3-.286 0-.52.18-.52.4 0 .22-.439.4-.976.4-.537 0-1.088.18-1.224.4-.136.22-.597.4-1.024.4-.427 0-.776.18-.776.4 0 .22-.36.4-.8.4-.44 0-.8.18-.8.4 0 .22-.36.4-.8.4-.44 0-.8.18-.8.4 0 .22-.36.4-.8.4-.44 0-.8.18-.8.4 0 .22-.36.4-.8.4-.44 0-.8.18-.8.4 0 .22-.36.4-.8.4-.44 0-.801.135-.803.3-.004.359-1.941 1.3-2.677 1.3-.286 0-.52.18-.52.4 0 .22-.281.4-.624.4-.385 0-.513.191-.335.5.158.275.143.37-.033.211-.271-.246-2.375.656-3.008 1.289-.478.478-2.039 1.2-2.595 1.2-.333 0-.605.18-.605.4 0 .22-.225.4-.5.401-.275 0-1.13.54-1.9 1.199s-1.625 1.199-1.9 1.199c-.275.001-.5.181-.5.401 0 .22-.32.4-.712.4-.391 0-.971.36-1.288.8-.317.44-.857.8-1.2.8-.343 0-.883.36-1.2.8-.317.44-.78.8-1.029.8-.249 0-1.017.54-1.708 1.2-.691.66-1.488 1.2-1.771 1.2-.283 0-.775.36-1.092.8-.317.44-.825.8-1.128.8-.303 0-1.055.54-1.672 1.2-.617.66-1.281 1.2-1.476 1.2-.196 0-1.152.72-2.124 1.6-.972.88-2 1.6-2.284 1.6-.284 0-.516.276-.516.613 0 .336-.315.729-.7.872-.385.143-.991.587-1.347.987-.356.401-.838.728-1.073.728-.234 0-1.839 1.395-3.567 3.1-1.728 1.705-3.81 3.604-4.627 4.22-.817.617-1.486 1.382-1.486 1.7 0 .319-.276.58-.613.58-.702 0-3.387 2.549-3.387 3.215 0 .542-1.003 1.585-1.523 1.585-.209 0-1.009.765-1.776 1.7-.768.935-2.32 2.667-3.449 3.848-1.128 1.182-2.052 2.306-2.052 2.498 0 .192-1.08 1.446-2.4 2.786-1.32 1.341-2.4 2.692-2.4 3.003 0 .311-.18.565-.4.565-.22 0-.4.287-.4.637 0 .351-.36.732-.8.847-.44.115-.8.458-.8.762s-.72 1.295-1.6 2.202c-.88.907-1.6 1.897-1.6 2.2 0 .304-.18.552-.4.552-.22 0-.4.276-.4.613 0 .338-.611 1.224-1.357 1.971-.747.746-1.78 2.203-2.296 3.236-.516 1.033-1.165 1.966-1.442 2.072-.278.106-.505.495-.505.862 0 .368-.36.929-.8 1.246-.44.317-.8.981-.8 1.474 0 .494-.36 1.091-.8 1.326-.44.235-.8.692-.8 1.014 0 .322-.18.586-.4.586-.22 0-.4.36-.4.8 0 .44-.18.8-.4.8-.22 0-.4.278-.4.617 0 .339-.36 1.003-.8 1.475-.44.472-.8 1.095-.8 1.383 0 .289-.18.525-.4.525-.22 0-.4.36-.4.8 0 .44-.18.8-.4.8-.22 0-.4.339-.4.754 0 1.033-1.01 2.902-1.373 2.54-.161-.162-.257-.114-.213.106.19.942-.045 1.828-.424 1.594-.225-.139-.384-.105-.353.076.16.917-.084 1.748-.447 1.524-.225-.139-.384-.105-.353.076.155.889-.109 1.657-.837 2.438-.44.472-.8 1.136-.8 1.475 0 .339-.18.617-.4.617-.22 0-.4.272-.4.605 0 .333-.18.963-.4 1.4l-.8 1.59c-.22.437-.4 1.067-.4 1.4 0 .333-.18.605-.4.605-.22 0-.4.36-.4.8 0 .44-.18.8-.4.8-.22 0-.404.585-.409 1.3-.005.715-.361 1.75-.791 2.3-.43.55-.786 1.394-.791 1.876-.005.482-.189.988-.409 1.124-.22.136-.4.687-.4 1.224 0 .537-.18.976-.4.976-.22 0-.4.349-.4.776 0 .427-.18.888-.4 1.024-.22.136-.4.867-.4 1.624 0 .757-.18 1.376-.4 1.376-.22 0-.4.54-.4 1.2 0 .66-.18 1.2-.4 1.2-.22 0-.4.54-.4 1.2 0 .66-.18 1.2-.4 1.2-.22 0-.4.54-.4 1.2 0 .66-.18 1.2-.4 1.2-.22 0-.4.72-.4 1.6 0 .88-.18 1.6-.4 1.6-.22 0-.4.619-.4 1.376 0 .757-.18 1.488-.4 1.624-.22.136-.4.766-.4 1.4 0 .634-.157 1.25-.348 1.368-.192.118-.462 1.074-.6 2.124-.505 3.824-.747 4.908-1.096 4.908-.196 0-.356 1.08-.356 2.4 0 1.32-.164 2.4-.364 2.4-.356 0-.531 1.275-1.066 7.8-.145 1.76-.467 3.328-.716 3.485-.648.408-.648 48.222 0 48.63.249.157.565 1.635.703 3.285.522 6.274.724 7.812 1.078 8.18.201.209.365 1.233.365 2.276 0 1.043.18 2.008.4 2.144.22.136.4.957.4 1.824 0 .867.18 1.576.4 1.576.22 0 .4.799.4 1.776s.18 1.888.4 2.024c.22.136.4.777.4 1.424 0 .647.18 1.176.4 1.176.22 0 .4.619.4 1.376 0 .757.18 1.488.4 1.624.22.136.4.957.4 1.824 0 .867.18 1.576.4 1.576.22 0 .4.619.4 1.376 0 .757.18 1.488.4 1.624.22.136.4.676.4 1.2 0 .524.18 1.064.4 1.2.22.136.4.676.4 1.2 0 .524.18 1.064.4 1.2.22.136.404.642.409 1.124.005.482.361 1.326.791 1.876.43.55.786 1.585.791 2.3.005.715.189 1.3.409 1.3.22 0 .4.355.4.788 0 .433.36 1.429.8 2.212.44.783.8 1.869.8 2.412 0 .543.18.988.4.988.22 0 .4.36.4.8 0 .44.18.8.4.8.22 0 .4.36.4.8 0 .44.18.8.4.8.22 0 .4.439.4.976 0 .537.18 1.088.4 1.224.22.136.4.597.4 1.024 0 .427.18.776.4.776.22 0 .4.278.4.617 0 .339.36 1.003.8 1.475.728.781.992 1.549.837 2.438-.031.181.089.239.268.129.179-.111.558.371.843 1.07.284.699 1.043 2.331 1.685 3.627.642 1.296 1.167 2.601 1.167 2.9 0 .299.18.544.4.544.22 0 .4.236.4.525 0 .288.36.911.8 1.383.44.472.8 1.136.8 1.475 0 .339.18.617.4.617.22 0 .4.36.4.8 0 .44.18.8.4.8.22 0 .4.264.4.586 0 .322.36.779.8 1.014.44.235.8.832.8 1.326 0 .493.36 1.157.8 1.474.44.317.8.878.8 1.246 0 .367.227.756.505.862.277.106.924 1.035 1.437 2.063.514 1.027 1.367 2.301 1.896 2.831.529.529.962 1.171.962 1.427s.585 1.002 1.3 1.658c.715.656 1.03 1.051.7.876-.711-.375.054.735 1.299 1.884.386.356.706.806.712 1 .007.194.727 1.156 1.6 2.139.874.982 1.589 2.017 1.589 2.3 0 .282.276.514.613.514.336 0 .73.315.875.7.145.385.769 1.177 1.387 1.76.619.584 1.125 1.242 1.125 1.464 0 .221.765 1.207 1.7 2.191.935.983 2.206 2.444 2.824 3.245.618.802 1.298 1.35 1.51 1.219.212-.131.336-.007.276.277-.061.283.295.699.79.924.495.225.9.64.9.922 0 .724 5.057 5.698 5.793 5.698.334 0 .607.248.607.552 0 .303.855 1.247 1.9 2.096a62.414 62.414 0 013.772 3.401c1.029 1.021 2.469 2.282 3.2 2.802.73.52 2.025 1.621 2.876 2.447.852.826 1.725 1.502 1.94 1.502.215 0 .895.54 1.512 1.2.617.66 1.292 1.2 1.501 1.2.209 0 .945.54 1.636 1.2.691.66 1.399 1.2 1.574 1.2.176 0 .942.533 1.704 1.184.762.651 1.61 1.191 1.885 1.2.275.009.5.196.5.416 0 .22.288.4.64.4.351 0 1.143.54 1.76 1.2.617.66 1.409 1.2 1.76 1.2.352 0 .64.152.64.337 0 .186.802.75 1.782 1.254.981.504 2.143 1.252 2.584 1.663.44.41 1.078.746 1.417.746.339 0 .617.144.617.32 0 .175.675.562 1.5.859.825.297 1.791.873 2.147 1.28.356.408.941.741 1.3.741.359 0 .653.151.653.336 0 .185.72.574 1.6.864.88.29 1.6.679 1.6.864 0 .185.294.336.653.336.359 0 .98.377 1.379.837.399.46.916.719 1.15.574.233-.144.536.03.672.387.137.356.503.551.813.432.31-.119.666.05.791.377.125.326.568.593.985.593.416 0 .757.18.757.4 0 .22.36.4.8.4.44 0 .8.18.8.4 0 .22.272.4.605.4.333 0 .963.18 1.4.4l1.59.8c.437.22 1.067.4 1.4.4.333 0 .605.18.605.4 0 .22.234.4.52.4.736 0 2.673.941 2.677 1.3.002.165.543.3 1.203.3s1.2.18 1.2.4c0 .22.349.4.776.4.427 0 .888.18 1.024.4.136.22.687.4 1.224.4.537 0 .976.18.976.4 0 .22.439.4.976.4.537 0 1.088.18 1.224.4.136.22.676.4 1.2.4.524 0 1.064.18 1.2.4.136.22.676.4 1.2.4.524 0 1.064.18 1.2.4.136.22.777.4 1.424.4.647 0 1.176.18 1.176.4 0 .22.42.4.933.4.514 0 1.06.127 1.215.282.155.155.77.346 1.367.424.597.079 1.145.312 1.218.519.074.206.738.375 1.477.375.738 0 1.454.18 1.59.4.136.22.856.4 1.6.4.744 0 1.464.18 1.6.4.136.22.777.4 1.424.4.647 0 1.176.18 1.176.4 0 .22.709.4 1.576.4.867 0 1.688.18 1.824.4.136.22 1.047.4 2.024.4.977 0 1.776.164 1.776.364 0 .201 1.035.46 2.3.575 5.349.489 7.121.749 7.48 1.094.209.202 1.679.367 3.267.367 1.953 0 2.94.162 3.053.5.244.732 48.356.732 48.6 0 .113-.34 1.111-.5 3.11-.5 1.618 0 3.041-.158 3.16-.351.119-.194 1.345-.474 2.724-.622 5.657-.61 6.306-.72 6.306-1.066 0-.198.979-.361 2.176-.361s2.288-.18 2.424-.4c.136-.22.651-.4 1.144-.4.493 0 1.138-.225 1.435-.5.431-.4.482-.4.256 0-.155.275-.092.5.141.5.233 0 .424-.18.424-.4 0-.22.619-.4 1.376-.4.757 0 1.488-.18 1.624-.4.136-.22.766-.4 1.4-.4.634 0 1.264-.18 1.4-.4.136-.22.867-.4 1.624-.4.757 0 1.376-.18 1.376-.4 0-.22.452-.4 1.005-.4.553 0 1.363-.18 1.8-.4l1.59-.8c.437-.22 1.236-.4 1.776-.4s1.093-.18 1.229-.4c.136-.22.676-.4 1.2-.4.524 0 1.064-.18 1.2-.4.136-.22.676-.4 1.2-.4.524 0 1.064-.18 1.2-.4.136-.22.687-.4 1.224-.4.537 0 .976-.18.976-.4 0-.22.439-.4.976-.4.537 0 1.088-.18 1.224-.4.136-.22.597-.4 1.024-.4.427 0 .776-.18.776-.4 0-.22.54-.4 1.2-.4.66 0 1.201-.135 1.203-.3.004-.359 1.941-1.3 2.677-1.3.286 0 .52-.18.52-.4 0-.22.272-.4.605-.4.333 0 .963-.18 1.4-.4l1.59-.8c.437-.22 1.067-.4 1.4-.4.333 0 .605-.18.605-.4 0-.22.36-.4.8-.4.44 0 .8-.18.8-.4 0-.22.36-.4.8-.4.44 0 .8-.18.8-.4 0-.22.36-.4.8-.4.44 0 .8-.18.8-.4 0-.22.32-.4.712-.4.391 0 .971-.36 1.288-.8.317-.44.897-.8 1.288-.8.392 0 .712-.18.712-.4 0-.22.234-.4.52-.4.736 0 2.673-.941 2.677-1.3.002-.165.323-.3.715-.3.391 0 .971-.36 1.288-.8.317-.44.771-.8 1.009-.8.666 0 2.584-.963 2.588-1.3.002-.165.281-.3.62-.3.339 0 .977-.336 1.417-.746.441-.411 1.603-1.159 2.584-1.663.98-.504 1.782-1.068 1.782-1.254 0-.185.288-.337.64-.337.351 0 1.143-.54 1.76-1.2.617-.66 1.409-1.2 1.76-1.2.352 0 .64-.18.64-.4 0-.22.225-.407.5-.416.275-.009 1.123-.549 1.885-1.2.762-.651 1.541-1.184 1.731-1.184.191 0 1.06-.72 1.931-1.6.871-.88 1.807-1.6 2.08-1.6.273 0 .756-.36 1.073-.8.317-.44.785-.8 1.04-.8s1.16-.676 2.012-1.502c.851-.826 2.145-1.927 2.874-2.446.73-.519 2.353-1.958 3.606-3.198 1.254-1.24 2.952-2.758 3.774-3.374.822-.617 1.494-1.382 1.494-1.7 0-.319.274-.58.609-.58.692 0 4.991-4.152 4.991-4.82 0-.492.655-1.156 1.817-1.843.431-.254.734-.673.673-.93-.06-.256.064-.359.276-.228.212.131.892-.417 1.51-1.219.618-.801 1.889-2.262 2.824-3.245.935-.984 1.7-1.96 1.7-2.171 0-.21.9-1.282 2-2.382s2-2.134 2-2.297c0-.163.72-1.093 1.6-2.065.88-.972 1.6-1.985 1.6-2.251 0-.265.135-.543.3-.617.165-.074.75-.658 1.3-1.298s.73-1.03.4-.868c-.33.162-.195-.063.3-.5s.9-.996.9-1.243c0-.248.611-1.06 1.357-1.807.747-.746 1.78-2.203 2.296-3.236.516-1.033 1.165-1.966 1.442-2.072.278-.106.505-.495.505-.862 0-.368.36-.929.8-1.246.44-.317.8-.981.8-1.474 0-.494.36-1.091.8-1.326.44-.235.8-.692.8-1.014 0-.322.18-.586.4-.586.22 0 .4-.36.4-.8 0-.44.18-.8.4-.8.22 0 .4-.278.4-.617 0-.339.36-1.003.8-1.475.44-.472.8-1.095.8-1.383 0-.289.18-.525.4-.525.22 0 .399-.225.397-.5-.002-.275.74-2.03 1.648-3.9.909-1.87 2.019-4.165 2.467-5.1.447-.935.965-1.7 1.151-1.7.185 0 .337-.36.337-.8 0-.44.18-.8.4-.8.22 0 .4-.349.4-.776 0-.427.18-.888.4-1.024.22-.136.4-.687.4-1.224 0-.537.18-.976.4-.976.22 0 .4-.36.4-.8 0-.44.18-.8.4-.8.22 0 .4-.36.4-.8 0-.44.18-.8.4-.8.22 0 .4-.529.4-1.176 0-.647.18-1.288.4-1.424.22-.136.4-.687.4-1.224 0-.537.18-.976.4-.976.22 0 .4-.36.4-.8 0-.44.18-.8.4-.8.22 0 .4-.641.4-1.424 0-.783.142-1.336.315-1.228.173.107.355-.288.404-.877.048-.589.266-1.131.484-1.204.219-.074.397-.659.397-1.3 0-.642.18-1.167.4-1.167.22 0 .4-.54.4-1.2 0-.66.18-1.2.4-1.2.22 0 .4-.54.4-1.2 0-.66.18-1.2.4-1.2.22 0 .4-.619.4-1.376 0-.757.18-1.488.4-1.624.22-.136.4-.766.4-1.4 0-.634.18-1.264.4-1.4.22-.136.4-.766.4-1.4 0-.634.18-1.264.4-1.4.22-.136.4-.766.4-1.4 0-.634.18-1.264.4-1.4.22-.136.4-1.047.4-2.024 0-.977.18-1.776.4-1.776.22 0 .4-.709.4-1.576 0-.867.18-1.688.4-1.824.22-.136.4-1.227.4-2.424 0-1.197.164-2.176.364-2.176.356 0 .531-1.275 1.066-7.8.145-1.76.467-3.328.716-3.485.33-.208.454-6.839.454-24.315s-.124-24.107-.454-24.315c-.249-.157-.571-1.725-.716-3.485-.535-6.525-.71-7.8-1.066-7.8-.2 0-.364-.979-.364-2.176s-.18-2.288-.4-2.424c-.22-.136-.4-.957-.4-1.824 0-.867-.18-1.576-.4-1.576-.22 0-.4-.799-.4-1.776s-.18-1.888-.4-2.024c-.22-.136-.4-.777-.4-1.424 0-.647-.18-1.176-.4-1.176-.22 0-.4-.619-.4-1.376 0-.757-.18-1.488-.4-1.624-.22-.136-.4-.957-.4-1.824 0-.867-.18-1.576-.4-1.576-.22 0-.4-.619-.4-1.376 0-.757-.18-1.488-.4-1.624-.22-.136-.4-.676-.4-1.2 0-.524-.18-1.064-.4-1.2-.22-.136-.4-.676-.4-1.2 0-.524-.18-1.064-.4-1.2-.22-.136-.4-.597-.4-1.024 0-.427-.18-.776-.4-.776-.22 0-.4-.54-.4-1.2 0-.66-.18-1.2-.4-1.2-.22 0-.4-.439-.4-.976 0-.537-.18-1.088-.4-1.224-.22-.136-.4-.676-.4-1.2 0-.524-.18-1.064-.4-1.2-.22-.136-.4-.597-.4-1.024 0-.427-.18-.776-.4-.776-.22 0-.4-.54-.4-1.2 0-.66-.18-1.2-.4-1.2-.22 0-.4-.36-.4-.8 0-.44-.18-.8-.4-.8-.22 0-.4-.36-.4-.8 0-.44-.18-.8-.4-.8-.22 0-.4-.439-.4-.976 0-.537-.18-1.088-.4-1.224-.22-.136-.4-.597-.4-1.024 0-.427-.18-.776-.4-.776-.22 0-.4-.278-.4-.617 0-.339-.36-1.003-.8-1.475-.728-.781-.992-1.549-.837-2.438.031-.181-.128-.215-.353-.076-.363.224-.607-.607-.447-1.524.031-.181-.089-.239-.268-.129-.179.111-.557-.371-.84-1.07a48.651 48.651 0 00-1.285-2.809c-.424-.846-.77-1.791-.77-2.1 0-.309-.18-.562-.4-.562-.22 0-.4-.236-.4-.525 0-.288-.36-.911-.8-1.383-.44-.472-.8-1.136-.8-1.475 0-.339-.18-.617-.4-.617-.22 0-.4-.36-.4-.8 0-.44-.18-.8-.4-.8-.22 0-.4-.264-.4-.586 0-.322-.36-.779-.8-1.014-.44-.235-.8-.832-.8-1.326 0-.493-.36-1.157-.8-1.474-.44-.317-.8-.897-.8-1.288 0-.392-.153-.712-.34-.712-.317 0-2.86-3.794-2.86-4.266 0-.117-.54-.717-1.2-1.334-.66-.617-1.2-1.409-1.2-1.76 0-.352-.15-.64-.332-.64-.183 0-.588-.495-.9-1.1-.313-.605-1.063-1.577-1.668-2.16-.605-.584-1.1-1.257-1.1-1.497 0-.24-.54-.952-1.2-1.583-.66-.631-1.2-1.332-1.2-1.558 0-.226-1.08-1.532-2.4-2.902-1.32-1.37-2.4-2.626-2.4-2.791 0-.165-1.009-1.36-2.242-2.655-1.234-1.295-2.694-2.937-3.245-3.65-.551-.713-1.19-1.18-1.419-1.038-.233.144-.299.066-.15-.176.333-.538-4.268-5.29-5.122-5.29-.342 0-.622-.261-.622-.58 0-.318-.672-1.083-1.494-1.7-.822-.616-2.541-2.155-3.82-3.42-1.279-1.265-2.49-2.3-2.692-2.3-.201 0-.559-.36-.794-.8-.235-.44-.616-.8-.845-.8-.23 0-1.109-.72-1.955-1.6-.846-.88-1.694-1.6-1.885-1.6-.191 0-1.143-.72-2.115-1.6-.972-.88-1.928-1.6-2.124-1.6-.195 0-.859-.54-1.476-1.2-.617-.66-1.369-1.2-1.672-1.2-.303 0-.811-.36-1.128-.8-.317-.44-.773-.8-1.013-.8-.24 0-.787-.315-1.217-.7-1.729-1.551-2.352-1.955-2.007-1.3.175.33-.22.015-.876-.7s-1.484-1.3-1.84-1.3c-.356 0-.647-.18-.647-.4 0-.22-.272-.4-.604-.4-.332 0-1.168-.54-1.859-1.2-.691-.66-1.583-1.2-1.982-1.2-.4 0-.92-.36-1.155-.8-.235-.44-.692-.8-1.014-.8-.322 0-.586-.18-.586-.4 0-.22-.272-.4-.605-.4-.556 0-2.117-.722-2.595-1.2-.633-.633-2.737-1.535-3.008-1.289-.176.159-.191.064-.033-.211.178-.309.05-.5-.335-.5-.343 0-.624-.18-.624-.4 0-.22-.253-.4-.562-.4-.666 0-3.979-1.668-4.171-2.1-.074-.165-.479-.3-.9-.3-.422 0-.767-.18-.767-.4 0-.22-.36-.4-.8-.4-.44 0-.8-.18-.8-.4 0-.22-.234-.4-.52-.4-.736 0-2.673-.941-2.677-1.3-.002-.165-.352-.3-.779-.3-.427 0-.888-.18-1.024-.4-.136-.22-.687-.4-1.224-.4-.537 0-.976-.18-.976-.4 0-.22-.234-.4-.52-.4-.736 0-2.673-.941-2.677-1.3-.002-.165-.543-.3-1.203-.3s-1.2-.18-1.2-.4c0-.22-.54-.4-1.2-.4-.66 0-1.2-.18-1.2-.4 0-.22-.36-.4-.8-.4-.44 0-.8-.18-.8-.4 0-.22-.349-.4-.776-.4-.427 0-.888-.18-1.024-.4-.136-.22-.676-.4-1.2-.4-.524 0-1.064-.18-1.2-.4-.136-.22-.747-.4-1.357-.4s-1.235-.125-1.388-.278c-.153-.153-.557-.319-.898-.369a6.165 6.165 0 01-1.288-.382 8.432 8.432 0 00-1.46-.443c-.436-.083-.967-.326-1.18-.539-.214-.214-.893-.389-1.509-.389-.616 0-1.12-.18-1.12-.4 0-.22-.619-.4-1.376-.4-.757 0-1.488-.18-1.624-.4-.136-.22-.766-.4-1.4-.4-.634 0-1.264-.18-1.4-.4-.136-.22-1.047-.4-2.024-.4-.977 0-1.776-.18-1.776-.4 0-.22-.619-.4-1.376-.4-.757 0-1.488-.18-1.624-.4-.136-.22-.957-.4-1.824-.4-.867 0-1.576-.18-1.576-.4 0-.222-1.067-.4-2.4-.4s-2.4-.178-2.4-.4c0-.222-1.059-.4-2.376-.4-1.307 0-2.488-.18-2.624-.4-.136-.22-1.572-.4-3.19-.4-1.942 0-2.998-.164-3.104-.482-.16-.479-35.851-.831-45.006-.444m35.1 19.909c106.803 9.645 181.452 106.201 163.232 211.132C358.41 342.009 241.529 408.645 136.6 368.731 32.33 329.068-11.592 207.177 43.514 110.4 68.172 67.095 111.876 34.757 160.2 24.06c5.112-1.132 8.078-1.659 16.339-2.906 10.01-1.509 27.054-1.947 37.861-.971m-7.6 54.013c-1.21.301-3.37.676-4.8.831-1.43.156-3.298.529-4.15.828-.853.3-1.933.551-2.4.559-.468.007-1.57.361-2.45.786-.88.425-1.802.779-2.049.786-.382.012-1.703.525-4.551 1.768-.33.144-1.32.701-2.2 1.238-.88.537-2.095 1.181-2.7 1.431-.605.251-1.1.596-1.1.768 0 .171-.514.525-1.143.785-2.087.865-9.692 8.136-12.367 11.824-1.793 2.473-2.437 3.463-3.253 5-.526.99-1.199 2.084-1.496 2.431-.298.348-.541.838-.541 1.09 0 .422-.442 1.489-2.454 5.923-.41.904-.746 2.035-.746 2.513 0 .478-.241 1.448-.536 2.156-.295.708-.666 2.277-.823 3.487-.157 1.21-.58 3.19-.938 4.4-.835 2.818-.939 23.071-.134 26 .272.99.716 3.15.987 4.8s.682 3.36.914 3.8c.232.44.521 1.579.642 2.531.121.952.505 2.046.854 2.432.349.385.634.995.634 1.356 0 .588 1.081 3.095 2.018 4.681.195.33.913 1.665 1.596 2.966 4.338 8.27 18.215 20.59 23.237 20.629.358.003.859.256 1.114.563.255.307 1.126.683 1.935.834.81.152 1.965.531 2.566.842.602.311 1.511.566 2.02.566.509 0 1.598.36 2.418.8.821.44 2.119.8 2.883.8.765 0 2.7.259 4.302.575 1.601.316 5.864.771 9.473 1.011 7.838.521 6.812-.087 14.435 8.562 2.883 3.272 5.458 6.173 5.723 6.447.264.275 1.901 2.053 3.638 3.952l3.159 3.453h13.741c15.823 0 15.008.279 11.261-3.86-1.364-1.507-2.669-2.97-2.9-3.252-.23-.281-1.048-1.181-1.817-2-.769-.818-2.908-3.198-4.753-5.288-4.476-5.068-8.477-9.543-9.406-10.519-.846-.889-.543-2.566.557-3.077.603-.281 1.916-.97 3.4-1.785 6.874-3.775 16.037-12.563 18.997-18.219.287-.55.64-1.09.783-1.2.42-.322 2.42-4.34 2.42-4.861 0-.262.247-.76.548-1.108.645-.741 2.252-5.299 2.252-6.384 0-.412.27-1.396.6-2.185.33-.79.6-2.078.6-2.862 0-.784.291-2.095.646-2.913 1.512-3.478 1.771-24.967.365-30.287-.291-1.1-.648-2.72-.794-3.6-1.494-9.004-7.741-20.593-14.677-27.23-4.362-4.173-8.29-7.074-11.791-8.705-.688-.321-1.374-.782-1.524-1.024-.15-.243-.577-.442-.949-.443-.372-.002-1.216-.285-1.876-.63-2.698-1.409-9.837-3.405-15.8-4.417-5.54-.941-20.36-1.164-23.6-.355M225 96.185c2.175.629 3.374 1.101 6.679 2.629 3.706 1.713 10.203 9.159 11.612 13.309.239.702.676 1.632.972 2.066.295.434.538 1.154.539 1.6.002.446.277 1.336.611 1.978.335.641.785 2.351 1 3.8.215 1.448.569 3.353.788 4.233.658 2.647.97 18.059.418 20.6-.263 1.21-.664 3.28-.89 4.6-.227 1.32-.753 3.165-1.17 4.1l-1.606 3.6c-.466 1.045-1.007 2.17-1.201 2.5a16.55 16.55 0 00-.753 1.527c-1.71 3.969-9.436 11.026-13.045 11.915-.635.157-1.514.507-1.954.779-.44.272-1.88.618-3.2.77-1.32.152-3.267.555-4.327.897-1.636.528-2.328.548-4.6.131-1.47-.27-3.824-.651-5.23-.847-1.406-.195-2.975-.629-3.486-.963-.511-.335-1.195-.609-1.52-.609-2.035 0-8.711-5.432-10.86-8.836-.52-.823-1.132-1.613-1.361-1.754-.229-.141-.416-.55-.416-.907 0-.574-1.018-3.093-2.001-4.954-.189-.358-.471-1.348-.625-2.2-.155-.852-.505-1.999-.78-2.549-.274-.55-.722-2.53-.994-4.4l-.814-5.6c-.418-2.886-.417-12.058.002-14.6.181-1.1.552-3.62.826-5.6.273-1.98.72-4.05.993-4.6.273-.55.629-1.63.791-2.4 1.374-6.541 9.492-16.622 14.664-18.21.516-.158 1.142-.451 1.392-.65.541-.431 4.033-1.469 6.546-1.944 2.821-.534 10.288-.196 13 .589" fill="#850908"/><path d="M192.2 20.447c-6.609.296-11.666.77-17 1.593-9.225 1.423-10.78 1.703-15.6 2.809C62.719 47.079 2.247 144.776 25.25 241.9c1.278 5.397 4.798 17.007 6.336 20.9C62.419 340.843 138.111 387.685 219 378.781c8.704-.958 12.191-1.572 21.7-3.819 43.149-10.198 80.64-35.493 106.366-71.762 9.37-13.211 18.766-31.886 23.521-46.749 3.775-11.803 5.447-18.973 7.378-31.651 2.227-14.623 2.231-34.637.009-49.5-1.067-7.136-1.133-7.476-3.583-18.5-5.537-24.912-20.157-53.006-38.818-74.6-23.84-27.584-60.57-49.913-93.773-57.007-1.32-.282-3.39-.762-4.6-1.067-1.21-.305-3.37-.72-4.8-.923-1.43-.203-3.77-.56-5.2-.793-5.116-.835-8.686-1.228-14.4-1.586-9.979-.625-13.592-.691-20.6-.377m40 53.254c.88.346 2.5.722 3.6.835 1.1.113 2.54.487 3.2.832.66.345 1.68.628 2.268.63.587.001 1.577.265 2.2.586.622.321 2.212 1.051 3.532 1.622 3.031 1.311 5.419 2.558 6.231 3.253.348.298.747.541.888.541C256.181 82 270 95.483 270 97.495c0 .224.252.616.56.871.307.256 1.402 2.213 2.432 4.349a343 343 0 002.389 4.885c.284.55.644 1.711.8 2.58.157.868.54 1.943.852 2.389.312.445.567 1.286.567 1.87 0 .583.268 1.821.597 2.751.593 1.683 1.018 4.991 1.943 15.133.477 5.223.76 6.051 2.076 6.071.228.003 1.578.612 3 1.353l2.584 1.347.106 12.505c.11 13.069-.029 14.309-1.463 13.064-.987-.856-8.15-4.893-9.143-5.153-.871-.227-2.16 1.778-3.079 4.79-.151.495-.423.9-.605.9-.181 0-.438.433-.571.961-.848 3.38-7.38 12.064-12.665 16.839-2.571 2.322-8.374 6.294-10.98 7.514-2.87 1.344-2.757 1.763 1.745 6.486 1.259 1.32 4.428 4.83 7.044 7.8 2.615 2.97 5.353 5.985 6.083 6.699.73.715 1.328 1.395 1.328 1.512 0 .117.908 1.145 2.018 2.285 1.522 1.563 1.99 2.322 1.9 3.088l-.118 1.016-14.2.109c-16.668.128-14.673.687-20.318-5.691-5.423-6.127-6.056-6.833-8.086-9.018a239.94 239.94 0 01-3.735-4.147c-4.708-5.361-6.83-2.385-4.206 5.899.41 1.294.745 2.768.745 3.277 0 .508.175 1.032.389 1.164.214.133.591.998.837 1.924.247.926.667 1.953.934 2.283.267.33.699 1.05.96 1.6 1.145 2.413 4.637 6.776 6.799 8.494.811.645 1.566 1.302 1.678 1.461.689.976 8.439 4.845 9.706 4.845.508 0 1.949.36 3.201.8 2.602.915 14.292 1.155 17.296.355.88-.234 2.5-.604 3.6-.821 3.996-.79 12.749-3.946 14.442-5.206.243-.181 1.323-.793 2.4-1.358 1.077-.566 2.605-1.471 3.396-2.011 2.79-1.905 2.762-2.029 2.762 12.078v12.552l-1.3.598c-.715.328-1.57.766-1.9.973-1.424.893-4.08 2.04-4.723 2.04-.385 0-1.076.264-1.536.586-.46.323-1.536.766-2.389.986-.854.22-3.622.946-6.152 1.613-2.53.666-5.23 1.219-6 1.228-.77.008-2.57.272-4 .587-3.597.791-16.912.786-20.2-.008-1.32-.319-3.087-.582-3.926-.586-1.843-.007-8.36-1.436-10.188-2.233-.722-.315-1.625-.573-2.005-.573-.381 0-1.365-.36-2.185-.8-.821-.44-1.719-.803-1.995-.807-.275-.003-1.491-.539-2.701-1.19-1.21-.651-2.74-1.464-3.4-1.806-3.213-1.666-7.425-4.762-10.963-8.059-2.854-2.659-7.793-8.447-9.037-10.59l-1.4-2.419c-.87-1.505-2.245-4.437-2.966-6.329a8.518 8.518 0 00-.602-1.2c-.652-1.048-1.681-4.518-2.066-6.963-.205-1.299-.578-2.61-.83-2.914-.251-.303-.605-2.21-.785-4.237a281.883 281.883 0 00-.737-7.086c-.224-1.87-.412-4.48-.417-5.8-.011-2.769-.208-3.19-1.931-4.119-8.114-4.376-16.357-13.28-20.661-22.318-2.895-6.079-3.981-9.071-4.43-12.212-.137-.963-.483-2.291-.768-2.951-1.995-4.619-2.011-28.574-.024-34.4.3-.88.664-2.32.81-3.2.302-1.83 1.264-5.039 2.038-6.8.291-.66 1.005-2.37 1.589-3.8.583-1.43 1.284-2.87 1.559-3.2.275-.33.617-.929.76-1.332.343-.963 3.07-5.07 3.961-5.965.385-.387.7-.848.7-1.025 0-.655 6.301-6.758 9.201-8.911 3.812-2.83 11.402-7.162 12.555-7.166.196 0 1.096-.339 2-.752 1.652-.754 3.704-1.364 7.044-2.092.99-.216 2.61-.594 3.6-.84 3.589-.893 6.399-1.044 17.6-.946 9.259.081 11.7.218 13 .73m-80.174 18.713c.929.497 1.164 5.698.282 6.243-.611.378-19.026.211-27.865-.252-7.145-.374-7.231-.408-7.231-2.805 0-2.777.044-2.784 18.694-3.181 7.422-.158 13.911-.317 14.42-.353.51-.036 1.275.12 1.7.348M210.4 97.17c-7.514 1.652-13.522 6.127-16.996 12.661-.551 1.037-1.155 2.084-1.341 2.327-.509.664-1.639 4.114-2.297 7.011-.32 1.413-.745 2.765-.943 3.003-1.233 1.486-1.12 26.083.132 28.568.293.583.652 1.87.797 2.86.145.99.52 2.34.835 3 .314.66.674 1.695.8 2.3.264 1.271 1.678 1.541 2.093.4.14-.385.944-1.535 1.787-2.556.843-1.02 1.533-2 1.533-2.176 0-.621 8.694-8.785 11.034-10.363 1.301-.877 2.462-1.725 2.58-1.884.118-.16.838-.57 1.6-.911 1.472-.661 2.324-1.141 4.07-2.294.596-.394 1.316-.716 1.6-.715.284.001 1.236-.345 2.116-.768 3.619-1.739 9.675-3.633 11.617-3.633.705 0 2.07-.28 3.033-.621.991-.352 3.831-.723 6.55-.854 2.64-.129 4.989-.381 5.221-.562.501-.392-.625-9.831-1.546-12.963-1.117-3.8-2.171-6.656-2.622-7.107-.249-.249-.453-.623-.453-.832 0-.45-2.236-3.856-3.902-5.944-5.518-6.915-16.908-10.23-27.298-7.947m-58.233 25.073c.787.302.913 5.317.153 6.077-.816.816-31.398.163-33.721-.72-1.213-.461-1.47-3.511-.372-4.422.948-.787 32.091-1.645 33.94-.935m.203 29.921c.286.345.422 1.627.349 3.3l-.119 2.736-9.2.117c-8.796.112-23-.436-24.9-.962-.777-.214-.9-.516-.9-2.212 0-2.731.229-2.787 12.8-3.124 18.707-.502 21.449-.484 21.97.145m88.03 5.636c-.55.314-1.311.578-1.691.586-3.894.08-13.564 8.704-16.162 14.414-.35.77-.84 1.528-1.089 1.683-1.305.819.555 1.259 2.637.625 1.158-.353 2.678-.759 3.377-.901.7-.142 1.487-.517 1.749-.833.262-.316.799-.574 1.192-.574 1.134 0 7.987-5.804 7.987-6.764 0-.218.231-.54.514-.716.282-.176 1.272-1.611 2.2-3.19 2.452-4.173 2.156-5.97-.714-4.33m-81.769 25.225c.327 1.745-.007 4.511-.619 5.123-.757.757-35.142-.028-38.212-.872-1.803-.495-2.042-3.849-.322-4.511 1.762-.679 9.948-1.041 25.004-1.106l13.882-.059.267 1.425m17.398 28.81c.566.682.767 5.462.28 6.665-.516 1.272-43.043.84-50.909-.517-3.89-.671-4.271-.922-4.123-2.709.221-2.653 3.795-3.175 24.923-3.638 25.113-.55 29.23-.523 29.829.199m11.974 30.17c.237.443.378 2.198.314 3.9L188.2 249l-28-.086c-35.867-.11-36.709-.176-37.177-2.914-.351-2.049.063-2.357 4.005-2.978 10.834-1.707 60.165-2.53 60.975-1.017m52.486 38.278c10.04 4.458 12.681 24.064 4.525 33.593-1.753 2.047-1.828 1.715.839 3.729 4.112 3.105 4.075 3.026 2.307 4.836-1.988 2.036-1.971 2.04-6.269-1.363l-3.691-2.923-3.019.162c-11.907.639-19.01-10.498-16.186-25.382 2.151-11.338 11.74-16.983 21.494-12.652m37.359.144c3.859 1.836 6.952 6.364 6.952 10.177V292h-2.592c-2.508 0-2.6-.036-2.815-1.1-1.763-8.739-12.93-10.028-16.759-1.935-3.012 6.367-1.928 18.468 2.007 22.391 4.544 4.53 13.46 2.156 14.419-3.839.527-3.295 6.132-3.433 5.787-.143-1.193 11.377-18.83 15.139-25.768 5.497-4.431-6.158-5.139-18.896-1.452-26.123 3.558-6.975 12.785-9.859 20.221-6.321m-137.681-.984c.469.18.633.801.633 2.392v2.15l-9.1.107-9.1.108-.11 6.1-.111 6.1h7.531c8.303 0 8.49.053 8.49 2.4s-.188 2.4-8.48 2.4h-7.52v8.153c0 9.137.181 8.628-3.067 8.642-2.725.011-2.533 1.477-2.533-19.371 0-10.39.12-19.011.267-19.157.333-.334 22.235-.356 23.1-.024m68.781 3.857c.133.495.244 2.016.247 3.381l.005 2.481 2.5.119 2.5.119.126 1.76c.153 2.133-.211 2.426-3.026 2.434l-2.1.006v9.371c0 10.764-.041 10.629 3.229 10.629h1.971v2.01c0 2.44-.858 2.953-4.505 2.699-5.423-.378-6.06-1.871-6.23-14.609l-.136-10.1h-2.115c-2.522 0-3.115-.54-2.94-2.672l.126-1.528 2.5-.119 2.5-.119v-2.748c0-3.914.07-4.014 2.796-4.014 2.058 0 2.337.098 2.552.9m21.452 1.147c-6.648 2.637-8.711 17.746-3.481 25.493 3.56 5.274 12.304 4.617 15.286-1.149 2.864-5.539 2.252-17.714-1.095-21.774-2.245-2.723-7.278-3.931-10.71-2.57m-69.178 4.961c5.177 1.826 5.974 3.725 5.993 14.288.009 4.942.217 9.152.534 10.789.614 3.173.414 3.515-2.055 3.515-2.132 0-3.294-.569-3.294-1.614 0-.994-.098-.986-1.908.153-7.018 4.414-15.692.727-15.692-6.67 0-6.671 5.037-9.869 15.545-9.869h1.766l-.246-2.083c-.644-5.435-8.698-6.6-11.065-1.601-.686 1.448-4.952 1.997-5.449.7-1.849-4.817 9.018-10.026 15.871-7.608m28.018-.14c3.308 1.139 5.811 3.779 6.536 6.894.579 2.487-4.427 2.81-5.643.364-1.947-3.916-8.666-4.468-10.171-.835-1.089 2.631.581 4.124 6.143 5.491 7.323 1.8 9.895 4.046 9.895 8.644 0 11.01-21.589 11.55-22.487.562L173.4 309l2.424-.117 2.424-.117.776 1.702c2.434 5.34 13.631 3.777 11.408-1.592-.613-1.478-2.002-2.253-5.856-3.267-8.034-2.114-10.176-3.951-10.176-8.729 0-5.901 7.957-9.982 14.84-7.612m-33.33 15.165c-5.911.866-8.134 5.735-3.82 8.365 4.286 2.613 9.91-.645 9.91-5.741 0-3.306-.364-3.463-6.09-2.624" fill="#fbfbfb"/><path d="M187 20.406c-1.1.155 1.06.191 4.8.082 3.74-.109 6.875-.264 6.967-.343.291-.253-9.681-.031-11.767.261m14.233-.261c.092.079 3.227.237 6.967.35 3.925.118 5.87.074 4.6-.105-2.208-.312-11.879-.517-11.567-.245M179 21.2c-1.766.449.245.469 2.4.023l1.6-.331-1.4.001c-.77.001-1.94.139-2.6.307m39.6.023c.88.182 2.05.32 2.6.307 1.588-.039-1.035-.635-2.8-.637l-1.4-.001 1.6.331M173.2 22l-1 .32 1-.007c.55-.004 1.54-.145 2.2-.313l1.2-.305-1.2-.008c-.66-.004-1.65.137-2.2.313m51.4 0c.66.168 1.65.309 2.2.313l1 .007-1-.32c-.55-.176-1.54-.317-2.2-.313l-1.2.008 1.2.305m-56.6.8c-.972.311-.967.32.2.32.66 0 1.65-.144 2.2-.32.972-.311.967-.32-.2-.32-.66 0-1.65.144-2.2.32m61.6 0c.55.176 1.54.32 2.2.32 1.167 0 1.172-.009.2-.32-.55-.176-1.54-.32-2.2-.32-1.167 0-1.172.009-.2.32m-66 .8c-.764.494.058.494 1.6 0l1-.32-1-.034c-.55-.019-1.27.141-1.6.354m71.2 0c1.368.438 2.419.438 1.4 0-.44-.189-1.16-.338-1.6-.332-.643.009-.604.075.2.332m-74.6.8c-1.019.438.032.438 1.4 0 .804-.257.843-.323.2-.332-.44-.006-1.16.143-1.6.332m78 0c.44.189 1.16.344 1.6.344h.8l-.8-.344c-.44-.189-1.16-.344-1.6-.344h-.8l.8.344m-81.6.8l-.8.344h.8c.44 0 1.16-.155 1.6-.344l.8-.344h-.8c-.44 0-1.16.155-1.6.344m85.2 0c.44.189 1.16.344 1.6.344h.8l-.8-.344c-.44-.189-1.16-.344-1.6-.344h-.8l.8.344m-88.4.8c-.504.217-.578.344-.2.344.33 0 .96-.155 1.4-.344.504-.217.578-.344.2-.344-.33 0-.96.155-1.4.344m92 0c.44.189 1.07.344 1.4.344.378 0 .304-.127-.2-.344-.44-.189-1.07-.344-1.4-.344-.378 0-.304.127.2.344m-94.8.8c-.504.217-.578.344-.2.344.33 0 .96-.155 1.4-.344.504-.217.578-.344.2-.344-.33 0-.96.155-1.4.344m97.6 0c.44.189 1.07.344 1.4.344.378 0 .304-.127-.2-.344-.44-.189-1.07-.344-1.4-.344-.378 0-.304.127.2.344m-100.4.8c-.504.217-.578.344-.2.344.33 0 .96-.155 1.4-.344.504-.217.578-.344.2-.344-.33 0-.96.155-1.4.344m103.2 0c.44.189 1.07.344 1.4.344.378 0 .304-.127-.2-.344-.44-.189-1.07-.344-1.4-.344-.378 0-.304.127.2.344m-105.8.8c-.533.345-.533.388 0 .388.33 0 .87-.175 1.2-.388.533-.345.533-.388 0-.388-.33 0-.87.175-1.2.388m108.4 0c.33.213.87.388 1.2.388.533 0 .533-.043 0-.388-.33-.213-.87-.388-1.2-.388-.533 0-.533.043 0 .388m-110.8.8c-.533.345-.533.388 0 .388.33 0 .87-.175 1.2-.388.533-.345.533-.388 0-.388-.33 0-.87.175-1.2.388m113.2 0c.33.213.87.388 1.2.388.533 0 .533-.043 0-.388-.33-.213-.87-.388-1.2-.388-.533 0-.533.043 0 .388m-115.6.8c-.533.345-.533.388 0 .388.33 0 .87-.175 1.2-.388.533-.345.533-.388 0-.388-.33 0-.87.175-1.2.388m118 0c.33.213.87.388 1.2.388.533 0 .533-.043 0-.388-.33-.213-.87-.388-1.2-.388-.533 0-.533.043 0 .388m-128.747 4.253c-.74.323-1.252.681-1.137.796.115.115.9-.156 1.746-.602 1.773-.936 1.379-1.061-.609-.194m140.085.194c.846.446 1.63.718 1.743.605.195-.195-2.501-1.472-3.03-1.434-.138.009.441.382 1.287.829m-143.685 1.406c-.74.323-1.252.681-1.137.796.115.115.9-.156 1.746-.602 1.773-.936 1.379-1.061-.609-.194m147.285.194c.846.446 1.63.718 1.743.605.195-.195-2.501-1.472-3.03-1.434-.138.009.441.382 1.287.829M119.5 39.024c-2.365 1.201-4.3 2.273-4.3 2.383 0 .179 8.76-4.076 9.167-4.453.61-.565-1.157.187-4.867 2.07m156.133-2.07c.407.377 9.167 4.632 9.167 4.453 0-.222-8.624-4.607-9.06-4.607-.15 0-.198.069-.107.154m-165.659 7.184c-4.842 2.82-9.574 5.863-9.574 6.155 0 .109.495-.127 1.1-.525 2.189-1.441 10.06-6.132 11.661-6.948 1.505-.768 2.08-1.275 1.339-1.182-.165.02-2.202 1.145-4.526 2.5M285.2 41.763c0 .09 1.125.786 2.5 1.546 1.375.761 3.22 1.797 4.1 2.304.88.506 1.42.725 1.2.486-.775-.844-7.8-4.748-7.8-4.336m8.4 4.739c.492.568 12.798 8.638 12.784 8.383-.009-.157-2.664-2.02-5.9-4.141-5.705-3.739-7.3-4.722-6.884-4.242M96.779 52.524c-9.86 6.776-20.341 16.043-30.19 26.691-5.289 5.718-13.477 16.196-16.354 20.927-1.247 2.05-.142.707 2.585-3.142 12.085-17.06 27.933-32.938 43.693-43.777 2.611-1.795 3.965-2.907 3.411-2.799-.068.013-1.483.958-3.145 2.1M306.8 55.333c0 .111 1.575 1.422 3.5 2.914 13.169 10.21 26.552 24.183 36.254 37.853 2.411 3.398 2.85 3.548.583.2-8.151-12.04-23.72-28.402-36.068-37.906-3.931-3.025-4.269-3.267-4.269-3.061M205.6 73.17c-1.21.164-3.01.501-4 .747-.99.246-2.61.624-3.6.84-3.34.728-5.392 1.338-7.044 2.092-.904.413-1.804.752-2 .752-1.153.004-8.743 4.336-12.555 7.166-2.9 2.153-9.201 8.256-9.201 8.911 0 .177-.315.638-.7 1.025-.891.895-3.618 5.002-3.961 5.965a5.226 5.226 0 01-.76 1.332c-.275.33-.976 1.77-1.559 3.2-.584 1.43-1.298 3.14-1.589 3.8-.774 1.761-1.736 4.97-2.038 6.8-.146.88-.51 2.32-.81 3.2-1.987 5.826-1.971 29.781.024 34.4.285.66.631 1.988.768 2.951.449 3.141 1.535 6.133 4.43 12.212 4.304 9.038 12.547 17.942 20.661 22.318 1.723.929 1.92 1.35 1.931 4.119.005 1.32.193 3.93.417 5.8.225 1.87.556 5.059.737 7.086.18 2.027.534 3.934.785 4.237.252.304.625 1.615.83 2.914.385 2.445 1.414 5.915 2.066 6.963.205.33.476.87.602 1.2.721 1.892 2.096 4.824 2.966 6.329l1.4 2.419c3.477 5.989 13.363 15.207 20 18.649.66.342 2.19 1.155 3.4 1.806s2.426 1.187 2.701 1.19c.276.004 1.174.367 1.995.807.82.44 1.804.8 2.185.8.38 0 1.283.258 2.005.573 1.828.797 8.345 2.226 10.188 2.233.839.004 2.606.267 3.926.586 3.288.794 16.603.799 20.2.008 1.43-.315 3.23-.579 4-.587.77-.009 3.47-.562 6-1.228 2.53-.667 5.298-1.393 6.152-1.613.853-.22 1.929-.663 2.389-.986.46-.322 1.151-.586 1.536-.586.643 0 3.299-1.147 4.723-2.04.33-.207 1.185-.645 1.9-.973l1.3-.598v-12.552c0-14.107.028-13.983-2.762-12.078-.791.54-2.319 1.445-3.396 2.011-1.077.565-2.157 1.177-2.4 1.358-1.693 1.26-10.446 4.416-14.442 5.206-1.1.217-2.72.587-3.6.821-3.004.8-14.694.56-17.296-.355-1.252-.44-2.693-.8-3.201-.8-1.267 0-9.017-3.869-9.706-4.845-.112-.159-.867-.816-1.678-1.461-2.162-1.718-5.654-6.081-6.799-8.494-.261-.55-.693-1.27-.96-1.6-.267-.33-.687-1.357-.934-2.283-.246-.926-.623-1.791-.837-1.924-.214-.132-.389-.656-.389-1.164 0-.509-.335-1.983-.745-3.277-2.624-8.284-.502-11.26 4.206-5.899a239.94 239.94 0 003.735 4.147c2.03 2.185 2.663 2.891 8.086 9.018 5.645 6.378 3.65 5.819 20.318 5.691l14.2-.109.118-1.016c.09-.766-.378-1.525-1.9-3.088-1.11-1.14-2.018-2.168-2.018-2.285 0-.117-.598-.797-1.328-1.512-.73-.714-3.468-3.729-6.083-6.699-2.616-2.97-5.785-6.48-7.044-7.8-4.502-4.723-4.615-5.142-1.745-6.486 2.606-1.22 8.409-5.192 10.98-7.514 5.285-4.775 11.817-13.459 12.665-16.839.133-.528.39-.961.571-.961.182 0 .454-.405.605-.9.919-3.012 2.208-5.017 3.079-4.79.993.26 8.156 4.297 9.143 5.153 1.434 1.245 1.573.005 1.463-13.064l-.106-12.505-2.584-1.347c-1.422-.741-2.772-1.35-3-1.353-1.316-.02-1.599-.848-2.076-6.071-.925-10.142-1.35-13.45-1.943-15.133-.329-.93-.597-2.168-.597-2.751 0-.584-.255-1.425-.567-1.87-.312-.446-.695-1.521-.852-2.389-.156-.869-.516-2.03-.8-2.58a343 343 0 01-2.389-4.885c-1.03-2.136-2.125-4.093-2.432-4.349-.308-.255-.56-.647-.56-.871C270 95.483 256.181 82 254.119 82c-.141 0-.54-.243-.888-.541-.812-.695-3.2-1.942-6.231-3.253-1.32-.571-2.91-1.301-3.532-1.622-.623-.321-1.613-.585-2.2-.586-.588-.002-1.608-.285-2.268-.63-.66-.345-2.1-.719-3.2-.832-1.1-.113-2.72-.489-3.6-.835-1.78-.701-22.328-1.111-26.6-.531m25.8 1.201c7.175 1.331 13.979 3.335 15.18 4.47.209.197.783.359 1.276.359s1.019.198 1.169.441c.15.242.836.699 1.524 1.015 8.548 3.922 17.27 13.021 22.196 23.154 2.655 5.462 2.833 5.884 3.11 7.39.142.77.404 1.688.584 2.041.352.692 1.37 5.214 1.972 8.759.205 1.21.553 5.011.773 8.446.497 7.758.333 7.385 3.98 9.056 4.857 2.225 4.436.864 4.436 14.336 0 7.214-.151 11.808-.392 11.957-.381.236-2.007-.435-2.408-.993-.11-.153-.68-.531-1.266-.84-.586-.309-2.185-1.156-3.553-1.883-3.847-2.043-3.598-2.225-7.242 5.321-1.428 2.956-3.167 5.887-5.221 8.8-2.968 4.207-8.794 9.698-13.455 12.679-1.48.947-3.044 1.946-3.477 2.222-.432.275-1.236.693-1.785.928-2.656 1.134-2.94 2.194-1.101 4.114.715.746 2.29 2.486 3.5 3.867 1.21 1.381 2.65 2.995 3.2 3.587.55.591 1.9 2.122 3 3.402 1.1 1.28 2.63 2.974 3.399 3.764 3.31 3.398 8.01 9.011 7.878 9.407-.223.67-27.702.8-28.637.135-.39-.278-2.227-2.215-4.082-4.305s-3.999-4.449-4.765-5.242c-.766-.794-2.203-2.405-3.193-3.58-6.929-8.228-9.258-9.898-10.664-7.647-.569.911.366 8.812 1.27 10.729.327.694.6 1.594.608 2 .007.407.361 1.46.786 2.34.425.88.779 1.893.786 2.251.008.358.277.869.599 1.136.321.267.698.846.838 1.287.755 2.379 6.602 8.949 9.571 10.756 2.687 1.634 3.157 1.899 4.606 2.588 6.75 3.213 21.177 4.209 29.001 2.002 1.209-.341 3.234-.905 4.499-1.253 1.265-.349 3.065-.979 4-1.4a632.85 632.85 0 013.4-1.519c.935-.413 1.97-.872 2.3-1.019.33-.147 1.257-.664 2.061-1.148 3.998-2.412 5.257-3.055 5.583-2.854.425.263.473 23.376.05 24.019-.162.246-1.374.932-2.694 1.525-1.32.593-2.712 1.247-3.094 1.453-6.656 3.595-26.121 6.869-35.506 5.973-2.53-.242-6.345-.593-8.477-.78-2.133-.188-4.057-.453-4.277-.589-.22-.135-1.445-.436-2.723-.668-2.751-.498-9.662-2.797-12.625-4.198-3.061-1.449-7.206-3.699-7.47-4.056-.125-.169-1.237-.967-2.469-1.772-4.48-2.926-11.668-10.71-14.531-15.734-.626-1.1-1.351-2.27-1.609-2.6-.259-.33-.989-1.95-1.624-3.6-.634-1.65-1.388-3.355-1.674-3.789-.287-.434-.521-1.208-.521-1.72s-.253-1.419-.561-2.016c-.309-.597-.688-1.983-.843-3.08-.156-1.097-.536-2.805-.845-3.795-.563-1.801-1.397-14.338-1.044-15.689.308-1.178-.666-2.938-2.029-3.668-3.075-1.645-3.478-1.907-3.478-2.265 0-.208-.188-.378-.417-.378-3.322 0-14.548-13.283-17.919-21.202-.514-1.209-1.279-2.864-1.7-3.677-.42-.814-.764-1.842-.764-2.285 0-.444-.36-1.72-.8-2.836-.44-1.116-.8-2.63-.8-3.365 0-.734-.282-2.122-.627-3.085-1.456-4.067-1.456-26.627.001-30.7.344-.963.626-2.319.626-3.014 0-.695.36-2.288.8-3.54.44-1.252.8-2.568.8-2.924 0-.357.264-1.126.587-1.71.324-.584 1.04-2.173 1.592-3.531.553-1.357 1.548-3.39 2.213-4.517.664-1.127 1.208-2.139 1.208-2.248 0-.279 1.518-2.412 3.393-4.766 4.031-5.062 11.406-11.511 14.166-12.387.462-.147.841-.423.841-.613s.405-.47.9-.62c.495-.151 1.17-.509 1.5-.796.33-.287 1.32-.787 2.2-1.111.88-.324 2.59-.983 3.8-1.464 10.237-4.073 28.324-5.515 40.6-3.238m-95.494 18.048c-18.65.397-18.694.404-18.694 3.181 0 2.397.086 2.431 7.231 2.805 8.839.463 27.254.63 27.865.252.312-.193.492-1.312.492-3.067 0-2.988-.476-3.666-2.474-3.524-.509.036-6.998.195-14.42.353M152.2 95.6v2.6l-10.6-.032c-12.074-.036-12.4-.104-12.4-2.558 0-2.514 1.117-2.717 14.6-2.651l8.4.041v2.6m60.8.187c-.22.067-1.48.349-2.8.626-2.161.452-4.985 1.492-6.6 2.43-.33.192-1.275.714-2.1 1.161-.825.447-1.5.989-1.5 1.204 0 .216-.225.397-.5.403-.616.014-2.048 1.497-4.24 4.389-2.286 3.018-2.139 2.785-3.303 5.219-2.058 4.301-2.257 4.855-3.511 9.781-2.133 8.379-1.925 24.734.406 31.902.411 1.265.749 2.525.75 2.8.003.965 1.962 5.297 2.377 5.258.232-.022.662-.067.957-.1.294-.033.744-.517.998-1.075.503-1.104 1.08-1.877 2.166-2.902.385-.363.703-.846.707-1.072.016-.929 9.132-9.756 11.549-11.18.401-.237 1.52-.966 2.487-1.621 1.807-1.223 2.334-1.527 5.506-3.175 4.232-2.198 13.933-5.428 16.343-5.441.609-.003 2.278-.29 3.708-.638 1.43-.348 4.4-.75 6.6-.894l4-.262.115-2c.127-2.218-1.225-10.91-1.891-12.154-.233-.437-.424-1.101-.424-1.476 0-1.069-3.413-8.317-4.239-9.003-.309-.256-.567-.668-.573-.916-.015-.515-4.558-5.451-5.018-5.451-.167 0-.588-.274-.936-.61-.996-.958-3.619-2.59-4.163-2.59-.271 0-.848-.246-1.282-.547-2.069-1.435-12.958-2.878-15.589-2.066m10.2 1.229c7.862 1.611 12.463 4.75 17.041 11.625.747 1.123 1.359 2.212 1.359 2.42 0 .209.204.583.453.832.451.451 1.505 3.307 2.622 7.107.921 3.132 2.047 12.571 1.546 12.963-.232.181-2.581.433-5.221.562-2.719.131-5.559.502-6.55.854-.963.341-2.328.621-3.033.621-1.942 0-7.998 1.894-11.617 3.633-.88.423-1.832.769-2.116.768-.284-.001-1.004.321-1.6.715-1.746 1.153-2.598 1.633-4.07 2.294-.762.341-1.482.751-1.6.911-.118.159-1.279 1.007-2.58 1.884-2.34 1.578-11.034 9.742-11.034 10.363 0 .176-.69 1.156-1.533 2.176-.843 1.021-1.647 2.171-1.787 2.556-.415 1.141-1.829.871-2.093-.4-.126-.605-.486-1.64-.8-2.3-.315-.66-.69-2.01-.835-3-.145-.99-.504-2.277-.797-2.86-1.252-2.485-1.365-27.082-.132-28.568.198-.238.623-1.59.943-3.003.658-2.897 1.788-6.347 2.297-7.011.186-.243.79-1.29 1.341-2.327 5.376-10.11 17.518-15.332 29.796-12.815m-175.77 7.422c-1.038 1.561-1.812 2.913-1.721 3.004.091.092.7-.69 1.352-1.738a192.069 192.069 0 011.908-3.004c.398-.605.639-1.1.536-1.1-.103 0-1.037 1.277-2.075 2.838m303.601-1.738c.397.605 1.256 1.957 1.908 3.004.652 1.048 1.261 1.83 1.352 1.738.183-.182-3.494-5.842-3.796-5.842-.103 0 .138.495.536 1.1m-307.229 7.75c-.789 1.347-1.35 2.535-1.247 2.639.104.104.588-.594 1.075-1.55.487-.957 1.15-2.144 1.474-2.639.323-.495.486-.9.361-.9s-.873 1.102-1.663 2.45m311.505-.75c.541.935 1.202 2.12 1.47 2.634.269.514.571.852.672.75.211-.211-2.574-5.084-2.906-5.084-.121 0 .223.765.764 1.7m-313.492 4.276c-.97 1.57-2.598 4.974-2.45 5.123.101.1.827-1.095 1.614-2.658 1.191-2.364 1.698-3.86.836-2.465m318.855 5.773c1.705 3.418 3.171 6.144 3.257 6.057.214-.214-5.525-11.758-5.988-12.044-.203-.125 1.027 2.569 2.731 5.987m-234.743 2.646c-8.054.299-8.327.4-8.327 3.064 0 2.425.109 2.45 12.899 2.927 14.842.553 21.221.534 21.821-.066.76-.76.634-5.775-.153-6.077-.775-.298-16.603-.206-26.24.152m26.39 2.642c.173 3.589.684 3.457-11.542 2.992-11.466-.435-11.158-.355-11.169-2.905-.009-2.307 2.048-2.65 15.394-2.568l7.2.044.117 2.437m-115.694-.831c-.863 2.066-.749 2.3.224.456.446-.846.718-1.63.605-1.743-.113-.113-.486.466-.829 1.287m-1.6 3.6c-.863 2.066-.749 2.3.224.456.446-.846.718-1.63.605-1.743-.113-.113-.486.466-.829 1.287m329.031-1.206c-.008.22.501 1.48 1.131 2.8.631 1.32 1.153 2.22 1.161 2 .008-.22-.501-1.48-1.131-2.8-.631-1.32-1.153-2.22-1.161-2M31.015 137.815c-.385 1.009-.611 1.922-.502 2.031.108.109.487-.653.841-1.692.836-2.455.571-2.72-.339-.339m336.997-1.415c0 .33.175.87.388 1.2.345.533.388.533.388 0 0-.33-.175-.87-.388-1.2-.345-.533-.388-.533-.388 0M29.8 141.2c-.15.473-.183.95-.073 1.06.11.11.323-.187.473-.66.15-.473.183-.95.073-1.06-.11-.11-.323.187-.473.66m339.812-.4c0 .33.175.87.388 1.2.345.533.388.533.388 0 0-.33-.175-.87-.388-1.2-.345-.533-.388-.533-.388 0M29 143.6c-.15.473-.183.95-.073 1.06.11.11.323-.187.473-.66.15-.473.183-.95.073-1.06-.11-.11-.323.187-.473.66m341.412-.4c0 .33.175.87.388 1.2.345.533.388.533.388 0 0-.33-.175-.87-.388-1.2-.345-.533-.388-.533-.388 0M28.2 146c-.15.473-.183.95-.073 1.06.11.11.323-.187.473-.66.15-.473.183-.95.073-1.06-.11-.11-.323.187-.473.66m343.012-.4c0 .33.175.87.388 1.2.345.533.388.533.388 0 0-.33-.175-.87-.388-1.2-.345-.533-.388-.533-.388 0m-343.739 2.553c-.15.392-.262 1.013-.248 1.38.017.442.156.341.412-.299.212-.531.324-1.152.248-1.38-.076-.227-.261-.093-.412.299M372.034 148c.012.33.177.96.366 1.4l.344.8.022-.8c.012-.44-.153-1.07-.366-1.4-.345-.533-.385-.533-.366 0m-345.405 3.429c-.148.586-.191 1.143-.097 1.237.095.094.292-.308.439-.895.148-.586.191-1.143.097-1.237-.095-.094-.292.308-.439.895m346.227-.629c0 .33.155.96.344 1.4.217.504.344.578.344.2 0-.33-.155-.96-.344-1.4-.217-.504-.344-.578-.344-.2M130.4 152.019c-12.571.337-12.8.393-12.8 3.124 0 1.696.123 1.998.9 2.212 1.9.526 16.104 1.074 24.9.962l9.2-.117.119-2.736c.191-4.381 2.024-4.098-22.319-3.445m21.817.908c.128.509.177 1.814.108 2.9l-.125 1.973-9.4-.1c-5.17-.055-10.21-.239-11.2-.409l-1.8-.309-.12-1.855c-.149-2.285-.031-2.324 8.12-2.724 12.116-.595 14.155-.521 14.417.524m-126.388 1.302c-.148.586-.191 1.143-.097 1.237.095.094.292-.308.439-.895.148-.586.191-1.143.097-1.237-.095-.094-.292.308-.439.895m347.805-.429c-.012.44.153 1.07.366 1.4.514.795.514-.204 0-1.4l-.344-.8-.022.8M25 157.6c-.152.691-.193 1.341-.091 1.442.102.102.3-.389.441-1.092.333-1.667.01-1.99-.35-.35m349.456-.6c0 .44.155 1.16.344 1.6l.344.8v-.8c0-.44-.155-1.16-.344-1.6l-.344-.8v.8m-134.676.152c-.209.193-1.087.578-1.952.854-1.47.471-5.8 2.826-6.934 3.772-7.44 6.203-12.174 14.224-8.394 14.22 5.355-.005 13.926-5.271 17.36-10.665.396-.623.95-1.277 1.23-1.453.281-.176.51-.597.51-.937 0-.339.36-1.074.8-1.634.44-.559.8-1.432.8-1.939 0-.508.18-1.034.4-1.17.22-.136.4-.507.4-.824 0-.653-3.552-.842-4.22-.224m3.02 1.078c0 1.074-2.992 6.533-3.886 7.09-.283.176-.514.498-.514.716 0 .96-6.853 6.764-7.987 6.764-.393 0-.93.258-1.192.574-.262.316-1.049.691-1.749.833-.699.142-2.219.548-3.377.901-2.082.634-3.942.194-2.637-.625.249-.155.739-.913 1.089-1.683 2.598-5.71 12.268-14.334 16.162-14.414.38-.008 1.141-.272 1.691-.586 1.581-.904 2.4-.757 2.4.43m-218.622 2.748c-.151.803-.184 1.549-.074 1.659.11.11.323-.456.474-1.259.15-.803.184-1.55.074-1.66-.11-.11-.324.457-.474 1.26m351.068-.578c.019.33.178 1.05.354 1.6l.32 1 .034-1c.019-.55-.141-1.27-.354-1.6-.345-.533-.384-.533-.354 0m-351.868 4.178c-.151.803-.184 1.549-.074 1.659.11.11.323-.456.474-1.259.15-.803.184-1.55.074-1.66-.11-.11-.324.457-.474 1.26m352.69-.778c.006.44.156 1.25.332 1.8l.32 1 .012-1c.006-.55-.143-1.36-.332-1.8l-.344-.8.012.8m-353.468 5c-.154.91-.189 1.744-.079 1.854.11.11.325-.544.479-1.454.154-.91.189-1.744.079-1.854-.11-.11-.325.544-.479 1.454m354.287-.8c.004.55.145 1.54.313 2.2l.305 1.2.008-1.2c.004-.66-.137-1.65-.313-2.2l-.32-1 .007 1m-355.005 5.15c-.155.743-.262 1.822-.238 2.4.029.692.166.437.403-.75.198-.99.305-2.07.238-2.4-.066-.33-.247.008-.403.75m355.805-.15c.004.66.145 1.74.313 2.4l.305 1.2.008-1.4c.004-.77-.137-1.85-.313-2.4-.311-.97-.32-.965-.313.2M21 180c-.156 1.347-.194 2.539-.084 2.649.11.11.328-.902.484-2.249.156-1.347.194-2.539.084-2.649-.11-.11-.328.902-.484 2.249m357.47-1c-.013.66.125 1.92.307 2.8l.331 1.6-.001-1.6c-.001-.88-.139-2.14-.307-2.8l-.305-1.2-.025 1.2m-252.87 3.026c-6.637.407-7.2.637-7.2 2.94 0 2.751.876 2.879 23.2 3.376 14.974.334 16.84.239 16.768-.856-.023-.366-.081-.363-.233.014-.311.771-20.088.345-24.771-.533-1.612-.302-1.967-2.297-.626-3.511.888-.803 9.139-1.435 18.919-1.448 7.022-.009 6.694-.16 6.807 3.125.054 1.585.089 1.66.231.494.092-.755.055-1.97-.082-2.7l-.249-1.327-13.882.059c-7.635.033-16.132.198-18.882.367M20.284 188.2c-.153 1.54-.253 4.78-.221 7.2.055 4.235.069 4.152.395-2.2.364-7.086.277-9.555-.174-5m359.223 4.2c.112 3.85.269 7.075.348 7.167.271.312.067-9.759-.243-11.967-.175-1.252-.22.816-.105 4.8M20.04 205.033c.021 2.842.177 6.157.346 7.367.172 1.235.218-.958.105-5-.236-8.406-.509-9.837-.451-2.367m359.643-1.433c-.048 2.09-.169 5.33-.268 7.2l-.181 3.4.394-2.8c.216-1.54.337-4.78.268-7.2l-.125-4.4-.088 3.8M146.2 211.636c-21.128.463-24.702.985-24.923 3.638-.26 3.135 7.05 3.887 38.036 3.912 19.113.016 17.292.443 17.261-4.051-.031-4.484 2.3-4.215-30.374-3.499m29.6 3.764v3.2l-9.8-.07c-10.357-.073-20.918-.725-23.97-1.478-2.195-.542-2.989-2.732-1.152-3.178 4.357-1.057 15.895-1.782 27.322-1.717l7.6.043v3.2m202.84 3.531c-.171 1.503-.219 2.823-.108 2.934.279.279.785-3.984.583-4.912-.09-.414-.304.476-.475 1.978M20.893 218.2c.001.88.139 2.14.307 2.8l.305 1.2.025-1.2c.013-.66-.125-1.92-.307-2.8l-.331-1.6.001 1.6m.793 6.6c-.003.77.138 1.85.314 2.4.45 1.404.465-.063.023-2.2l-.331-1.6-.006 1.4m356.132.726c-.165 1.169-.205 2.22-.089 2.336.285.285.802-3.275.571-3.937-.1-.289-.318.432-.482 1.601M377 230.4c-.154.91-.189 1.744-.079 1.854.11.11.325-.544.479-1.454.154-.91.189-1.744.079-1.854-.11-.11-.325.544-.479 1.454M22.48 230c0 .55.144 1.45.32 2l.32 1v-1c0-.55-.144-1.45-.32-2l-.32-1v1m.788 4.4c-.006.55.143 1.36.332 1.8l.344.8-.012-.8c-.006-.44-.156-1.25-.332-1.8l-.32-1-.012 1m352.954.622c-.15.803-.184 1.55-.074 1.66.11.11.324-.457.474-1.26.151-.803.184-1.549.074-1.659-.11-.11-.323.456-.474 1.259M24.056 238.2c0 .44.155 1.16.344 1.6l.344.8v-.8c0-.44-.155-1.16-.344-1.6l-.344-.8v.8m351.344.6c-.152.691-.186 1.347-.076 1.457.11.11.324-.366.476-1.057.152-.691.186-1.347.076-1.457-.11-.11-.324.366-.476 1.057m-350.544 3c0 .44.155 1.16.344 1.6l.344.8v-.8c0-.44-.155-1.16-.344-1.6l-.344-.8v.8m125.899-.185c-23.898.516-28.276 1.208-27.732 4.385.468 2.738 1.31 2.804 37.177 2.914l28 .086.117-3.095c.201-5.34 1.93-5.143-37.562-4.29m223.845.785c-.152.691-.186 1.347-.076 1.457.11.11.324-.366.476-1.057.152-.691.186-1.347.076-1.457-.11-.11-.324.366-.476 1.057m-186.785.517c.126.504.175 1.989.107 3.3l-.122 2.383-9.8.114c-9.709.112-29.582-.491-31.7-.962-1.352-.301-1.687-3.441-.418-3.928 1.662-.638 21.391-1.673 33.61-1.764l8.093-.06.23.917M25.634 245c-.012.44.153 1.07.366 1.4.514.795.514-.204 0-1.4l-.344-.8-.022.8m348.195.429c-.148.586-.178 1.155-.068 1.265.11.11.32-.279.468-.865.147-.587.177-1.156.067-1.266-.11-.11-.32.279-.467.866M26.434 247.8c-.012.44.153 1.07.366 1.4.514.795.514-.204 0-1.4l-.344-.8-.022.8m346.595.429c-.148.586-.178 1.155-.068 1.265.11.11.32-.279.468-.865.147-.587.177-1.156.067-1.266-.11-.11-.32.279-.467.866M27.234 250.6c-.012.44.153 1.07.366 1.4.514.795.514-.204 0-1.4l-.344-.8-.022.8m344.995.429c-.148.586-.178 1.155-.068 1.265.11.11.32-.279.468-.865.147-.587.177-1.156.067-1.266-.11-.11-.32.279-.467.866M29.612 258.4c0 .33.175.87.388 1.2.345.533.388.533.388 0 0-.33-.175-.87-.388-1.2-.345-.533-.388-.533-.388 0m4.042 10.2c-.008.22.501 1.48 1.131 2.8.631 1.32 1.153 2.22 1.161 2 .008-.22-.501-1.48-1.131-2.8-.631-1.32-1.153-2.22-1.161-2m331.801 1.255c-.379.794-.602 1.531-.496 1.638.107.106.477-.484.823-1.311.816-1.953.567-2.202-.327-.327M36.8 275.781c0 .454 4.813 9.944 5.284 10.419.354.357-4.75-10.158-5.129-10.567-.085-.091-.155-.025-.155.148m323.52 5.139c-1.466 2.897-2.599 5.334-2.517 5.416.082.082 1.34-2.229 2.797-5.136s2.589-5.344 2.517-5.416c-.072-.072-1.331 2.239-2.797 5.136m-126.815-1.837c.497.096 1.217.092 1.6-.008.382-.1-.025-.179-.905-.174-.88.004-1.193.086-.695.182m36.795-.001a5.661 5.661 0 001.8 0c.495-.095.09-.173-.9-.173s-1.395.078-.9.173m-153.233.385c-.571.57-.228.94.507.547.83-.444 21.075-.6 22.193-.171.784.3.896 3.584.133 3.892-.299.121-.218.215.2.233.976.044 1.039-4.152.067-4.525-.865-.332-22.767-.31-23.1.024m112.333.133c-.504.217-.578.344-.2.344.33 0 .96-.155 1.4-.344.504-.217.578-.344.2-.344-.33 0-.96.155-1.4.344m9.393.402c1.206.41 2.248.69 2.316.622.216-.215-3.094-1.425-3.817-1.396-.381.015.295.364 1.501.774M266 279.6c-.795.514.204.514 1.4 0l.8-.344-.8-.022c-.44-.012-1.07.153-1.4.366m8.6 0c1.196.514 2.195.514 1.4 0-.33-.213-.96-.378-1.4-.366l-.8.022.8.344m-48.88 1.794c-1.986 1.337-3.494 2.987-4.484 4.906-.82 1.59-.159.961 1.175-1.117 1.184-1.845 4.159-4.383 5.137-4.383.223 0 .516-.18.652-.4.464-.751-.409-.401-2.48.994m37.058-.264c-2.1 1.335-4.061 3.481-5.176 5.665-1.245 2.442-.93 2.464.412.029 1.571-2.851 2.134-3.452 4.948-5.285 1.299-.847 2.189-1.539 1.978-1.539-.211 0-1.184.508-2.162 1.13m15.23-.35c1.795.95 3.412 2.548 4.853 4.798 1.135 1.772 1.558 1.958.674.296-1.348-2.534-5.153-5.925-6.57-5.856-.201.009.268.352 1.043.762m-34.053 2.327c1.253 1.261 2.601 2.983 2.996 3.825.394.843.805 1.445.913 1.338.59-.59-3.715-6.134-5.509-7.094-.373-.2.347.669 1.6 1.931m-40.277 2.974l-.078 3.081-2.5.119-2.5.119-.126 1.528c-.176 2.139.416 2.672 2.968 2.672h2.143l.115 9.3.115 9.3.093-9.5.092-9.5h-2.151c-4.075 0-4.572-3.31-.529-3.521 2.72-.141 2.768-.213 2.578-3.919l-.141-2.76-.079 3.081M232.4 283.6c-.7.224-.159.318 1.8.313 2.08-.006 2.491-.086 1.6-.313-1.544-.393-2.173-.393-3.4 0m35.4.083c-2.59.905-6.229 4.844-6.185 6.695.008.342.47-.32 1.027-1.472 1.845-3.812 5.406-5.673 9.889-5.168 1.37.155 1.799.113 1.269-.124-1.085-.485-4.528-.446-6 .069m-58.83 2.717l.03 3 2.4.2c4.223.352 3.774 3.581-.5 3.594l-2.1.006v9.576c0 5.267.135 9.66.3 9.763.165.102.249-4.118.186-9.377l-.114-9.562 2.114-.006c2.83-.008 3.193-.299 3.04-2.434l-.126-1.76-2.483-.119-2.483-.118-.147-2.882-.148-2.881.031 3m-86.88 3.9l.11 6.3 7.8.2 7.8.2v3.6l-7.8.2-7.8.2-.2 8.301c-.11 4.565-.065 8.3.1 8.3.165-.001.3-3.691.3-8.201v-8.2h7.52c8.292 0 8.48-.053 8.48-2.4 0-2.348-.186-2.4-8.5-2.4h-7.539l.119-6.201c.066-3.41-.02-6.2-.19-6.2-.171.001-.261 2.836-.2 6.301m116.373-5.492c.805.425 2.039 1.453 2.742 2.283.703.83 1.082 1.149.843.709-.942-1.734-3.427-3.818-4.51-3.782-.296.009.12.365.925.79m36.913-.195c.428.323.919.587 1.092.587.174 0 .858.945 1.52 2.1.663 1.155 1.206 1.936 1.208 1.735.008-.772-2.011-3.753-2.966-4.378-1.24-.813-1.916-.848-.854-.044m-47.193.896c-.45.38-1.072 1.051-1.383 1.491-.311.44.102.18.917-.578 1.34-1.246 1.677-1.639 1.383-1.613-.055.005-.468.32-.917.7M42.409 287.1c.005.165.376.75.824 1.3l.815 1-.634-1.3c-.603-1.235-1.025-1.655-1.005-1m314.191.9c-.341.66-.531 1.2-.421 1.2.11 0 .48-.54.821-1.2.341-.66.531-1.2.421-1.2-.11 0-.48.54-.821 1.2m-72.544 0c0 .33.155.96.344 1.4.217.504.344.578.344.2 0-.33-.155-.96-.344-1.4-.217-.504-.344-.578-.344-.2m-58.67 1.227c-.349.675-.579 1.387-.51 1.582.068.195.426-.358.794-1.227.795-1.876.617-2.098-.284-.355M152.6 289.2c-1.019.438.032.438 1.4 0 .804-.257.843-.323.2-.332-.44-.006-1.16.143-1.6.332m5.433-.253c.092.081.887.257 1.767.391 1.115.169 1.358.133.8-.119-.768-.348-2.91-.575-2.567-.272M181 289.2c-1.019.438.032.438 1.4 0 .804-.257.843-.323.2-.332-.44-.006-1.16.143-1.6.332m6.2 0c.55.176 1.36.326 1.8.332l.8.012-.8-.344c-.44-.189-1.25-.338-1.8-.332l-1 .012 1 .32m60.856 0c0 .33.155.96.344 1.4.217.504.344.578.344.2 0-.33-.155-.96-.344-1.4-.217-.504-.344-.578-.344-.2m8.173 1.029c-.148.586-.191 1.143-.097 1.237.095.094.292-.308.439-.895.148-.586.191-1.143.097-1.237-.095-.094-.292.308-.439.895m-212.22-.329c.005.165.376.75.824 1.3l.815 1-.634-1.3c-.603-1.235-1.025-1.655-1.005-1m105.357.687c-1.66.995-4.099 4.013-3.625 4.487.142.143.259.063.259-.177 0-.765 2.125-2.994 3.97-4.164 2.185-1.386 1.671-1.51-.604-.146m13.7.067c.894.58 1.938 1.583 2.319 2.228.381.645.785 1.081.898.969.366-.367-1.463-2.574-2.837-3.423-1.96-1.211-2.292-1.013-.38.226m14.65.108c-1.63 1.181-3.325 3.482-3.305 4.485.006.304.422-.257.923-1.247.581-1.149 1.607-2.27 2.834-3.1 1.057-.715 1.749-1.3 1.537-1.3-.212 0-1.107.523-1.989 1.162m41.713-.133c-.148.586-.191 1.143-.097 1.237.095.094.292-.308.439-.895.148-.586.191-1.143.097-1.237-.095-.094-.292.308-.439.895m59.795-.429c-.012.848.619 2.106.898 1.788.09-.103-.072-.728-.361-1.388-.398-.91-.528-1.007-.537-.4m75.762.7l-.634 1.3.815-1c.785-.963 1.041-1.6.643-1.6-.104 0-.475.585-.824 1.3m-162.286.681c3.284 3.183 3.518 5.772.538 5.942-1.447.082-2.284-.05-2.531-.4-.287-.407-.332-.39-.206.077.177.658 2.944 1.026 4.595.612 1.691-.425-.152-5.28-2.58-6.795-1.044-.652-1.032-.616.184.564m50.546-.381c.019.33.178 1.05.354 1.6l.32 1 .034-1c.019-.55-.141-1.27-.354-1.6-.345-.533-.384-.533-.354 0m17.807 1.236c-.139.695-.23 1.917-.202 2.714.034.98.159.613.384-1.132.354-2.735.242-3.705-.182-1.582m-36.797.048c-.135.504-.228 1.366-.207 1.916.023.589.182.271.387-.775.367-1.873.237-2.698-.18-1.141M249 298.542c0 3.905.117 6.686.26 6.179.332-1.176.326-10.542-.007-12.1-.139-.649-.253 2.016-.253 5.921m-203.4-5.937c0 .294 3.685 5.795 3.882 5.795.192 0 .097-.167-1.989-3.5-1.434-2.291-1.893-2.848-1.893-2.295m209.785 3.236c-.157 1.892-.12 4.727.083 6.3.336 2.603.372 2.294.403-3.441.04-7.142-.074-7.807-.486-2.859m97.122-.941c-2.088 3.336-2.181 3.5-1.987 3.5.19 0 2.705-3.741 3.429-5.1.966-1.815.079-.83-1.442 1.6m-199.7-1.248c-1.396.851-2.37 1.86-2.394 2.479-.007.182.443-.211 1-.874 1.28-1.521 3.323-2.203 5.867-1.959 1.163.112 1.766.051 1.454-.147-1.057-.67-4.481-.38-5.927.501m29.593-.449c-.413.269-.022.315 1.25.147 2.375-.315 4.447.374 5.737 1.907 1.014 1.206 1.424 1.117.493-.106-1.477-1.941-5.775-3.059-7.48-1.948m36.254 1.453c-.326 2.382-.288 6.692.077 8.744.171.96.285-.842.286-4.5.001-6.789-.004-6.857-.363-4.244m-58.255-.058c.515.55 1.026.911 1.133.803.266-.266-1.153-1.801-1.664-1.801-.224 0 .015.449.531.998m19.628.164c-1.259 1.768-.475 5.238 1.184 5.238.194 0-.089-.442-.629-.982-1.417-1.417-1.161-3.566.583-4.905.377-.289.443-.493.162-.5-.26-.007-.845.51-1.3 1.149m-13.593.038c.012.33.177.96.366 1.4l.344.8.022-.8c.012-.44-.153-1.07-.366-1.4-.345-.533-.385-.533-.366 0m77.708 3.8c-.001 1.98.066 2.84.15 1.912.084-.928.085-2.548.003-3.6-.083-1.052-.152-.292-.153 1.688m-98.838-2.2c.095.988 5.095 1.89 5.097.919 0-.175-.99-.257-2.2-.182-1.991.124-2.237.048-2.596-.8l-.397-.937.096 1m16.562 1.5l.245 2.1-2.155.04c-4.798.088-6.915.642-2.689.704 2.127.031 4.152-.053 4.5-.187.719-.276.883-3.148.237-4.157-.257-.402-.303.093-.138 1.5m-111.631 1.958c2.874 4.726 13.51 18.493 14.314 18.527.192.008-.628-1.11-1.822-2.485-2.667-3.071-6.55-8.122-9.919-12.9-2.702-3.832-3.832-5.212-2.573-3.142m299.202-.058c-.361.55-.5 1-.31 1 .189 0 .55-.45.8-1 .251-.55.39-1 .31-1-.08 0-.44.45-.8 1m-173.663 1.752c1.001 1.131 3.397 2.61 3.714 2.294.135-.135.049-.246-.191-.246s-1.305-.657-2.366-1.461c-1.062-.803-1.583-1.067-1.157-.587M185 301.2c.44.189 1.07.344 1.4.344.378 0 .304-.127-.2-.344-.44-.189-1.07-.344-1.4-.344-.378 0-.304.127.2.344m75.828 1.633c.016.972.186 2.127.38 2.567.223.508.266-.076.116-1.6-.284-2.901-.534-3.388-.496-.967m85.738 1.067c-12.365 17.534-28.456 33.1-47.142 45.605-6.957 4.656-7.994 5.403-6.224 4.485 15.863-8.224 41.914-32.513 53.939-50.29 2.268-3.354 1.824-3.198-.573.2M148.6 302.348c-1.483.922-3.219 2.767-2.901 3.085.13.129.444-.152.697-.626.254-.473 1.293-1.389 2.311-2.034 1.017-.645 1.679-1.172 1.471-1.172-.208.001-.918.337-1.578.747M188 302c.33.213.87.388 1.2.388.533 0 .533-.043 0-.388-.33-.213-.87-.388-1.2-.388-.533 0-.533.043 0 .388m36.04 1.033c.022.642.193 1.617.38 2.167.229.674.264.349.108-1-.259-2.25-.549-2.941-.488-1.167m-32.154.571c2.075 1.19 2.688 1.907 3.584 4.196.352.899.476 1 .498.4.065-1.782-3.931-5.812-5.746-5.796-.232.002.517.542 1.664 1.2M243.447 305c-.734 3.784-2.679 6.487-5.647 7.848-.88.404-1.32.738-.978.743 2.812.04 7.722-6.533 7.087-9.488-.083-.387-.291.017-.462.897M154 304.396c-.401.256.13.302 1.6.138 1.21-.135 2.275-.311 2.367-.39.391-.338-3.423-.096-3.967.252m7.5-.131c.884.357.642 5.196-.333 6.673l-.833 1.262 1.031-1.2c1.329-1.546 1.592-7.025.335-6.968-.418.018-.499.112-.2.233m-10.659 1.949c-1.254 1.428-1.76 4.218-.865 4.771.221.137.29-.309.168-1.076-.291-1.825.407-3.369 1.946-4.307.786-.48 1.047-.8.651-.801-.362 0-1.217.635-1.9 1.413M183 305.2c.44.189 1.16.344 1.6.344h.8l-.8-.344c-.44-.189-1.16-.344-1.6-.344h-.8l.8.344m98.3.287a8.899 8.899 0 002.2 0c.605-.092.11-.167-1.1-.167-1.21 0-1.705.075-1.1.167m-61.903 1.113c.344 1.578 1.76 4.777 2.005 4.531.106-.106-.166-.935-.605-1.842-.438-.908-.8-1.884-.803-2.17-.003-.285-.198-.789-.432-1.119-.324-.455-.363-.31-.165.6m36.637-.4c-.012.44.153 1.07.366 1.4.514.795.514-.204 0-1.4l-.344-.8-.022.8m23.433-.333c-.147.146-.256.641-.242 1.1.024.766.057.756.409-.125.392-.979.31-1.453-.167-.975m-90.581 1.228c2.33 1.445 2.307 4.629-.041 5.905-.575.312-.898.575-.719.584 1.47.072 3.301-2.627 2.89-4.261-.266-1.062-2.046-2.93-2.774-2.912-.243.005.047.313.644.684m59.314.105c-.15.473-.183.95-.073 1.06.11.11.323-.187.473-.66.15-.473.183-.95.073-1.06-.11-.11-.323.187-.473.66m13.404-.382c-.006.994 2.506 4.853 3.596 5.521.78.479.701.311-.361-.763-.748-.757-1.781-2.276-2.296-3.376-.514-1.1-.937-1.722-.939-1.382m22.625 1.411c-.148.586-.178 1.155-.068 1.265.11.11.32-.279.468-.865.147-.587.177-1.156.067-1.266-.11-.11-.32.279-.467.866m-58.116 1.172c.333.66 1.017 1.56 1.52 2 .754.658.712.517-.237-.801-1.62-2.25-1.983-2.589-1.283-1.199m20.965.804c-.366.767-.583 1.395-.482 1.395.274 0 1.488-2.449 1.305-2.632-.087-.087-.457.47-.823 1.237m30.345.816c-.377.575-1.436 1.387-2.354 1.804-.918.416-1.435.761-1.149.766 1.275.022 4.971-2.834 4.402-3.402-.117-.118-.522.257-.899.832m5.041 1.237c-.734 1.198-2.039 2.644-2.9 3.213-1.759 1.164-2.173 1.808-.464.722 1.805-1.147 2.918-2.295 3.987-4.111 1.486-2.527.941-2.373-.623.176m-86.979-.648c-.369 1.81-2.255 4.095-4.104 4.972-.795.378-1.358.774-1.251.882 1.135 1.134 6.102-4.356 5.781-6.391-.104-.661-.208-.53-.426.537m62.136-1.064c-.036.595 2.648 4.012 3.842 4.892 1.471 1.084 3.764 2.268 3.978 2.054.092-.092-.556-.493-1.441-.892-1.531-.69-4.222-3.248-5.68-5.4-.373-.55-.687-.844-.699-.654m-84.003.819c-.083 1.698 4.59 6.271 6.351 6.215.347-.011-.125-.387-1.05-.835-2.011-.976-3.528-2.425-4.539-4.337-.41-.775-.753-1.244-.762-1.043m-28.802.555c-.114 3.715 8.026 7.84 12.263 6.215.586-.225-.282-.338-2.6-.338-4.857-.001-7.053-1.198-8.866-4.832-.43-.861-.788-1.331-.797-1.045m6.687.78c.518.495 1.157.895 1.419.888.263-.007.118-.212-.322-.456a17.797 17.797 0 01-1.42-.888c-.34-.244-.195-.039.323.456m70.796-.1a11.722 11.722 0 003.901 3.578c1.17.666 1.175.665.2-.027-.55-.391-1.883-1.619-2.962-2.731-1.134-1.168-1.615-1.514-1.139-.82m-63.899.2c-.77.422-1.256.774-1.08.783.424.022 2.68-1.151 2.68-1.393 0-.262-.023-.253-1.6.61m70.4-.581c0 .294 2.449 1.431 2.809 1.305.195-.068-.358-.426-1.227-.794-.87-.369-1.582-.599-1.582-.511m15.868 1.41c-1.865 1.982-1.788 2.219 1.493 4.644 2.946 2.178 3.157 2.82 1.408 4.291-1.551 1.306-1.475 1.313-3.811-.398l-1.958-1.434 1.8 1.622c2.239 2.018 2.666 2.026 4.56.087 1.768-1.81 1.805-1.731-2.307-4.836-2.444-1.846-2.563-2.05-1.634-2.82.627-.521 2.342-2.786 2.108-2.784-.07 0-.816.733-1.659 1.628m-77.44.004c.016.752.192 1.727.392 2.167.245.539.285.146.121-1.2-.29-2.381-.552-2.876-.513-.967m36.792.008c-.069 2.231 3.357 4.757 6.454 4.758 3.28.001 3.926-.458 3.926-2.789v-2.01l-1.9.07-1.9.07 1.7.153 1.7.153v1.759c0 3.755-7.209 2.865-9.147-1.129-.447-.922-.822-1.388-.833-1.035m-49.52.235c.385.1 1.015.1 1.4 0 .385-.101.07-.183-.7-.183s-1.085.082-.7.183m28.5.15c.44.175 1.34.318 2 .318.66 0 1.56-.143 2-.318.51-.202-.214-.317-2-.317s-2.51.115-2 .317m86.507-.136c.719.089 1.799.087 2.4-.004s.013-.164-1.307-.162c-1.32.002-1.812.077-1.093.166M160.8 316.036c-.664.543-.731.679-.2.404 1.305-.674 2.028-1.228 1.6-1.225-.22.002-.85.371-1.4.821m-42.295 1.851c.609.092 1.509.09 2-.005.492-.095-.005-.171-1.105-.168-1.1.003-1.503.081-.895.173m45.995 0a8.899 8.899 0 002.2 0c.605-.092.11-.167-1.1-.167-1.21 0-1.705.075-1.1.167m17.015.185c.377.149 1.945.272 3.485.272 1.54 0 3.108-.123 3.485-.272.377-.15-1.191-.272-3.485-.272-2.294 0-3.862.122-3.485.272m49.408.059c.483.181 2.324.271 4.093.2 3.126-.127 3.262-.094 4.9 1.203.926.733 1.68 1.183 1.675 1-.037-1.461-3.383-2.679-7.432-2.706-2.576-.018-3.785.095-3.236.303m35.953-.071c1.231.347 6.745.355 7.608.012.376-.15-1.39-.272-3.924-.272s-4.192.117-3.684.26m-198.969 4.178c2.583 2.877 8.079 8.23 13.925 13.562.672.614 5.205 4.293 8.768 7.118 3.484 2.761 9.653 7.016 9.266 6.389-.132-.214-1.641-1.353-3.353-2.53-8.043-5.531-15.901-12.239-25.145-21.463-4.364-4.355-5.58-5.436-3.461-3.076m32.493 27.457c0 .206 4.857 3.484 6.3 4.254 1.867.994.797.058-1.8-1.576a472.102 472.102 0 01-3.6-2.282c-.495-.321-.9-.499-.9-.396m7.8 5.007c.22.238 1.48 1.011 2.8 1.719 1.32.708 2.22 1.102 2 .877-.553-.567-5.296-3.132-4.8-2.596m180.279 1.557c-1.827 1.008-3.249 1.904-3.162 1.992.171.17 6.683-3.429 6.683-3.694 0-.242.009-.246-3.521 1.702m-173.279 2.34c0 .265 8.848 4.686 9.025 4.509.078-.077-1.921-1.168-4.442-2.422-2.521-1.255-4.583-2.194-4.583-2.087M280 360.8c-2.53 1.297-4.462 2.368-4.293 2.379.425.029 9.093-4.34 9.093-4.582 0-.273.282-.403-4.8 2.203m-155.2 2.595c0 .21 2.735 1.416 3.149 1.388.321-.021-2.448-1.544-2.849-1.566-.165-.009-.3.071-.3.178m148.4.605c-.77.422-1.287.774-1.149.783.414.028 3.149-1.178 3.149-1.388 0-.349-.575-.175-2 .605m-144.8.995c0 .21 2.735 1.416 3.149 1.388.321-.021-2.448-1.544-2.849-1.566-.165-.009-.3.071-.3.178m141.2.605c-.77.422-1.287.774-1.149.783.414.028 3.149-1.178 3.149-1.388 0-.349-.575-.175-2 .605m-137.2 1.2c.33.213.87.388 1.2.388.533 0 .533-.043 0-.388-.33-.213-.87-.388-1.2-.388-.533 0-.533.043 0 .388m134 0c-.533.345-.533.388 0 .388.33 0 .87-.175 1.2-.388.533-.345.533-.388 0-.388-.33 0-.87.175-1.2.388M140.8 370c.33.213.87.388 1.2.388.533 0 .533-.043 0-.388-.33-.213-.87-.388-1.2-.388-.533 0-.533.043 0 .388m117 0l-.8.344.8.022c.44.012 1.07-.153 1.4-.366.795-.514-.204-.514-1.4 0m-114.6.8c.33.213.96.378 1.4.366l.8-.022-.8-.344c-1.196-.514-2.195-.514-1.4 0m112.2 0c-.771.331-.769.345.076.372.482.015.988-.152 1.124-.372.292-.473-.099-.473-1.2 0m-107 1.6c.33.213.96.378 1.4.366l.8-.022-.8-.344c-1.196-.514-2.195-.514-1.4 0m101.8 0l-.8.344.8.022c.44.012 1.07-.153 1.4-.366.795-.514-.204-.514-1.4 0m-99 .8c.33.213.96.378 1.4.366l.8-.022-.8-.344c-1.196-.514-2.195-.514-1.4 0m96.2 0l-.8.344.8.022c.44.012 1.07-.153 1.4-.366.795-.514-.204-.514-1.4 0m-93.2.8c.44.189 1.07.344 1.4.344.378 0 .304-.127-.2-.344-.44-.189-1.07-.344-1.4-.344-.378 0-.304.127.2.344m90.4 0c-.504.217-.578.344-.2.344.33 0 .96-.155 1.4-.344.504-.217.578-.344.2-.344-.33 0-.96.155-1.4.344m-87.4.8c.33.213.96.378 1.4.366l.8-.022-.8-.344c-1.196-.514-2.195-.514-1.4 0m84.2 0l-.8.344.8.022c.44.012 1.07-.153 1.4-.366.795-.514-.204-.514-1.4 0m-80.8.8c.44.189 1.16.338 1.6.332.643-.009.604-.075-.2-.332-1.368-.438-2.419-.438-1.4 0m77.4 0c-.804.257-.843.323-.2.332.44.006 1.16-.143 1.6-.332 1.019-.438-.032-.438-1.4 0m-74.2.8c.44.189 1.16.338 1.6.332.643-.009.604-.075-.2-.332-1.368-.438-2.419-.438-1.4 0m70.8 0l-.8.344h.8c.44 0 1.16-.155 1.6-.344l.8-.344h-.8c-.44 0-1.16.155-1.6.344m-67 .8c.55.176 1.45.32 2 .32h1l-1-.32c-.55-.176-1.45-.32-2-.32h-1l1 .32m62.8 0l-1 .32h1c.55 0 1.45-.144 2-.32l1-.32h-1c-.55 0-1.45.144-2 .32m-58.4.8c.55.176 1.63.317 2.4.314l1.4-.006-1.6-.331c-2.137-.442-3.604-.427-2.2.023m53.6 0l-1.4.295 1.4.012c.77.008 1.85-.131 2.4-.307l1-.32-1 .013c-.55.007-1.63.145-2.4.307m-47.4.823c.88.182 2.23.321 3 .308l1.4-.023-1.6-.331c-.88-.182-2.23-.321-3-.308l-1.4.023 1.6.331m40.6-.023l-1.4.295 1.4.029c.77.017 2.12-.119 3-.301l1.6-.331-1.6.007c-.88.003-2.23.139-3 .301m-31.6.81c2.208.312 11.879.517 11.567.245-.092-.079-3.227-.237-6.967-.35-3.925-.118-5.87-.074-4.6.105m18.4-.01l-4.6.24 4.8.041c2.64.022 5.79-.097 7-.264l2.2-.304-2.4.023c-1.32.013-4.47.132-7 .264" fill="#9998a9"/><path d="M198.3 19.893c.935.084 2.465.084 3.4 0s.17-.153-1.7-.153c-1.87 0-2.635.069-1.7.153m-11.595.39c.497.096 1.217.092 1.6-.008.382-.1-.025-.179-.905-.174-.88.004-1.193.086-.695.182m25.2 0c.497.096 1.217.092 1.6-.008.382-.1-.025-.179-.905-.174-.88.004-1.193.086-.695.182m-29.205.399a5.661 5.661 0 001.8 0c.495-.095.09-.173-.9-.173s-1.395.078-.9.173m32.8 0a5.661 5.661 0 001.8 0c.495-.095.09-.173-.9-.173s-1.395.078-.9.173M171.6 22c-.792.254-.833.32-.2.32.44 0 1.25-.144 1.8-.32.792-.254.833-.32.2-.32-.44 0-1.25.144-1.8.32m64.6 1.6c.44.189 1.07.344 1.4.344.378 0 .304-.127-.2-.344-.44-.189-1.07-.344-1.4-.344-.378 0-.304.127.2.344m-77.2.8c-.504.217-.578.344-.2.344.33 0 .96-.155 1.4-.344.504-.217.578-.344.2-.344-.33 0-.96.155-1.4.344m80.8 0c.44.189 1.07.344 1.4.344.378 0 .304-.127-.2-.344-.44-.189-1.07-.344-1.4-.344-.378 0-.304.127.2.344m-84.4.8c-.504.217-.578.344-.2.344.33 0 .96-.155 1.4-.344.504-.217.578-.344.2-.344-.33 0-.96.155-1.4.344m88 0c.44.189 1.07.344 1.4.344.378 0 .304-.127-.2-.344-.44-.189-1.07-.344-1.4-.344-.378 0-.304.127.2.344m67.144 32.709c.316.512 2.656 2.244 2.656 1.966 0-.099-.661-.684-1.468-1.3-.808-.616-1.343-.916-1.188-.666M78.386 67.1L76.2 69.4l2.3-2.186c2.137-2.032 2.483-2.414 2.186-2.414-.062 0-1.097 1.035-2.3 2.3m243.214.3c1.195 1.21 2.263 2.2 2.373 2.2.11 0-.778-.99-1.973-2.2-1.195-1.21-2.263-2.2-2.373-2.2-.11 0 .778.99 1.973 2.2M72.4 72.6c-1.639 1.65-2.89 3-2.78 3 .11 0 1.541-1.35 3.18-3 1.639-1.65 2.89-3 2.78-3-.11 0-1.541 1.35-3.18 3m254.8 0c1.195 1.21 2.263 2.2 2.373 2.2.11 0-.778-.99-1.973-2.2-1.195-1.21-2.263-2.2-2.373-2.2-.11 0 .778.99 1.973 2.2m-113.1.897a85.45 85.45 0 006.2 0c1.705-.075.31-.136-3.1-.136s-4.805.061-3.1.136m-7.9.328c-.22.088-1.84.431-3.6.761l-3.2.6 2.6-.221c3.054-.259 7.68-1.296 5.8-1.299-.66-.002-1.38.07-1.6.159m21.6.384c1.32.29 3.48.625 4.8.744 1.968.178 1.717.08-1.4-.548-4.243-.854-7.159-1.022-3.4-.196m-31.4 1.611c-1.181.338-1.456.516-.8.517.55.001 1.63-.24 2.4-.537 1.756-.676.789-.664-1.6.02m39.6-.244c.33.193 1.32.46 2.2.593l1.6.241-1.8-.599c-1.999-.665-2.919-.774-2-.235M67.186 78.3L65 80.6l2.3-2.186C69.437 76.382 69.783 76 69.486 76c-.062 0-1.097 1.035-2.3 2.3m265.214-.1c1.195 1.21 2.263 2.2 2.373 2.2.11 0-.778-.99-1.973-2.2-1.195-1.21-2.263-2.2-2.373-2.2-.11 0 .778.99 1.973 2.2M192 77.071c-2.432 1.076-4.632 2.17-3.8 1.89 4.113-1.384 6.799-2.554 5.8-2.526-.33.009-1.23.295-2 .636m49.6.129c2.398 1.006 3.477.999 1.256-.009-.959-.435-2.039-.781-2.4-.769-.361.013.154.363 1.144.778m3.824 1.387c.427.323.956.588 1.176.588.22 0 .051-.265-.376-.588-.428-.323-.957-.587-1.177-.587-.22 0-.051.264.377.587m-60.28 1.4c-.519.432-.73.792-.468.8.262.007.596-.18.741-.415.146-.235.651-.584 1.124-.775.616-.248.674-.353.203-.372-.36-.014-1.08.329-1.6.762m62.654-.492c.439.111 1.229.54 1.754.953.526.414 1.18.752 1.453.752.273 0 .721.27.995.6.274.33.68.6.903.6.589 0-1.35-1.442-2.367-1.76-.475-.149-1.082-.534-1.349-.855-.267-.322-.868-.564-1.336-.539-.808.044-.81.057-.053.249M182.4 81.6c-.507.44-.788.8-.624.8.164 0 .755-.36 1.315-.8.559-.44.84-.8.624-.8-.216 0-.808.36-1.315.8m152.8-.275c0 .069.585.654 1.3 1.3l1.3 1.175-1.175-1.3c-1.095-1.212-1.425-1.484-1.425-1.175m-156 2.131c-2.074 1.463-2.854 2.385-1 1.182 2.212-1.435 3.233-2.244 2.781-2.204-.209.019-1.011.479-1.781 1.022m74.574-.698c.149.241.642.637 1.097.88.591.316.749.318.555.004-.149-.241-.642-.637-1.097-.88-.591-.316-.749-.318-.555-.004m3.826 2.734c5.299 4.435 8.587 8.092 12.395 13.784.543.811 1.042 1.42 1.109 1.353.949-.949-9.609-12.956-13.749-15.637-1.491-.965-1.481-.945.245.5M172.484 89.1C168.616 92.945 164 98.531 164 99.366c0 .109-.556 1.152-1.235 2.316-.679 1.165-.974 1.848-.655 1.518.319-.33 1.008-1.41 1.531-2.4.523-.99 1.403-2.43 1.955-3.2.552-.769 1.133-1.579 1.29-1.8 1.161-1.627 4.474-5.239 6.86-7.481 1.57-1.474 2.72-2.689 2.556-2.7-.164-.01-1.882 1.556-3.818 3.481m-113.909-.832c-.616.808-.916 1.343-.666 1.188.512-.316 2.244-2.656 1.966-2.656-.099 0-.684.661-1.3 1.468m282.216-.28c.466.653 1.051 1.314 1.3 1.468.25.155-.05-.38-.666-1.188-1.337-1.753-1.841-1.976-.634-.28M132.8 93.163c-3.268.298-3.6.523-3.6 2.447 0 2.372.412 2.468 11.161 2.594 5.685.067 7.769.008 5.239-.147-4.943-.303-5.2-.424-5.2-2.457 0-2.037.264-2.16 5.2-2.427 3.437-.185 2.891-.228-3-.237-3.96-.005-8.37.097-9.8.227m19 2.437c0 1.498.135 2.64.3 2.538.165-.102.3-1.244.3-2.538 0-1.294-.135-2.436-.3-2.538-.165-.102-.3 1.04-.3 2.538m63.5-.106a29.38 29.38 0 003.8 0c1.045-.082.19-.15-1.9-.15s-2.945.068-1.9.15m-5.9.756l-1.2.584 1.2-.273c.66-.151 1.83-.408 2.6-.571l1.4-.298-1.4-.014c-.77-.007-1.94.25-2.6.572m13.8-.033c2.764.69 3.417.683 1.6-.017-.77-.297-1.94-.538-2.6-.536-.855.003-.567.162 1 .553M51.6 97.6c-.47.66-.764 1.2-.654 1.2.11 0 .584-.54 1.054-1.2.47-.66.764-1.2.654-1.2-.11 0-.584.54-1.054 1.2m153.606.023c-.766.427-1.171.777-.898.777.272 0 1.167-.36 1.988-.8.82-.44 1.225-.79.898-.777-.327.013-1.221.373-1.988.8M227 97.094c.44.111 1.155.451 1.589.754.434.304.974.551 1.2.549.226-.001-.129-.36-.789-.797-.66-.437-1.56-.775-2-.751l-.8.044.8.201M348.8 98.8c.47.66.944 1.2 1.054 1.2.11 0-.184-.54-.654-1.2-.47-.66-.944-1.2-1.054-1.2-.11 0 .184.54.654 1.2m-147.2.656c-1.939 1.368-2.694 2.144-2.086 2.144.267 0 .486-.176.486-.392 0-.215.708-.753 1.573-1.194.865-.441 1.686-.985 1.823-1.208.409-.661-.301-.404-1.796.65m29.402-.653c.137.221.822.696 1.523 1.054.701.358 1.419.897 1.595 1.197.176.3.498.546.715.546.513 0-.689-1.219-2.297-2.329-1.358-.937-1.935-1.113-1.536-.468M49.353 100.9c-1.377 2.336-1.467 2.535-.766 1.7.813-.968 1.513-2.2 1.251-2.2-.105 0-.323.225-.485.5m300.996.1c.216.44.685 1.16 1.044 1.6l.651.8-.393-.8c-.216-.44-.685-1.16-1.044-1.6l-.651-.8.393.8m-79.146.29c-.002.16.356.88.796 1.6.439.721.797 1.13.797.91-.001-.22-.359-.94-.796-1.6-.437-.66-.796-1.069-.797-.91m-74.565 2.352c-2.404 2.61-6.172 8.557-5.713 9.016.086.086.588-.695 1.116-1.735.527-1.041 1.096-2.079 1.263-2.308 2.353-3.215 4.454-5.815 4.701-5.815.17 0 .413-.27.54-.6.359-.935.109-.747-1.907 1.442m39.317-1.442c.242.44 1.285 1.61 2.316 2.6 2.069 1.984 1.225.734-1.213-1.798-.848-.881-1.345-1.242-1.103-.802m-75.162 3.272c-.9 2.335-.898 2.457.014.8.463-.841.781-1.708.708-1.928-.074-.22-.399.287-.722 1.128m112.01-.934c-.002.186.248.816.554 1.4.306.584.884 1.85 1.283 2.812.4.963.793 1.552.873 1.31.081-.242-.137-.844-.483-1.339-.347-.494-.631-1.174-.633-1.51-.001-.336-.36-1.151-.797-1.811-.437-.66-.796-1.048-.797-.862M159.1 109.455c-.985 1.94-.876 2.662.121.802.451-.843.766-1.678.7-1.856-.067-.178-.436.296-.821 1.054m82.505-.055c0 .22.358.94.795 1.6.437.66.795 1.02.795.8 0-.22-.358-.94-.795-1.6-.437-.66-.795-1.02-.795-.8m-84.144 5.293c-.407 1.283-.656 2.777-.555 3.32.16.851.193.814.24-.264.029-.688.334-1.921.676-2.739.342-.819.567-1.75.5-2.069-.067-.32-.455.469-.861 1.752m85.739-1.986c0 .273.36 1.168.8 1.989.44.82.8 1.269.8.997 0-.273-.36-1.168-.8-1.989-.44-.82-.8-1.269-.8-.997m32.85.093c-.008.11.235 1.1.541 2.2.336 1.211.559 1.606.564 1 .007-.811-1.054-3.885-1.105-3.2m-85.98 1.406c-.275.604-.418 1.18-.317 1.28.271.272 1.122-1.462.958-1.954-.078-.232-.366.071-.641.674m-1.195 3.669c-.896 2.606-.942 3.624-.07 1.563.457-1.078.777-2.215.712-2.525-.064-.31-.353.123-.642.962m55.927-.749c-.001.29.189.883.422 1.319.233.436.589 1.549.79 2.474l.366 1.681-.171-1.818c-.156-1.655-1.401-4.891-1.407-3.656m32.44.674c-.016.44.225 1.61.537 2.6.735 2.333.775 1.207.049-1.4-.306-1.1-.57-1.64-.586-1.2m-121.161 3.288c-.265.883-.468 1.944-.453 2.358.015.415.295-.116.622-1.18.327-1.064.53-2.125.453-2.358-.078-.233-.358.298-.622 1.18m-21.905 1.698c-4.345.328-4.578.447-4.57 2.338.011 2.55-.297 2.47 11.169 2.905 12.226.465 11.715.597 11.542-2.992l-.117-2.437-7.2-.044c-3.96-.024-8.831.079-10.824.23m53.302 1.614c-.163 1.21-.46 3.19-.658 4.4-.769 4.682-.464 12.555.774 20 .573 3.449.406-.424-.199-4.6a55.918 55.918 0 01.032-15.995c.345-2.321.564-4.621.488-5.112-.076-.491-.273.097-.437 1.307m-35.559.9l-.119 2.5-5.2-.127c-5.787-.14-6.211-.33-6.121-2.739.042-1.11.236-1.392 1.086-1.578a20.057 20.057 0 001.435-.359c.22-.074 2.344-.148 4.719-.165l4.319-.032-.119 2.5m126.609-.1c0 1.43.073 2.015.161 1.3.089-.715.089-1.885 0-2.6-.088-.715-.161-.13-.161 1.3m-31.822-.2c.152 1.1.281 3.26.285 4.8l.009 2.8-4 .262c-2.2.144-5.17.546-6.6.894-1.43.348-3.099.635-3.708.638-2.41.013-12.111 3.243-16.343 5.441-3.172 1.648-3.699 1.952-5.506 3.175-.967.655-2.086 1.384-2.487 1.621-2.417 1.424-11.533 10.251-11.549 11.18-.004.226-.322.709-.707 1.072-1.078 1.018-1.662 1.797-2.15 2.868-1.004 2.203-2.279 1.768-3.353-1.145-.404-1.096-.811-1.765-.904-1.486-.093.279.005.726.217.993.212.268.597 1.145.856 1.948.646 2.006 3.634 2.564 3.634.678 0-.349 1.992-3.081 4.294-5.887 2.709-3.302 9.125-9.193 10.644-9.772.462-.176.955-.507 1.097-.736.287-.465 1.15-.98 4.365-2.604 1.21-.612 2.629-1.433 3.154-1.826.525-.393 1.275-.714 1.668-.714.392 0 1.223-.269 1.846-.599.622-.329 1.897-.786 2.832-1.015.935-.229 1.7-.577 1.7-.773 0-.195 1.035-.48 2.3-.633 1.265-.152 2.907-.525 3.649-.828.742-.304 2.182-.556 3.2-.56 1.814-.008 3.838-.284 9.451-1.29l2.8-.502.098-2.8c.054-1.54-.165-3.79-.486-5l-.584-2.2.278 2m-91.369 2.8c.002 1.76.072 2.43.156 1.489.085-.94.084-2.38-.002-3.2-.086-.819-.155-.049-.154 1.711m123.604 4.942l.059 4.941 1.6 1.353c.88.743 1.768 1.355 1.974 1.358.616.01 4.003 1.718 4.32 2.178.43.627.374 21.739-.059 22.006-.422.261-2.621-.856-3.698-1.878-.405-.385-.985-.7-1.288-.7-.303 0-.766-.258-1.028-.574-.262-.316-1.049-.697-1.749-.846-.699-.15-1.497-.454-1.772-.675-.617-.497-1.515.176-2.326 1.746-.854 1.652-.681 1.937.272.449 1.059-1.654 1.899-1.636 4.954.106 1.32.753 2.895 1.572 3.5 1.82.605.249 1.1.586 1.1.749 0 .442 2.002 1.271 2.43 1.006.213-.131.37-5.197.37-11.943 0-13.481.429-12.107-4.484-14.358-3.554-1.629-3.464-1.454-3.928-7.619l-.305-4.061.058 4.942M154.924 136.2c.002 1.32.077 1.812.166 1.093.089-.719.087-1.799-.004-2.4s-.164-.013-.162 1.307m.413 8.4c.002 1.76.072 2.43.156 1.489.085-.94.084-2.38-.002-3.2-.086-.819-.155-.049-.154 1.711m.334 4.4c-.005.66.246 1.83.56 2.6.671 1.648.579.284-.163-2.4l-.386-1.4-.011 1.2m32.359 2.8c-.002.837 1.131 3.136 1.156 2.346.008-.25-.249-1.06-.57-1.8-.404-.929-.585-1.098-.586-.546m-50.23.603c-8.151.4-8.269.439-8.12 2.724l.12 1.855 1.8.309c.99.17 6.03.354 11.2.409l9.4.1.125-1.973c.27-4.275.707-4.172-14.525-3.424m14 2.597v2.4l-5.355-.089c-6.129-.101-5.71.06-5.885-2.27l-.133-1.787 2.086-.227c4.374-.477 4.947-.515 7.087-.471l2.2.044v2.4m5.072-.2c-.015.77.313 2.21.728 3.2.415.99.765 1.473.778 1.074.012-.4-.193-1.12-.456-1.6-.263-.481-.601-1.594-.75-2.474l-.272-1.6-.028 1.4m-131.843 1.429c-.148.586-.191 1.143-.097 1.237.095.094.292-.308.439-.895.148-.586.191-1.143.097-1.237-.095-.094-.292.308-.439.895M242.8 155.6c-.33.213-1.14.392-1.8.396-.66.005-1.654.246-2.209.536-.556.29-1.58.726-2.278.969-3.661 1.276-11.451 7.822-13.513 11.355-.22.377-.911 1.553-1.535 2.615-2.194 3.727-1.707 5.406 1.394 4.817.632-.12.448-.197-.559-.234-3.533-.128 1.345-8.232 8.594-14.276 1.134-.946 5.464-3.301 6.934-3.772.865-.276 1.743-.661 1.952-.854 1.305-1.208 5.006-.098 3.775 1.133-.245.245-.371.668-.28.941.091.273.455-.1.808-.829.941-1.944.131-3.711-1.283-2.797m-.529 5.853c-.401.536-.64 1.193-.531 1.46.134.333.207.307.228-.082.018-.312.331-.898.696-1.302.366-.404.591-.805.5-.892-.09-.087-.492.28-.893.816m-83.843-.253c-.013.33.335 1.14.772 1.8.542.818.796.985.797.524.002-.372-.19-.796-.425-.941-.235-.146-.584-.651-.775-1.124-.207-.513-.355-.617-.369-.259m82.563 2.706c-.225.162-.734.804-1.131 1.427-1.798 2.823-5.761 6.362-8.997 8.035-.736.38-1.245.783-1.132.896.765.766 8.112-5.46 10.815-9.164 1.108-1.518 1.185-1.726.445-1.194m33.041.145c-.018.358-.302.875-.632 1.149s-.597.791-.593 1.149c.004.4.326.152.835-.643.456-.711.737-1.521.625-1.8-.133-.329-.215-.279-.235.145m-114.015.96c.009.214.375 1.019.814 1.789.594 1.045.729 1.146.529.4-.287-1.07-1.371-2.838-1.343-2.189m111.961 3.287c-.904 1.803-.891 1.981.042.585.484-.724.797-1.4.695-1.501-.102-.102-.434.31-.737.916m-110.33.346c.414.97 3.352 5.789 4.593 7.535 1.628 2.289 6.49 7.615 5.857 6.417-.233-.443-.823-1.163-1.311-1.6-1.698-1.522-5.906-7.213-7.162-9.685-1.007-1.981-2.604-4.136-1.977-2.667m108.906 2.322c-.245.266-.679.923-.963 1.459-2.84 5.35-15.892 17.894-18.711 17.984-.496.016-2.296 1.573-1.829 1.582.248.005.675-.261.949-.591.274-.33.662-.6.862-.6 2.189 0 13.112-9.575 16.656-14.6 2.906-4.121 4.433-6.754 3.036-5.234m-44.754 4.448c-.963.441-1.037.553-.376.568.452.01 1.172-.246 1.6-.569.963-.729.369-.728-1.224.001m152.693 1.386c0 .77.082 1.085.183.7.1-.385.1-1.015 0-1.4-.101-.385-.183-.07-.183.7m-357.979 7c.003 1.1.081 1.503.173.895.092-.609.09-1.509-.005-2-.095-.492-.171.005-.168 1.105m117.947-1.368c-5.562.353-6.461.769-6.461 2.985 0 1.624.221 1.673 9.864 2.185 16.139.857 16.536.795 16.536-2.602 0-3.152.382-3.007-7.743-2.941-3.991.032-9.479.2-12.196.373m19.467 1.73c.07.859.016 2.005-.12 2.547l-.247.985-4.68-.266c-7.366-.417-7.973-.543-8.269-1.721-.63-2.513 1.495-3.208 9.588-3.138l3.6.031.128 1.562M379.309 184c0 .99.078 1.395.173.9a5.661 5.661 0 000-1.8c-.095-.495-.173-.09-.173.9m-205.909-.012c.89 1.022 5 4.16 5.171 3.948.059-.075-1.26-1.2-2.932-2.501-1.671-1.301-2.679-1.952-2.239-1.447M20.101 187.8c.004.88.086 1.193.182.695.096-.497.092-1.217-.008-1.6-.1-.382-.179.025-.174.905m359.6 0c.004.88.086 1.193.182.695.096-.497.092-1.217-.008-1.6-.1-.382-.179.025-.174.905m-200.501.559c0 .376.395.635 3.478 2.284 1.363.73 2.337 2.49 2.029 3.668-.353 1.351.481 13.888 1.044 15.689.309.99.689 2.698.845 3.795.155 1.097.534 2.483.843 3.08.308.597.561 1.504.561 2.016s.234 1.286.521 1.72c.286.434 1.04 2.139 1.674 3.789.635 1.65 1.365 3.27 1.624 3.6.258.33.983 1.5 1.609 2.6 2.863 5.024 10.051 12.808 14.531 15.734 1.232.805 2.344 1.603 2.469 1.772.264.357 4.409 2.607 7.47 4.056 2.963 1.401 9.874 3.7 12.625 4.198 1.278.232 2.503.533 2.723.668.22.136 2.144.401 4.277.589 2.132.187 5.947.538 8.477.78 9.385.896 28.85-2.378 35.506-5.973.382-.206 1.774-.86 3.094-1.453 1.32-.593 2.532-1.279 2.694-1.525.423-.643.375-23.756-.05-24.019-.326-.201-1.585.442-5.583 2.854-.804.484-1.731 1.001-2.061 1.148-.33.147-1.365.606-2.3 1.019a632.85 632.85 0 00-3.4 1.519c-.935.421-2.735 1.051-4 1.4-1.265.348-3.29.912-4.499 1.253-5.788 1.632-18.94 1.431-24.601-.377-5.904-1.886-9.461-4.014-13.301-7.957-2.753-2.827-4.819-5.572-5.276-7.012-.14-.441-.517-1.02-.838-1.287-.322-.267-.591-.778-.599-1.136-.007-.358-.361-1.371-.786-2.251-.425-.88-.779-1.933-.786-2.34-.008-.406-.281-1.306-.608-2-.904-1.917-1.839-9.818-1.27-10.729 1.406-2.251 3.735-.581 10.664 7.647 2.212 2.626 4.311 4.822 4.609 4.822.347 0-9.305-10.837-10.949-12.294-4.014-3.558-7.007-.286-5.104 5.58.306.943.66 2.684.788 3.869.127 1.185.484 2.445.793 2.8.309.355.68 1.304.824 2.11.266 1.489 2.05 5.185 3.972 8.229 1.455 2.305 8.11 8.906 8.979 8.906.209 0 .824.349 1.366.775.542.427 1.459.894 2.037 1.039.579.146 1.262.517 1.518.825.256.309.943.561 1.527.561s1.483.295 1.997.655c2.599 1.82 23.982 2.017 26.129.241.283-.234 1.414-.61 2.514-.835 2.845-.584 7-2.066 7-2.496 0-.201.208-.365.461-.365.544 0 4.353-1.852 7.739-3.764 1.32-.745 2.535-1.272 2.7-1.172.165.101.3 5.005.3 10.898 0 12.099.244 11.18-3.4 12.808-1.1.492-2.74 1.239-3.644 1.662-.904.422-1.989.768-2.411.768-.422 0-1.144.264-1.605.587-.461.323-1.626.711-2.589.863-.963.151-2.111.5-2.551.775-.44.274-1.966.629-3.391.787-1.425.158-3.315.547-4.2.863-2.351.841-24.875.828-27.252-.016-.903-.321-2.883-.711-4.4-.868-1.516-.157-3.027-.51-3.357-.785-.33-.275-1.341-.612-2.247-.749-.906-.137-2.166-.52-2.8-.851-.634-.33-1.387-.602-1.674-.604-.286-.001-1.186-.355-2-.786a131.072 131.072 0 00-3.679-1.843c-7.125-3.429-14.529-9.638-18.867-15.822-.907-1.293-1.785-2.351-1.952-2.351-.166 0-.502-.495-.747-1.1-.244-.605-.882-1.82-1.418-2.7-1.227-2.013-1.816-3.304-1.816-3.977 0-.289-.27-.749-.6-1.023-.33-.274-.6-.843-.6-1.265 0-.422-.36-1.473-.8-2.335-.44-.862-.8-1.913-.8-2.335 0-.422-.27-1.414-.6-2.203-.33-.79-.6-1.949-.6-2.576s-.356-2.478-.791-4.113c-.624-2.349-.792-4.29-.8-9.242-.009-6.416-.665-8.731-2.472-8.731-.216 0-1.19-.549-2.165-1.219-.975-.671-1.772-1.041-1.772-.822m67.376 4.621c-.353.54-.558 1.305-.456 1.7.152.584.196.555.234-.151.025-.479.52-1.244 1.1-1.7.754-.593.87-.829.409-.829-.354 0-.934.441-1.287.98m.481 2.712c.201.381 1.552 2.001 3.001 3.6a732.7 732.7 0 016.148 6.908c1.932 2.2 3.801 4.159 4.153 4.354.397.219.336.054-.159-.432-.44-.432-1.7-1.835-2.8-3.118-1.1-1.282-2.45-2.816-3-3.407-.55-.592-1.936-2.138-3.079-3.436-3.635-4.126-4.639-5.179-4.264-4.469M19.737 199.8c.002 1.76.072 2.43.156 1.489.085-.94.084-2.38-.002-3.2-.086-.819-.155-.049-.154 1.711m360.397.2c0 1.65.071 2.325.157 1.5.087-.825.087-2.175 0-3-.086-.825-.157-.15-.157 1.5m-.433 11.8c.004.88.086 1.193.182.695.096-.497.092-1.217-.008-1.6-.1-.382-.179.025-.174.905m-359.6.4c.004.88.086 1.193.182.695.096-.497.092-1.217-.008-1.6-.1-.382-.179.025-.174.905m241.299-.273c.44.459.989 1.068 1.219 1.354.231.285 1.536 1.752 2.9 3.259 3.747 4.139 4.562 3.86-11.261 3.86h-13.741l-3.159-3.453c-3.979-4.35-4.17-4.547-4.424-4.547-.298 0 6.269 7.298 7.114 7.905.924.665 28.406.535 28.629-.135.156-.47-6.387-8.149-7.433-8.724-.429-.236-.377-.076.156.481m-106.8.493c-5.535.281-11.488.912-13.722 1.454-1.837.446-1.043 2.636 1.152 3.178 3.052.753 13.613 1.405 23.97 1.478l9.8.07.074-1c.043-.578-.012-.704-.129-.3-.492 1.693-18.554.119-18.539-1.615.016-1.741 1.676-2.121 12.394-2.837 5.423-.361 5.856-.313 6.151.686.108.366.163.216.123-.334l-.074-1-7.6-.043c-4.18-.024-10.3.095-13.6.263m224.714 3.38c.003 1.1.081 1.503.173.895.092-.609.09-1.509-.005-2-.095-.492-.171.005-.168 1.105m-358.805.2c0 .99.078 1.395.173.9a5.661 5.661 0 000-1.8c-.095-.495-.173-.09-.173.9m.784 7.2c0 .77.082 1.085.183.7.1-.385.1-1.015 0-1.4-.101-.385-.183-.07-.183.7m355.729 9.022c-.15.803-.194 1.54-.096 1.638.098.097.301-.479.452-1.282.15-.803.194-1.54.096-1.638-.098-.097-.301.479-.452 1.282M164.4 242.445c-9.311.433-17.677 1.056-18.518 1.379-1.269.487-.934 3.627.418 3.928 2.118.471 21.991 1.074 31.7.962l9.8-.114.122-2.383c.068-1.311.019-2.796-.107-3.3l-.23-.917-8.093.06c-4.45.033-11.242.206-15.092.385m23.12 3.316l.119 2.761-9.519-.268c-12.674-.356-13.02-.456-12.224-3.498.314-1.204 7.366-1.921 17.704-1.8l3.8.044.12 2.761m42.68 33.9c-5.272 1.747-8.428 5.004-10.256 10.582-1.186 3.62-1.306 13.162-.205 16.302 2.845 8.114 6.718 11.157 14.337 11.264 4.25.06 5.916.634 7.524 2.592.429.523 4.132 3.199 4.427 3.199.654 0 2.772-2.102 2.757-2.736-.009-.365-1.19-1.531-2.623-2.591-3.272-2.418-3.367-2.696-1.556-4.556 3.438-3.532 4.383-6.745 4.39-14.917.007-8.65-.905-11.504-4.991-15.62-3.318-3.341-9.548-4.93-13.804-3.519m36 .279c-7.424 2.536-10.311 7.836-10.275 18.86.043 13.001 4.636 18.944 14.675 18.983 7.47.029 11.65-2.805 13.595-9.217.899-2.964.898-2.966-1.764-2.966h-2.369l-.465 1.5c-1.663 5.358-3.517 6.707-9.197 6.692-4.727-.013-7.363-2.248-8.995-7.626-.795-2.622-.811-11.955-.025-14.909 2.614-9.822 14.405-11.135 17.889-1.992l.966 2.535 2.087.121c2.558.148 2.765-.21 1.88-3.254-2.128-7.32-10.394-11.327-18.002-8.727m-148.728.16c-.628.46-.674 1.957-.577 18.9l.105 18.4h4.8l.2-8.2.2-8.2 7.8-.2 7.8-.2V297l-7.8-.2-7.8-.2-.11-6.3-.11-6.3h8.577c4.718 0 8.862-.109 9.21-.243.885-.339.885-3.575 0-3.914-1.308-.502-21.58-.268-22.295.257m120.443.072c7.546 2.009 10.714 7.668 10.651 19.028-.044 7.845-1.324 11.635-5.124 15.17-1.417 1.319-1.435 1.284 1.958 3.896 1.65 1.27 3 2.416 3 2.547 0 .716-2.412 2.477-2.886 2.107a870.686 870.686 0 01-3.688-2.95l-3.175-2.549-4.225-.034c-10.105-.082-14.812-5.996-14.822-18.621-.01-13.999 7.38-21.503 18.311-18.594m36.408-.132c5.272 1.235 8.108 3.993 9.495 9.234.561 2.122.382 2.326-2.04 2.326-1.301 0-1.382-.09-2.003-2.228-2.797-9.62-15.773-8.556-18.771 1.54-.824 2.774-.828 12.922-.006 15.631 2.976 9.808 15.284 11.044 18.629 1.87l.88-2.413h1.947c1.07 0 1.944.045 1.942.1-.418 9.651-13.773 14.927-22.227 8.781-9.052-6.581-7.568-29.871 2.152-33.747 3.754-1.497 6.84-1.835 10.002-1.094m-134.398 1.66l-.125 1.3-9 .219c-4.95.121-9.049.256-9.11.3-.06.045-.06 3.096 0 6.781l.11 6.7 7.7.109 7.7.108v3.166l-7.7.108-7.7.109-.108 8.3-.108 8.3H117.6v-36.8h22.451l-.126 1.3m64.279 1.179c-.103.287-.236 1.871-.296 3.521l-.108 3-2.4.2c-4.092.341-3.686 3.6.449 3.6H204v9.804c0 12.567.59 14.199 5.367 14.853 3.474.477 4.633-.03 4.633-2.024v-1.731l-2.014-.194c-3.175-.305-3.159-.246-3.173-11.208l-.013-9.5 2.1-.006c4.274-.013 4.723-3.242.5-3.594l-2.4-.2-.2-3.4-.2-3.4-2.104-.121c-1.457-.084-2.163.039-2.292.4m26.674.68c-5.817 2.009-8.373 8.587-7.307 18.8.82 7.854 4.279 11.773 10.429 11.819 7.612.056 10.606-4.459 10.593-15.978l-.008-6.4-1.303-2.68c-2.573-5.289-7.193-7.361-12.404-5.561m-22.394 2.941l.116 3.3 2.5.119c2.475.118 2.5.131 2.5 1.3 0 1.159-.039 1.181-2.12 1.181-3.17 0-3.08-.312-3.08 10.618 0 10.966-.016 10.913 3.314 11.357 2.306.308 2.806 2.559.672 3.028-6.501 1.428-7.986-1.343-7.986-14.9 0-10.284.052-10.103-2.88-10.103-3.288 0-2.935-2.307.38-2.48l2.3-.12.116-3.3.116-3.3h3.936l.116 3.3m27.58-2.849c5.228 1.121 7.692 4.909 8.165 12.549.764 12.351-3.463 18.641-11.771 17.519-5.471-.739-8.189-5.319-8.393-14.141-.226-9.759 1.926-14.166 7.735-15.839 2.11-.607 1.866-.602 4.264-.088M357.4 287.2c-.341.66-.531 1.2-.421 1.2.11 0 .48-.54.821-1.2.341-.66.531-1.2.421-1.2-.11 0-.48.54-.821 1.2m-204.276 2.188c-4.228 1.165-8.516 5.483-7.338 7.389.698 1.13 4.152.475 4.81-.911 2.62-5.522 11.713-3.368 11.785 2.791.024 2.069-.157 2.143-5.199 2.143-7.773 0-12.382 3.386-12.382 9.098 0 7.018 9.41 10.504 16.123 5.973.618-.417 1.166-.694 1.219-.615.053.079.309.639.568 1.244.669 1.558 5.611 1.753 5.069.2-.173-.495-.433-5.31-.577-10.7-.265-9.86-.389-10.787-1.74-13.018-1.979-3.267-7.59-4.901-12.338-3.594m28.299.026c-6.721 1.844-9.287 9.103-4.506 12.75 1.68 1.281 3.362 1.977 6.883 2.848 6.153 1.521 8.262 3.49 6.87 6.41-2.082 4.365-11.673 3.195-12.34-1.505-.118-.829-.341-.917-2.33-.917-2.608 0-2.971.713-1.664 3.275 4.16 8.154 19.12 7.474 21.245-.967 1.245-4.944-1.921-7.967-10.581-10.102-5.205-1.283-6.979-3.435-5.141-6.239 2.185-3.335 8.776-2.623 10.43 1.127l.68 1.541 2.216-.118c2.205-.116 2.214-.123 2.073-1.317-.615-5.219-7.407-8.55-13.835-6.786m-20.976.592c5.304 1.474 6.096 3.493 6.352 16.194.11 5.5.347 10.225.525 10.5.243.377-.175.5-1.695.5-1.928 0-2.044-.062-2.603-1.4-.645-1.543-1.064-1.718-1.85-.771-2.839 3.421-10.713 3.226-13.846-.342-5.622-6.403-.127-13.465 10.49-13.481 4.637-.007 4.981-.199 4.979-2.786-.005-5.806-8.403-8.459-11.927-3.768-1.547 2.058-1.685 2.148-3.288 2.148-1.81 0-1.888-.236-.788-2.393 1.947-3.816 8.338-5.876 13.651-4.401m30.525.956c2.108 1.236 3.828 3.541 3.828 5.131 0 1.536-3.361 1.718-3.819.207-1.651-5.443-12.181-4.942-12.181.58 0 2.34 1.281 3.432 5.351 4.563 5.585 1.551 7.602 2.384 9.189 3.793l1.66 1.474v2.945c0 9.541-16.606 11.163-20.436 1.996-1.473-3.523 2.209-3.759 4.087-.261 2.762 5.141 12.949 3.93 12.949-1.539 0-2.371-2.014-3.753-7.739-5.311-7.2-1.96-9.818-4.645-8.673-8.896 1.455-5.404 10.15-7.983 15.784-4.682M354.2 292.8c-.341.66-.531 1.2-.421 1.2.11 0 .48-.54.821-1.2.341-.66.531-1.2.421-1.2-.11 0-.48.54-.821 1.2m-305.851 4.6c.216.44.685 1.16 1.044 1.6l.651.8-.393-.8c-.216-.44-.685-1.16-1.044-1.6l-.651-.8.393.8m299.743 4.829c-.495.754-.82 1.371-.723 1.371.278 0 1.935-2.429 1.77-2.594-.082-.082-.553.468-1.047 1.223M51.6 302.4c.47.66.944 1.2 1.054 1.2.11 0-.184-.54-.654-1.2-.47-.66-.944-1.2-1.054-1.2-.11 0 .184.54.654 1.2m100.906 2.003c-1.964.88-3.302 2.791-3.305 4.717-.006 5.465 7.446 7.138 11.91 2.675l1.724-1.725-.118-3.135-.117-3.135-4.2-.079c-3.384-.063-4.529.069-5.894.682m9.894 2.411c0 6.342-8.14 9.82-11.789 5.036-3.201-4.196.353-7.71 7.889-7.802l3.9-.048v2.814M55.6 308c.47.66.944 1.2 1.054 1.2.11 0-.184-.54-.654-1.2-.47-.66-.944-1.2-1.054-1.2-.11 0 .184.54.654 1.2m6 7.725c0 .069.585.654 1.3 1.3l1.3 1.175-1.175-1.3c-1.095-1.212-1.425-1.484-1.425-1.175m4.6 5.075c.859.88 1.652 1.6 1.762 1.6.11 0-.503-.72-1.362-1.6-.859-.88-1.652-1.6-1.762-1.6-.11 0 .503.72 1.362 1.6m266.785.5L331 323.4l2.1-1.985c1.951-1.844 2.283-2.215 1.985-2.215-.063 0-1.008.945-2.1 2.1M72 327c1.417 1.43 2.667 2.6 2.777 2.6.11 0-.96-1.17-2.377-2.6-1.417-1.43-2.667-2.6-2.777-2.6-.11 0 .96 1.17 2.377 2.6m255.588.1L325 329.8l2.7-2.588c1.485-1.424 2.7-2.639 2.7-2.7 0-.295-.407.08-2.812 2.588M78 332.6c1.195 1.21 2.263 2.2 2.373 2.2.11 0-.778-.99-1.973-2.2-1.195-1.21-2.263-2.2-2.373-2.2-.11 0 .778.99 1.973 2.2m243.586.1L319.4 335l2.3-2.186c2.137-2.032 2.483-2.414 2.186-2.414-.062 0-1.097 1.035-2.3 2.3m-4.211 3.8l-1.175 1.3 1.3-1.175c.715-.646 1.3-1.231 1.3-1.3 0-.309-.33-.037-1.425 1.175M86.8 340.125c0 .099.661.684 1.468 1.3.808.616 1.343.916 1.188.666-.316-.512-2.656-2.244-2.656-1.966m224.785 1.104l-1.385 1.229 1.5-1.077c1.326-.951 1.757-1.381 1.385-1.381-.063 0-.738.553-1.5 1.229M159.4 375.6c.44.189 1.07.344 1.4.344.378 0 .304-.127-.2-.344-.44-.189-1.07-.344-1.4-.344-.378 0-.304.127.2.344m80 0c-.504.217-.578.344-.2.344.33 0 .96-.155 1.4-.344.504-.217.578-.344.2-.344-.33 0-.96.155-1.4.344m-56.895 3.887c.609.092 1.509.09 2-.005.492-.095-.005-.171-1.105-.168-1.1.003-1.503.081-.895.173m33.2 0c.609.092 1.509.09 2-.005.492-.095-.005-.171-1.105-.168-1.1.003-1.503.081-.895.173m-29 .396c.497.096 1.217.092 1.6-.008.382-.1-.025-.179-.905-.174-.88.004-1.193.086-.695.182m25.2 0c.497.096 1.217.092 1.6-.008.382-.1-.025-.179-.905-.174-.88.004-1.193.086-.695.182m-13.605.41c.935.084 2.465.084 3.4 0s.17-.153-1.7-.153c-1.87 0-2.635.069-1.7.153" fill="#747488"/></g></svg>