<?xml version="1.0" encoding="UTF-8"?>
<svg id="Layer_1" data-name="Layer 1" xmlns="http://www.w3.org/2000/svg" xmlns:xlink="http://www.w3.org/1999/xlink" viewBox="0 0 29.76 31.18">
  <defs>
    <style>
      .cls-1 {
        fill: url(#linear-gradient);
      }

      .cls-1, .cls-2, .cls-3, .cls-4, .cls-5, .cls-6, .cls-7, .cls-8 {
        stroke-width: 0px;
      }

      .cls-2 {
        fill: url(#linear-gradient-6);
      }

      .cls-3 {
        fill: maroon;
      }

      .cls-9 {
        isolation: isolate;
      }

      .cls-4 {
        fill: url(#linear-gradient-5);
      }

      .cls-5 {
        fill: url(#linear-gradient-2);
      }

      .cls-6 {
        fill: url(#linear-gradient-3);
      }

      .cls-7 {
        fill: url(#linear-gradient-4);
      }

      .cls-8 {
        fill: navy;
      }
    </style>
    <linearGradient id="linear-gradient" x1="-431.94" y1="-119.56" x2="-423.94" y2="-119.56" gradientTransform="translate(-788.24 -58.77) rotate(-180) scale(1.86 .73)" gradientUnits="userSpaceOnUse">
      <stop offset="0" stop-color="#000"/>
      <stop offset="1" stop-color="#000" stop-opacity="0"/>
    </linearGradient>
    <linearGradient id="linear-gradient-2" x1="-430.78" y1="-112.67" x2="-424.01" y2="-112.67" xlink:href="#linear-gradient"/>
    <linearGradient id="linear-gradient-3" x1="-429.05" y1="-105.73" x2="-424.13" y2="-105.73" xlink:href="#linear-gradient"/>
    <linearGradient id="linear-gradient-4" x1="-428.49" y1="-98.87" x2="-424.19" y2="-98.87" xlink:href="#linear-gradient"/>
    <linearGradient id="linear-gradient-5" x1="-428.47" y1="-92.06" x2="-424.17" y2="-92.06" xlink:href="#linear-gradient"/>
    <linearGradient id="linear-gradient-6" x1="-428.47" y1="-85.24" x2="-424.17" y2="-85.24" xlink:href="#linear-gradient"/>
  </defs>
  <g>
    <rect class="cls-1" y="28.38" width="13" height="1.17"/>
    <rect class="cls-5" y="23.35" width="11" height="1.12"/>
    <rect class="cls-6" y="18.3" width="8" height="1.03"/>
    <rect class="cls-7" x=".04" y="13.28" width="7" height="1"/>
    <rect class="cls-4" y="8.28" width="7" height="1"/>
    <rect class="cls-2" y="3.28" width="7" height="1"/>
  </g>
  <g>
    <g class="cls-9">
      <path class="cls-8" d="M29.76,29.66c-.97.5-1.97.88-3.02,1.13-1.05.25-2.14.38-3.28.38-3.4,0-6.09-.95-8.08-2.85-1.99-1.9-2.98-4.48-2.98-7.73s.99-5.84,2.98-7.75c1.99-1.9,4.68-2.85,8.08-2.85,1.14,0,2.23.13,3.28.38,1.05.25,2.06.63,3.02,1.13v4.22c-.98-.67-1.94-1.15-2.88-1.46-.95-.31-1.95-.46-2.99-.46-1.88,0-3.35.6-4.43,1.8-1.08,1.2-1.61,2.86-1.61,4.98s.54,3.76,1.61,4.96c1.08,1.2,2.55,1.8,4.43,1.8,1.05,0,2.05-.16,2.99-.46.95-.31,1.91-.8,2.88-1.46v4.22Z"/>
    </g>
    <g class="cls-9">
      <path class="cls-3" d="M18.46,21.15h-.41c-3.36,0-5.98-.93-7.85-2.79-1.87-1.86-2.8-4.45-2.8-7.77s.93-5.9,2.8-7.78c1.86-1.88,4.43-2.82,7.7-2.82s5.89.93,7.73,2.79,2.77,4.46,2.77,7.81c0,2.3-.49,4.27-1.47,5.93-.98,1.66-2.39,2.91-4.23,3.75l4.12,4.59h-5.02l-3.34-3.72ZM17.89,3.81c-1.6,0-2.85.59-3.73,1.78-.88,1.18-1.33,2.85-1.33,5s.43,3.86,1.3,5.02c.87,1.16,2.12,1.74,3.76,1.74s2.86-.59,3.75-1.78c.88-1.18,1.33-2.85,1.33-4.99s-.44-3.82-1.33-5c-.88-1.18-2.13-1.78-3.75-1.78Z"/>
    </g>
  </g>
</svg>