<?xml version="1.0" encoding="UTF-8"?>
<svg id="svg163" xmlns="http://www.w3.org/2000/svg" viewBox="0 0 107.77 77.89">
  <defs>
    <style>
      .cls-1 {
        fill: #fff;
      }

      .cls-1, .cls-2, .cls-3 {
        stroke-width: 0px;
      }

      .cls-2 {
        fill: #353535;
      }

      .cls-3 {
        fill: #33b88f;
      }
    </style>
  </defs>
  <g id="surface710">
    <path id="path76" class="cls-2" d="M105.43,12.37h-36.38c-3.4,0-6.46-1.02-8.76-2.93L48.9,0h-27.96c-1.65,0-3.42,1.39-3.87,3.05L.32,73.92h7.57v3.39h84.09c.95-.56,1.75-1.44,2.03-2.46l13.65-59.42c.44-1.65-.58-3.05-2.24-3.05"/>
    <path id="path78" class="cls-3" d="M3.05,77.89c-1.65,0-3.05-1.4-3.05-3.05V11.52c0-1.66,1.4-3.05,3.05-3.05h27.97l13.91,9.44c2.82,1.91,6.14,2.93,9.55,2.93h36.38c1.66,0,3.05,1.4,3.05,3.05v50.96c0,1.65-1.39,3.05-3.05,3.05H3.05Z"/>
    <path id="path80" class="cls-2" d="M84.69,27.74c-1.9,0-3.44,1.54-3.44,3.45s1.54,3.45,3.44,3.45,3.44-1.54,3.44-3.45-1.54-3.45-3.44-3.45"/>
    <path id="path82" class="cls-2" d="M73.7,27.74c-1.9,0-3.44,1.54-3.44,3.45s1.54,3.45,3.44,3.45,3.44-1.54,3.44-3.45-1.54-3.45-3.44-3.45"/>
    <path id="path84" class="cls-1" d="M8.98,56.45l12.73,12.73,12.07-12.07,12.06,12.07,12.07-12.06,12.07,12.06,12.06-12.07,11.89,11.88v-12.54H8.98Z"/>
    <path id="path86" class="cls-1" d="M35.52,34.54c.54-1.46.84-3.04.84-4.69,0-7.6-6.16-13.76-13.75-13.76s-13.75,6.16-13.75,13.76c0,1.65.31,3.23.84,4.69h25.83Z"/>
    <path id="path88" class="cls-2" d="M28.24,34.54c1.06-1.27,1.7-2.91,1.7-4.69,0-1.14-.29-2.21-.74-3.17-.26,1.16-1.24,2.03-2.47,2.03-1.42,0-2.57-1.15-2.57-2.57,0-1.32,1-2.38,2.29-2.52-1.12-.69-2.43-1.11-3.84-1.11-4.05,0-7.34,3.29-7.34,7.34,0,1.78.64,3.42,1.7,4.69h11.28Z"/>
  </g>
</svg>