<svg version="1.0" xmlns="http://www.w3.org/2000/svg" viewBox="0.39 0.34 1304.61 1031.27">
    <path
        d="M198.9 1.1c-87.3 2-141.4 8.5-154.7 18.5-2.7 2.1-3.2 3.1-3.2 6.8 0 3.7.5 4.7 4.1 8 3.8 3.4 4 3.8 2.7 5.8-1.9 2.9-4 3.4-18.8 4.2-15.9.9-21.5 2.1-25.1 5.5-4 3.7-4.6 7.2-1.7 10.4 2.5 2.8 46 25.2 68.4 35.3 7.8 3.5 22.9 9.8 33.5 14.1 13 5.1 41 18.4 84.4 40.1 108.2 54 163.2 79.6 232 108.3l25 10.4 72.1 72c67.2 67.1 89.6 90.2 102.3 105.5l5.2 6.2-10.4 20.1c-35.9 69.9-83.9 150.4-109.9 184.7-47.6 62.6-66.8 94.4-66.8 110.5 0 18.3 38.6 52.2 55.8 49 6.3-1.1 14.9-6.5 22.6-13.9 4-3.9 15.5-17 25.7-29.1 47.2-56.4 78.4-89.4 116.4-123.5 20.1-18 36.8-34.9 55.8-56.2 20.1-22.5 28.4-28.7 38.5-28.8 13.4 0 104.7 42.8 125.7 59 19.1 14.8 56.3 54.5 151.5 162 86.7 98 112.5 125.8 140.7 152.2 9.8 9.2 19 17.6 20.6 18.8 1.5 1.2 6.8 7.5 11.8 14.1 11.6 15.3 14.3 17.4 20.5 16.4l4.6-.7 8.7 8.9c4.7 4.9 13.1 14.6 18.5 21.7 10.5 13.5 13.1 15.5 17.7 13.6 5.7-2.4 6.8-12.8 3-27.7-2.2-8.5-2.7-13.3-1.3-13.3.4 0 2.6 1.9 4.7 4.1 5.1 5.3 10.7 7.9 17.2 7.9 5.2 0 8.3-1.7 8.3-4.5 0-4.2-3.6-26.4-7.1-43.5-16.8-82.5-50.5-206.7-78.8-290-23.3-68.7-57.6-152.7-86.1-210.5-15.2-30.8-22.9-42.6-37.9-57.6-19.2-19.3-36.3-31.8-81.8-59.8-27.1-16.8-33.6-21.7-38.1-29.1-4.3-7.3-5.5-11.9-5.4-22 0-10.2 2.4-20.7 8.5-38.1 6.6-18.5 7-21.4 6.8-46.2-.1-14.2.2-22.5 1-23.8.6-1.1 2.7-2.7 4.6-3.6 3.3-1.3 4-1.3 9.8.8 6.4 2.2 9.5 2.1 9.5-.5 0-2.7-6.7-11.2-13.4-16.8-12.4-10.4-26.6-14.6-50.6-14.7-23-.2-32.6 1.7-58.6 11.5-16.5 6.2-20.4 8-33 15.7-12 7.3-15.7 9.1-23.8 11.6-12.5 3.8-26 2.4-38.9-4-14.3-7.3-26.6-19.2-51.2-49.9C714 94 693 72.5 671.9 56.5l-9.6-7.2-16.9-4.2C575.5 28.1 460 9.7 384.5 3.5c-36.1-3-117-4-185.6-2.4zm304.6 41c62.9 5.3 138.1 18.9 146.6 26.5 3.4 3 33.1 40.3 47.7 59.9 36.3 48.6 49.3 74.2 49.5 97 0 12.2-1.7 16.4-16.5 38.7-16.1 24.3-34 54.3-59.3 99.3-26.9 48-31.3 55.5-32.7 55.5-2 0-30.1-29.1-60.9-63-43.2-47.6-56.7-62-78.4-83.6-16.7-16.6-20.6-20-30.6-26.2-25.1-15.5-55.2-30.9-111.4-56.7-36.3-16.6-86.8-41.4-102.5-50.2-5.8-3.3-20.2-11-32-17.2-40.6-21.3-57.7-32.9-59.5-40.3-1-3.9 2.4-8.1 8.8-11.2 12.8-6.2 34.6-10.4 84.7-16.5 61.7-7.5 114.8-11.7 173-13.5 16.6-.5 60.3.3 73.5 1.5zm471.4 111.3c2.8 1.5 5.1 2.8 5.1 3 0 .1-.7 1.7-1.6 3.5-1 2.1-1.4 4.4-.9 6.9l.6 3.7h-6.3c-5.1 0-7.8.7-14.4 3.8-4.5 2-10.4 4-13 4.3l-4.9.5 4.6-2.5c9.3-5 13.1-12.3 10.8-20.8-1.4-5.5-1.5-5.2 2.3-5.8 5-.8 12 .5 17.7 3.4zm-43 8.9c.8 1 .3 2.4-2 5.8-4.9 6.9-7.4 8.4-14.5 8.4-5 0-6.8-.5-10.2-2.9-2.3-1.5-4.8-3.9-5.6-5.2-1.6-2.3-1.5-2.3 2.1-3 2.7-.5 3.8-.3 4.1.6.8 2.4 4.9 5.9 7.6 6.6 6.1 1.5 13.1-3.4 12.4-8.7-.4-2.6-.2-2.9 2.3-2.9 1.4 0 3.1.6 3.8 1.3zm45.9 36.7c.4 13.9-1.6 27-6.4 42.5-1.9 6-4.3 14.8-5.5 19.5-9 36.4-14.2 51.6-24.3 71.9-10.4 20.6-23.2 39.5-40.5 59.6-12.2 14.1-75.8 79.2-107.7 110.1-54.1 52.4-73.6 69.9-115.3 103.5-11.2 9-24.5 19.7-29.5 23.8-11.1 9.1-20.5 15.3-27.7 18.3-4.5 1.8-7.3 2.2-16.7 2.3-9 0-11.5-.3-12.2-1.5-1.4-2.2-1.2-14.2.5-25.2 3.1-20.6 11.2-46.4 21.8-69.4 3.5-7.7 9.9-22.5 14.2-32.9 35.8-88.1 45.6-110.6 62.6-145 21.4-43.3 39-70.6 65.3-101.4 18-21.1 47.5-49.7 59.4-57.6l3.8-2.5 8.5 4.4c9.1 4.7 22.2 8.2 26.4 7.2l2.6-.7-2.8-2.3c-2.6-2.3-2.8-2.9-2.7-10.3.1-5.8.7-9.2 2.4-13.1 4.4-10.2 10.8-12.6 20.8-7.6 9.1 4.5 14.9 13.4 15.5 23.6.3 5.3.4 5.3 4.8 7 10.8 4.1 18.1 1.3 33.5-13 15.3-14.3 32.9-23.4 44.4-22.9l4.5.2.3 11.5zm23.5 178.4c6.2 2.9 28.1 13.4 48.8 23.3 20.6 9.9 39.4 19.2 41.8 20.7 5.8 3.7 12.2 13.8 24.6 39.1 21.8 44.3 44.4 101.9 58 147.9 24.4 82.9 49.9 242 45.6 284.4-1.6 15.1-4.5 20.3-10.6 18.8-6.8-1.7-28.9-18.9-59-46.1-41.8-37.6-75.4-71.6-98.8-99.9-62.8-76.1-124.2-146-139-158.4-6.4-5.4-23.6-13.8-47.2-23-9.9-3.9-27.9-11-40-15.7-23.3-9.2-41.7-17.5-47.9-21.7l-3.7-2.5 12.3-12c52.5-51.4 190-160.1 202.6-160.3.8 0 6.4 2.4 12.5 5.4zM610 536.6c0 .9-1.9 5.7-4.1 10.8-5.8 12.8-12.6 33.6-21.4 66-4.2 15.3-8.3 29.7-9.2 32-2.5 6.3-6.5 11.8-10.2 14-12.2 7.1-32.4-7.6-29.7-21.6.7-3.8 1.3-4.8 19.6-33.8 30.8-48.9 46.1-69 52.4-69 1.7 0 2.6.5 2.6 1.6zm27.6 114.9c1.3 3.3-18.3 22.4-39.4 38.3l-11.4 8.5-2.1-2.2c-5.2-5.2-1-15.2 9.3-22.2 6.3-4.2 41-23.9 42.2-23.9.5 0 1.1.7 1.4 1.5zM513 676.7c3.5 5.7 11.9 12.8 17.9 15.2 1.7.8 3.1 1.6 3.1 2 0 1.1-8.3 10.8-11 12.9-3.2 2.4-6.8 1.5-13.6-3.1-5.1-3.5-12.4-12.1-12.4-14.7 0-1.7 10.8-18 11.8-18 .4.1 2.3 2.6 4.2 5.7zm49.1 41.9c1.9 1.7 4.4 3.8 5.7 4.6l2.3 1.5-4.1 5.2c-6.1 7.8-7.8 8.2-14 3.6-5-3.7-10-9.8-10-12.2 0-.6 2.5-3.9 5.6-7.2l5.6-6.1 2.8 3.7c1.5 2.1 4.3 5.2 6.1 6.9zm-65.2 6.8c3.3 2.7 6.1 5.5 6.1 6.2 0 .7-2.3 3.7-5.1 6.8l-5.1 5.6-3.9-2c-5.2-2.7-17.9-14.8-17.9-17.1 0-1 2.5-4.5 5.7-7.9l5.6-6.1 4.2 4.8c2.3 2.6 7 7 10.4 9.7zm27.5 22c.8 3.1 5.8 8.1 10.6 10.6 2.9 1.5 3.7 2.4 3.3 3.9-.7 2.7-7.1 10.1-8.8 10.1-2.1 0-11.5-7.5-14.2-11.3-2.9-4-2.5-5.3 3.4-11.8 4.1-4.6 4.9-4.7 5.7-1.5zm-70.8 19.7c3.8 5.5 19.2 20 30.3 28.4 5 3.8 9.1 7.4 9.1 8 0 .5-1 2.3-2.3 3.9l-2.3 2.8-4.5-2.2c-11.9-6.1-26.4-17.9-34.4-28.1l-5.5-7.1 2.7-4.9c1.4-2.7 2.9-4.9 3.3-4.9.4 0 2 1.8 3.6 4.1z"
    />
    <path d="M965 154.8c0 1.1.9 2.7 2 3.7 1.9 1.8 2 1.7 2-.6 0-2.5-1.6-4.9-3.2-4.9-.4 0-.8.8-.8 1.8z" />
</svg>
