<?xml version="1.0" encoding="UTF-8"?>
<svg id="Layer_2" data-name="Layer 2" xmlns="http://www.w3.org/2000/svg" viewBox="0 0 420 420">
  <defs>
    <style>
      .cls-1 {
        fill: #efefef;
      }

      .cls-1, .cls-2 {
        stroke-width: 0px;
      }

      .cls-2 {
        fill: #717dcc;
      }
    </style>
  </defs>
  <path class="cls-1" d="M0,420V0h420v420H0ZM385.83,385.9v-70.92h-69.63v-69.05h69.58V105.15h-70.92v140.02h-69.87v69.63h-69.05v-69.9h-70.05V105.25H35.17v140.77h69.63v69.05H35.22v70.79h70.92v-69.68h68.88v69.63h71.05v-69.58h69.05v69.67h70.71Z"/>
  <path class="cls-2" d="M385.83,385.9h-70.7v-69.67h-69.05v69.58h-71.05v-69.63h-68.88v69.68H35.22v-70.79h69.58v-69.05H35.17V105.25h70.71v139.66h70.05v69.9h69.05v-69.63h69.87V105.15h70.92v140.78h-69.58v69.05h69.63v70.92h0Z"/>
</svg>