<svg xmlns="http://www.w3.org/2000/svg" width="1311.173" height="1125.571" viewBox="117.04 139.429 1311.173 1125.571">
    <path
        fill="#800504"
        d="M797.5 139.627c-82.757 6.147-152.517 21.686-223.054 49.686C450.3 238.593 341.116 321.834 261.371 428c-41.373 55.081-75.099 117.003-99.67 183-21.073 56.601-34.639 115.369-41.781 181-2.652 24.37-3.809 92.852-2.019 119.557 7.486 111.73 39.466 217.91 94.857 314.943 9.254 16.211 23.079 38.5 23.88 38.5.93 0 211.861-141.339 212.202-142.19.187-.467-2.329-5.003-5.591-10.08-21.741-33.838-41.135-77.443-52.682-118.449-8.663-30.768-13.265-55.249-16.686-88.781-1.606-15.731-1.632-63.509-.045-80 6.685-69.445 26.739-133.867 59.924-192.5 70.672-124.866 198.295-212.379 339.74-232.965 26.277-3.825 36.847-4.535 67.5-4.535 30.953 0 43.97.866 68.355 4.547 60.551 9.14 120.623 30.439 171.023 60.634 4.883 2.925 9.084 5.319 9.337 5.319 1.023 0 23.493 15.318 33.785 23.031 31.421 23.549 64.832 55.875 84 81.271 2.75 3.644 5.57 6.641 6.267 6.661 1.225.036 211.346-135.861 214.093-138.465 1.133-1.074-.194-3.346-7.968-13.643-41.598-55.098-96.224-108.513-151.892-148.525-97.065-69.768-204.947-113.428-321.916-130.279-38.164-5.498-49.929-6.28-98.584-6.548-24.75-.136-47.25-.08-50 .124"
    />
    <path
        fill="#262626"
        d="M816.5 497.622C707.038 506.339 611.463 558.579 546.867 645c-37.289 49.889-59.588 105.186-69.561 172.5-2.557 17.264-2.551 76.345.011 94.5 7.516 53.265 23.702 99.284 50.647 144 4.474 7.425 9.643 16.65 11.485 20.5 14.613 30.536 20.629 43.975 22.383 50 8.221 28.244 4.318 52.572-11.281 70.314-3.053 3.472-5.551 6.677-5.551 7.121 0 1.404 18.403-2.724 46.139-10.35 88.497-24.332 155.422-59.22 177.754-92.663 9.626-14.414 10.902-26.272 4.744-44.081-7.418-21.453-7.311-35.963.381-51.567 5.65-11.461 14.202-19.824 26.395-25.81 12-5.892 19.764-7.784 32.087-7.818 37.765-.106 63.524 27.198 61.184 64.854-.307 4.95-1.487 13.437-2.621 18.86-2.757 13.179-2.769 29.105-.031 40.64 2.591 10.915 11.005 28.121 18.965 38.779 24.01 32.152 65.037 57.83 111.37 69.705 69.231 17.744 139.278 2.771 194.309-41.533 9.014-7.258 33.324-31.613 33.324-33.387 0-.656-5.737-5.211-12.75-10.122-73.288-51.326-129.667-102.399-164.517-149.033-9.587-12.83-22.719-33.091-22.728-35.067-.003-.637 31.607-24.01 70.245-51.94 38.638-27.93 91.963-66.485 118.5-85.676 26.537-19.192 48.25-35.275 48.25-35.741 0-.465-25.467-37.215-56.594-81.665-37.391-53.398-57.155-80.797-58.25-80.751-.911.038-11.277 6.262-23.036 13.831-11.76 7.57-21.902 13.963-22.54 14.208-.638.244-6.033-4.914-11.989-11.462-58.742-64.586-139.26-105.633-229.091-116.786-11.46-1.423-57.259-2.593-68-1.738"
    />
</svg>
