<svg version="1.0" xmlns="http://www.w3.org/2000/svg" width="2876" height="2468" viewBox="0 0 2157 1851"><path d="M1132 1.1C929.2 11.7 735 72.4 563.5 178.9 248.6 374.4 43.9 701.8 6 1070.3c-7 68.5-7.9 150.9-2.4 218.2 15.1 185 71.9 361.6 167.9 522.1 15.2 25.3 24.6 39.6 25.9 39.1.6-.3 78.5-52.3 173.1-115.7 94.6-63.3 172.6-115.5 173.3-115.9 1-.6-.9-4.3-7.2-14.4-112.5-179.3-146.4-395.7-94.1-601.2 34.5-135.6 102.9-256.4 201-355.1C768.7 521.5 935.9 441.5 1111 423.6c38.4-3.9 93.1-5.1 128-2.6 108 7.4 205.9 34.1 300.9 82 100 50.4 185.2 119.4 257 208.3 4 4.9 6.8 7.6 7.7 7.3 1.9-.7 348.5-225.5 350.3-227.2 1.2-1.1.1-3.1-7.4-13.1-161.2-215.6-389.7-369.8-650-438.7C1416.1 18.1 1333.6 5.4 1247 1c-22.6-1.1-92.4-1.1-115 .1z"/><path d="M1173 589.6c-106.5 4.1-204.5 33.2-293.5 87.2-98.2 59.6-175.5 143.3-226.6 245.3-34.4 68.8-53.7 136.7-61.9 217.9-1.8 17-2.4 70.4-1.1 89.5 7.1 104.5 37.2 197.3 93.5 287.5 2.5 4.1 4.6 8 4.6 8.7 0 .7.9 2.2 2.1 3.4 1.1 1.1 5.2 9.1 9.1 17.7 3.8 8.7 11.6 25.4 17.3 37.2 17.4 36.1 22.7 55.5 22.8 83 .2 32.5-8.3 55.4-28.1 76.2l-7.3 7.6 6.8-1.5c18.2-4 71.2-17.9 90.8-23.7 85.1-25.3 158.7-56.9 206.4-88.8 18.9-12.6 29.4-21 42.7-34.3 14.2-14.2 20.3-22 26.3-34.1 5.5-11 7.4-19 7.4-30.4 0-8.2-.4-10.7-3.2-18.5-9.9-27.4-11.6-35.5-11.5-55.5 0-17.2 1.2-23.8 6.5-36.6 13.1-31.5 45.5-54.3 84.6-59.5 5.2-.7 14.2-.9 21.8-.6 43.3 1.8 77.4 25.6 90.1 62.9 7.3 21.5 7.6 45.2.9 78.3-5.9 29.2-5 49.2 3.5 74.6 17.8 53.5 66.5 104 133 137.8 40.6 20.7 83 33.4 131 39.3 16 2 67.1 1.7 83.5-.5 75.8-10.1 140.3-40.7 198.8-94.1 11.1-10.1 35.7-36.2 35.7-37.8 0-.4-2.8-2.6-6.2-4.9-13.4-9-49.3-35-70.3-50.8-96-72.3-165.8-138.8-215.5-205.6-16.8-22.5-38.9-57.3-37.6-59.3.3-.5 88.3-64.3 195.5-141.8 107.3-77.5 195.1-141.2 195.1-141.5 0-1.1-186.2-266.4-186.9-266.2-.4.1-17.9 11.2-38.9 24.8l-38.3 24.6-2.7-3.3c-14.8-17.9-44.2-47.9-63.2-64.4-99.7-87-224.1-138.9-355.5-148.3-16.2-1.2-49.1-2-61.5-1.5z"/></svg>