<?xml version="1.0" encoding="UTF-8"?>
<svg id="Layer_1" data-name="Layer 1" xmlns="http://www.w3.org/2000/svg" viewBox="0 0 101 61.75">
  <defs>
    <style>
      .cls-1 {
        fill: #000;
      }

      .cls-1, .cls-2, .cls-3 {
        stroke-width: 0px;
      }

      .cls-2 {
        fill: #bb1b3d;
      }

      .cls-3 {
        fill: #002d77;
      }
    </style>
  </defs>
  <path class="cls-3" d="M34.75.53h7.46c0,.29,0-.49,0,0,0,7.86.02,16.96.01,24.82,0,1.86.05,3.71.48,5.53.75,3.14,2.48,4.69,5.67,5.11,1.47.19,2.94.18,4.41-.02,2.86-.39,4.54-1.83,5.32-4.62.57-2.03.64-4.12.64-6.21V.53h.02s7.49-.01,7.49-.01c0,.46.01.66.01.99v24.15c0,2.68-.19,5.33-.86,7.93-1.22,4.71-4.22,7.52-9.01,8.41-3.98.74-7.97.74-11.91-.11-5.27-1.13-8.28-4.47-9.22-9.92-.36-2.07-.5-4.14-.5-6.24"/>
  <path class="cls-2" d="M74.26,6.56c-.15-1.71-.29-3.39-.44-5.11,2.27-.66,4.53-1,6.81-1.15,4.45-.3,8.91-.53,13.34.31,3.72.71,6.02,2.82,6.67,6.6.48,2.78.52,5.55-.17,8.29-.81,3.22-2.83,5.45-5.85,6.77-2.88,1.26-5.95,1.97-8.91,2.98-1.06.36-2.13.71-3.18,1.11-1.39.53-2.19,1.56-2.43,3.01-.19,1.19-.21,2.4,0,3.58.34,1.88,1.35,2.74,3.46,2.99,3.21.39,6.43.14,9.65.11,2.21-.02,4.42,0,6.75,0,.14,1.71.29,3.5.45,5.34-4.64.93-9.22,1.36-13.84,1.31-2.41-.02-4.8-.14-7.17-.67-3.78-.84-6.05-3.06-6.71-6.91-.42-2.47-.48-4.93-.07-7.39.72-4.31,3.42-6.9,7.41-8.27,2.71-.93,5.46-1.72,8.2-2.57.26-.08.52-.16.78-.24,3.93-1.26,5.16-3.41,4.24-7.43-.36-1.57-1.39-2.38-3.3-2.57-3.1-.32-6.2-.14-9.31-.09-2.09.03-4.18,0-6.39,0h0Z"/>
  <path class="cls-2" d="M.52,41.37c.17-1.85.33-3.61.49-5.32,2.26,0,4.42,0,6.59,0,3.22.03,6.44.28,9.66-.1,2.49-.3,3.36-1.19,3.69-3.68.15-1.09.07-2.17-.15-3.23-.32-1.51-1.36-2.4-2.77-2.87-3.09-1.02-6.19-2-9.28-3.01-.88-.29-1.76-.6-2.6-.99C2.63,20.52.66,17.71.19,13.9-.11,11.47-.08,9.04.45,6.63,1.3,2.74,4.03.94,7.7.46,14.18-.39,20.63-.06,27.16,1.36c-.15,1.75-.3,3.47-.45,5.18-2.3,0-4.53.02-6.77,0-2.91-.03-5.82-.2-8.73.08-2.48.24-3.54,1.31-3.64,3.78-.03.62-.03,1.24.02,1.86.14,1.77.96,3.06,2.67,3.73,2.78,1.11,5.67,1.83,8.51,2.73,1.89.6,3.76,1.22,5.42,2.34,2.67,1.8,3.93,4.42,4.27,7.52.25,2.31.22,4.64-.25,6.94-.72,3.52-2.9,5.62-6.37,6.45-4.1.97-8.25.8-12.4.59-2.94-.15-5.86-.54-8.91-1.19h-.01Z"/>
  <g>
    <path class="cls-1" d="M69.49,52.7c.49.06.92.16,1.29.31l-.18.74c-.63-.1-1.41-.14-2.32-.14-.78,0-1.39.11-1.82.32-.44.22-.75.58-.95,1.1-.2.51-.3,1.24-.3,2.17s.1,1.66.3,2.17c.2.51.51.88.95,1.09.44.21,1.04.31,1.82.31,1.01,0,1.85-.07,2.53-.2l.13.79c-.89.26-1.83.4-2.84.4s-1.8-.15-2.4-.44-1.02-.77-1.28-1.43-.4-1.56-.4-2.69.13-2.04.4-2.69c.26-.66.69-1.14,1.28-1.44.59-.3,1.39-.45,2.4-.45.43,0,.89.03,1.38.09Z"/>
    <path class="cls-1" d="M78.93,53.06c.58.3,1,.78,1.26,1.45.26.66.39,1.56.39,2.68s-.13,2.02-.39,2.68c-.26.66-.68,1.14-1.26,1.44-.58.3-1.36.45-2.34.45s-1.78-.15-2.35-.45c-.57-.3-.99-.78-1.26-1.44-.26-.66-.4-1.55-.4-2.68s.13-2.02.4-2.68c.26-.67.69-1.15,1.27-1.45.58-.3,1.36-.45,2.34-.45s1.76.15,2.34.45ZM74.91,53.93c-.4.22-.69.59-.86,1.1-.17.51-.26,1.23-.26,2.16s.09,1.66.26,2.16c.17.51.46.88.86,1.1.4.22.96.33,1.68.33s1.28-.11,1.68-.33c.4-.22.69-.59.86-1.1.17-.51.26-1.23.26-2.16s-.09-1.66-.26-2.16-.46-.87-.86-1.1-.96-.33-1.68-.33-1.28.11-1.68.33Z"/>
    <path class="cls-1" d="M90.34,48.96v12.57h-.88l-.11-1.33c-1.21,1.03-2.38,1.54-3.5,1.54s-1.9-.37-2.38-1.1c-.49-.73-.73-1.89-.73-3.48,0-1.11.11-2,.34-2.67.23-.67.58-1.15,1.05-1.45.47-.3,1.09-.45,1.86-.45,1.07,0,2.16.28,3.29.84-.05-.4-.07-.96-.07-1.71v-2.78h1.13ZM84.16,59.31c.15.52.39.88.71,1.11s.76.33,1.31.33c.49,0,.95-.1,1.37-.31.42-.2.98-.56,1.66-1.06v-5.14c-.66-.22-1.21-.37-1.64-.48-.44-.1-.88-.15-1.34-.15-.58,0-1.03.11-1.36.32-.33.22-.57.58-.72,1.09-.15.51-.22,1.22-.22,2.13s.07,1.64.22,2.16Z"/>
    <path class="cls-1" d="M100.15,60.55l.13.77c-.35.13-.84.24-1.49.31s-1.25.12-1.8.12c-.98,0-1.77-.15-2.35-.46-.59-.31-1.01-.79-1.28-1.46s-.4-1.56-.4-2.69.13-2.04.4-2.69.68-1.13,1.24-1.42,1.32-.43,2.26-.43c1.25,0,2.16.23,2.75.69s.88,1.16.88,2.09c0,1.57-.66,2.35-1.99,2.35h-4.33c.04.79.16,1.4.39,1.83.22.43.54.74.95.92s.97.27,1.66.27c.9,0,1.9-.07,3-.22ZM95.29,53.9c-.39.2-.67.54-.85,1.01-.18.47-.28,1.11-.31,1.94h4.08c.74,0,1.11-.47,1.11-1.42,0-.65-.19-1.11-.57-1.4-.38-.29-1-.43-1.86-.43-.68,0-1.22.1-1.61.31Z"/>
  </g>
</svg>