<svg xmlns="http://www.w3.org/2000/svg" width="498" height="225">
    <path
        fill="#bc1c3c"
        fill-rule="evenodd"
        d="M79.021 26.125C52.072 29.245 41.892 40.409 40.379 68.5c-1.038 19.284 3.358 33.398 13.557 43.524 7.314 7.262 13.986 10.347 40.064 18.524 33.66 10.555 35.155 11.683 35.825 27.006.333 7.598.057 9.923-1.625 13.726-3.655 8.264-3.221 8.185-46.2 8.461-37.5.241-37.5.241-38.126 7-.344 3.717-.681 9.073-.75 11.901-.144 5.969-1.098 5.459 14.638 7.822 17.714 2.661 42.692 3.773 57.738 2.572 21.891-1.748 33.872-6.63 40.653-16.565 9.423-13.807 10.159-45.081 1.464-62.24-3.129-6.174-11.764-14.267-19.263-18.052-3.282-1.657-16.292-6.238-28.911-10.18-24.148-7.543-29.566-9.876-32.663-14.066-4.812-6.511-4.422-23.79.661-29.275 4.078-4.4 8.274-4.83 44.449-4.556 33.61.254 33.61.254 34.503-11.027.721-9.099.634-11.441-.45-12.11-2.149-1.328-17.461-3.857-29.943-4.945-13.486-1.176-36.354-1.125-46.979.105m307.479.003c-8.449.805-23.711 3.281-27.856 4.519-1.951.583-1.952 1.375-.027 18.853.55 5 .55 5 36.217 5 38.72 0 39.325.078 43.432 5.63 2.243 3.033 3.379 13.083 2.295 20.311-.849 5.661-5.258 11.074-11.027 13.538-2.219.948-13.259 4.544-24.534 7.991-11.275 3.447-23.65 7.764-27.5 9.594-19.743 9.382-27.425 24.865-26.248 52.902 1.052 25.053 9.269 36.727 29.55 41.983 15.098 3.912 49.423 3.904 76.124-.018 16.83-2.472 15.302-1.335 14.509-10.804-1.465-17.479 3.125-15.607-38.935-15.884-35.175-.231-37.171-.343-40.465-2.278-5.802-3.409-7.539-7.564-7.51-17.965.03-10.351 1.623-14.671 6.742-18.279 1.778-1.253 12.458-5.222 23.733-8.82 26.009-8.299 32.628-10.779 38.205-14.316 10.248-6.499 17.387-17.218 19.828-29.772 1.86-9.568.83-31.353-1.828-38.668-6.782-18.663-22.059-24.829-60.705-24.502-8.25.07-19.05.513-24 .985"
    />
    <path
        fill="#042664"
        fill-rule="evenodd"
        d="M189.001 83.25c0 30.938.462 61.2 1.026 67.25 2.881 30.891 13.558 46.857 36.099 53.979 15.298 4.834 40.507 5.648 57.374 1.853 21.033-4.732 32.571-16.078 38.771-38.125 2.108-7.495 2.177-9.544 2.495-74.457.326-66.75.326-66.75-16.178-66.75-16.505 0-16.505 0-16.821 64.25-.285 58.035-.485 64.754-2.067 69.456-2.423 7.201-7.302 13.213-13.181 16.239-4.314 2.221-6.49 2.601-16.634 2.907-14.73.445-21.122-1.186-27.425-6.996-5.402-4.979-8.072-11.657-9.442-23.619-.553-4.823-1.005-34.158-1.01-65.487C222 27 222 27 205.5 27s-16.5 0-16.499 56.25"
    />
</svg>
