<?xml version="1.0" encoding="UTF-8"?>
<svg id="Layer_1" data-name="Layer 1" xmlns="http://www.w3.org/2000/svg" viewBox="0 0 100.49 28.38">
  <defs>
    <style>
      .cls-1 {
        fill: #231f20;
      }

      .cls-1, .cls-2 {
        stroke-width: 0px;
      }

      .cls-2 {
        fill: #fbfcfd;
      }
    </style>
  </defs>
  <rect class="cls-1" width="100.49" height="28.38"/>
  <path class="cls-2" d="M4.71,1.34l13.41,19.27c1.23,1.2,2.31,0,2.31,0L33.06,1.86s.76-.99,1.67-1.01c2.49-.06,3.05,1,3.36,2.43,0,.02.13,1.07-.7,2.32l-15.08,21.31c-1.71,1.95-4.46,1.88-6.04-.1L.52,4.67c-1.06-1.49-.17-2.53-.17-2.53C1.09.98,2.17.62,2.99.52c0,0,.86-.28,1.72.82Z"/>
  <path class="cls-2" d="M41.28,7.56c.62.02,1.41-.12,2.26,0,.63.09,1.1.66,1.1,1.3v17.81c0,.66-.49,1.23-1.15,1.3-.62.07-1.42.11-2.24.04-.68-.07-1.21-.63-1.21-1.31V8.95s0-1.43,1.24-1.39Z"/>
  <path class="cls-2" d="M77.74.93c.67-.14,1.6-.23,2.59-.01.58.13.98.68.98,1.28v24.47c0,.65-.47,1.21-1.11,1.31s-1.46.16-2.3.05c-.65-.09-1.18-.67-1.18-1.32V2.22c0-.62.42-1.17,1.03-1.29Z"/>
  <circle class="cls-2" cx="42.72" cy="3.28" r="3.16"/>
  <path class="cls-2" d="M69.79,15.75c3.76,1.25,6.77,6.83,2.72,10.4-1.67,1.35-3.3,1.92-4.62,1.93-.05,0-17.99,0-18.03,0-2.88-.15-2.82-4.88,0-4.7l16.52-.17c1.01.01,3.57-.86,2.59-3.07,0,0-.34-1.15-2.78-1.01h-11.32s-.1,0-.15,0c-3.96-.25-4.85-1.34-4.85-1.34-1.67-1.65-3.4-4.63-.52-8.81.14-.19,1.69-2.14,4.1-2.15.84.07,7.53-.2,8.16.2,1.03.39,1.62,1.55,1.24,2.57-.61,1.63-2.7,1.53-2.7,1.53h-5.36c-1.96.14-2.15.94-2.15.94-.58,1.18-.52,3.6,2.34,3.28l11.88-.04s1.6,0,2.93.45Z"/>
  <path class="cls-2" d="M88.18.93c.64-.14,1.53-.22,2.48-.04.63.12,1.09.66,1.09,1.3v24.47c0,.65-.47,1.21-1.11,1.3s-1.46.16-2.31.05c-.67-.09-1.18-.64-1.18-1.32V2.22c0-.62.42-1.16,1.03-1.29Z"/>
  <path class="cls-2" d="M99.15,10.75c.67,0,1.23-.5,1.3-1.17.04-.36.05-.79-.01-1.27-.08-.66-.64-1.16-1.3-1.16h-14.29c-.64,0-1.19.46-1.29,1.09-.07.41-.11.89-.05,1.39.08.64.65,1.12,1.3,1.12h14.34Z"/>
</svg>